<?xml version="1.0" encoding="utf-8"?>
<!-- Generator: Adobe Illustrator 26.5.0, SVG Export Plug-In . SVG Version: 6.00 Build 0)  -->
<svg version="1.1" id="Capa_1" xmlns="http://www.w3.org/2000/svg" xmlns:xlink="http://www.w3.org/1999/xlink" x="0px" y="0px"
	 viewBox="0 0 1440 560" style="enable-background:new 0 0 1440 560;" xml:space="preserve">
<style type="text/css">
	.st0{display:none;}
	.st1{display:inline;}
	.st2{fill:none;}
	.st3{fill:#FEFEFE;}
	.st4{fill:#136E77;}
	.st5{fill:#248F97;}
	.st6{fill:#1B7E86;}
	.st7{fill:#1B7F87;}
	.st8{fill:#156F78;}
	.st9{clip-path:url(#SVGID_00000116935009548365450150000002180391036786519708_);}
	.st10{fill:#2B9DA5;}
	.st11{fill:#2FA4AB;}
	.st12{fill:#28979E;}
	.st13{fill:#16757E;}
	.st14{fill:#208890;}
	.st15{fill:#126E77;}
	.st16{fill:#1A7B84;}
	.st17{fill:#36B2B8;}
	.st18{fill:#1E828B;}
	.st19{fill:#208991;}
	.st20{fill:#32ABB2;}
	.st21{fill:#31A8AF;}
	.st22{fill:#36B2B9;}
	.st23{fill:#228C94;}
	.st24{display:none;fill:#FFFFFF;}
	.st25{display:none;fill:none;}
	.st26{font-family:'ArialMT';}
	.st27{font-size:72px;}
	.st28{letter-spacing:18;}
	.st29{letter-spacing:3;}
	.st30{letter-spacing:19;}
</style>
<g id="Capa_1-2" class="st0">
	<g class="st1">
		<rect y="0" class="st2" width="1440" height="560"/>
		<path class="st2" d="M35,162.8l64.9,37.5v75L35,312.8l-64.9-37.5v-75L35,162.8L35,162.8z M229.9,50.3l65,37.5v75l-65,37.5
			L165,162.8v-75L229.9,50.3z M229.9,275.3l65,37.5v75l-65,37.5L165,387.8v-75L229.9,275.3z M294.8-62.2l65,37.5v75l-65,37.5
			l-65-37.5v-75L294.8-62.2z M489.7,275.3l65,37.5v75l-65,37.5l-65-37.5v-75L489.7,275.3L489.7,275.3z M489.7,500.3l65,37.5v75
			l-65,37.5l-65-37.5v-75L489.7,500.3L489.7,500.3z M749.5,500.3l65,37.5v75l-65,37.5l-65-37.5v-75L749.5,500.3z M814.5,162.8
			l65,37.5v75l-65,37.5l-65-37.5v-75L814.5,162.8z M1139.2,275.3l65,37.5v75l-65,37.5l-64.9-37.5v-75L1139.2,275.3z M1204.2-62.2
			l64.9,37.5v75l-64.9,37.5l-65-37.5v-75L1204.2-62.2L1204.2-62.2z M1269.1,275.3l64.9,37.5v75l-64.9,37.5l-64.9-37.5v-75
			L1269.1,275.3z M1204.2,387.8l64.9,37.5v75l-64.9,37.5l-65-37.5v-75L1204.2,387.8z M1399,50.3l64.9,37.5v75l-64.9,37.5l-65-37.5
			v-75L1399,50.3z M1528.9,50.3l65,37.5v75l-65,37.5l-65-37.5v-75L1528.9,50.3z M1528.9,275.3l65,37.5v75l-65,37.5l-65-37.5v-75
			L1528.9,275.3z M1528.9,500.3l65,37.5v75l-65,37.5l-65-37.5v-75L1528.9,500.3z"/>
		<path class="st2" d="M27.5,162.8c0,4.1,3.4,7.5,7.5,7.5s7.5-3.4,7.5-7.5s-3.4-7.5-7.5-7.5S27.5,158.7,27.5,162.8z M92.5,200.3
			c0,4.1,3.4,7.5,7.5,7.5s7.5-3.4,7.5-7.5s-3.4-7.5-7.5-7.5S92.5,196.2,92.5,200.3z M92.5,275.3c0,4.1,3.4,7.5,7.5,7.5
			s7.5-3.4,7.5-7.5s-3.4-7.5-7.5-7.5S92.5,271.2,92.5,275.3z M27.5,312.8c0,4.1,3.4,7.5,7.5,7.5s7.5-3.4,7.5-7.5s-3.4-7.5-7.5-7.5
			S27.5,308.7,27.5,312.8z M-37.4,275.3c0,4.1,3.4,7.5,7.5,7.5s7.5-3.4,7.5-7.5s-3.4-7.5-7.5-7.5S-37.4,271.2-37.4,275.3z
			 M-37.4,200.3c0,4.1,3.4,7.5,7.5,7.5s7.5-3.4,7.5-7.5s-3.4-7.5-7.5-7.5S-37.4,196.2-37.4,200.3z M222.4,50.3
			c0,4.1,3.4,7.5,7.5,7.5s7.5-3.4,7.5-7.5s-3.4-7.5-7.5-7.5S222.4,46.2,222.4,50.3z M287.3,87.8c0,4.1,3.4,7.5,7.5,7.5
			s7.5-3.4,7.5-7.5s-3.4-7.5-7.5-7.5S287.3,83.7,287.3,87.8z M287.3,162.8c0,4.1,3.4,7.5,7.5,7.5s7.5-3.4,7.5-7.5s-3.4-7.5-7.5-7.5
			S287.3,158.7,287.3,162.8z M222.4,200.3c0,4.1,3.4,7.5,7.5,7.5s7.5-3.4,7.5-7.5s-3.4-7.5-7.5-7.5S222.4,196.2,222.4,200.3z
			 M157.4,162.8c0,4.1,3.4,7.5,7.5,7.5s7.5-3.4,7.5-7.5s-3.4-7.5-7.5-7.5S157.4,158.7,157.4,162.8z M157.4,87.8
			c0,4.1,3.4,7.5,7.5,7.5s7.5-3.4,7.5-7.5s-3.4-7.5-7.5-7.5S157.4,83.7,157.4,87.8z M222.4,275.3c0,4.1,3.4,7.5,7.5,7.5
			s7.5-3.4,7.5-7.5s-3.4-7.5-7.5-7.5S222.4,271.2,222.4,275.3z M287.3,312.8c0,4.1,3.4,7.5,7.5,7.5s7.5-3.4,7.5-7.5
			s-3.4-7.5-7.5-7.5S287.3,308.7,287.3,312.8z M287.3,387.8c0,4.1,3.4,7.5,7.5,7.5s7.5-3.4,7.5-7.5s-3.4-7.5-7.5-7.5
			S287.3,383.7,287.3,387.8z M222.4,425.3c0,4.1,3.4,7.5,7.5,7.5s7.5-3.4,7.5-7.5s-3.4-7.5-7.5-7.5S222.4,421.2,222.4,425.3z
			 M157.4,387.8c0,4.1,3.4,7.5,7.5,7.5s7.5-3.4,7.5-7.5s-3.4-7.5-7.5-7.5S157.4,383.7,157.4,387.8z M157.4,312.8
			c0,4.1,3.4,7.5,7.5,7.5s7.5-3.4,7.5-7.5s-3.4-7.5-7.5-7.5S157.4,308.7,157.4,312.8z M287.3-62.2c0,4.1,3.4,7.5,7.5,7.5
			s7.5-3.4,7.5-7.5s-3.4-7.5-7.5-7.5S287.3-66.3,287.3-62.2z M352.3-24.7c0,4.1,3.4,7.5,7.5,7.5s7.5-3.4,7.5-7.5s-3.4-7.5-7.5-7.5
			S352.3-28.8,352.3-24.7z M352.3,50.3c0,4.1,3.4,7.5,7.5,7.5s7.5-3.4,7.5-7.5s-3.4-7.5-7.5-7.5S352.3,46.2,352.3,50.3z M222.4-24.7
			c0,4.1,3.4,7.5,7.5,7.5s7.5-3.4,7.5-7.5s-3.4-7.5-7.5-7.5S222.4-28.8,222.4-24.7z M482.2,275.3c0,4.1,3.4,7.5,7.5,7.5
			s7.5-3.4,7.5-7.5s-3.4-7.5-7.5-7.5S482.2,271.2,482.2,275.3z M547.1,312.8c0,4.1,3.4,7.5,7.5,7.5s7.5-3.4,7.5-7.5
			s-3.4-7.5-7.5-7.5S547.1,308.7,547.1,312.8z M547.1,387.8c0,4.1,3.4,7.5,7.5,7.5s7.5-3.4,7.5-7.5s-3.4-7.5-7.5-7.5
			S547.1,383.7,547.1,387.8z M482.2,425.3c0,4.1,3.4,7.5,7.5,7.5s7.5-3.4,7.5-7.5s-3.4-7.5-7.5-7.5S482.2,421.2,482.2,425.3z
			 M417.2,387.8c0,4.1,3.4,7.5,7.5,7.5s7.5-3.4,7.5-7.5s-3.4-7.5-7.5-7.5S417.2,383.7,417.2,387.8z M417.2,312.8
			c0,4.1,3.4,7.5,7.5,7.5s7.5-3.4,7.5-7.5s-3.4-7.5-7.5-7.5S417.2,308.7,417.2,312.8z M482.2,500.3c0,4.1,3.4,7.5,7.5,7.5
			s7.5-3.4,7.5-7.5l0,0c0-4.1-3.4-7.5-7.5-7.5S482.2,496.2,482.2,500.3L482.2,500.3z M547.1,537.8c0,4.1,3.4,7.5,7.5,7.5
			s7.5-3.4,7.5-7.5s-3.4-7.5-7.5-7.5S547.1,533.7,547.1,537.8z M547.1,612.8c0,4.1,3.4,7.5,7.5,7.5s7.5-3.4,7.5-7.5
			s-3.4-7.5-7.5-7.5S547.1,608.7,547.1,612.8z M482.2,650.3c0,4.1,3.4,7.5,7.5,7.5s7.5-3.4,7.5-7.5l0,0c0-4.1-3.4-7.5-7.5-7.5
			S482.2,646.2,482.2,650.3L482.2,650.3z M417.2,612.8c0,4.1,3.4,7.5,7.5,7.5s7.5-3.4,7.5-7.5s-3.4-7.5-7.5-7.5
			S417.2,608.7,417.2,612.8z M417.2,537.8c0,4.1,3.4,7.5,7.5,7.5s7.5-3.4,7.5-7.5s-3.4-7.5-7.5-7.5S417.2,533.7,417.2,537.8z
			 M742,500.3c0,4.1,3.4,7.5,7.5,7.5s7.5-3.4,7.5-7.5l0,0c0-4.1-3.4-7.5-7.5-7.5S742,496.2,742,500.3L742,500.3z M807,537.8
			c0,4.1,3.4,7.5,7.5,7.5s7.5-3.4,7.5-7.5s-3.4-7.5-7.5-7.5S807,533.7,807,537.8z M807,612.8c0,4.1,3.4,7.5,7.5,7.5s7.5-3.4,7.5-7.5
			s-3.4-7.5-7.5-7.5S807,608.7,807,612.8z M742,650.3c0,4.1,3.4,7.5,7.5,7.5s7.5-3.4,7.5-7.5l0,0c0-4.1-3.4-7.5-7.5-7.5
			S742,646.2,742,650.3L742,650.3z M677,612.8c0,4.1,3.4,7.5,7.5,7.5s7.5-3.4,7.5-7.5s-3.4-7.5-7.5-7.5S677,608.7,677,612.8z
			 M677,537.8c0,4.1,3.4,7.5,7.5,7.5s7.5-3.4,7.5-7.5s-3.4-7.5-7.5-7.5S677,533.7,677,537.8z M807,162.8c0,4.1,3.4,7.5,7.5,7.5
			s7.5-3.4,7.5-7.5s-3.4-7.5-7.5-7.5S807,158.7,807,162.8z M871.9,200.3c0,4.1,3.4,7.5,7.5,7.5s7.5-3.4,7.5-7.5s-3.4-7.5-7.5-7.5
			S871.9,196.2,871.9,200.3z M871.9,275.3c0,4.1,3.4,7.5,7.5,7.5s7.5-3.4,7.5-7.5s-3.4-7.5-7.5-7.5S871.9,271.2,871.9,275.3z
			 M807,312.8c0,4.1,3.4,7.5,7.5,7.5s7.5-3.4,7.5-7.5s-3.4-7.5-7.5-7.5S807,308.7,807,312.8z M742,275.3c0,4.1,3.4,7.5,7.5,7.5
			s7.5-3.4,7.5-7.5s-3.4-7.5-7.5-7.5S742,271.2,742,275.3z M742,200.3c0,4.1,3.4,7.5,7.5,7.5s7.5-3.4,7.5-7.5s-3.4-7.5-7.5-7.5
			S742,196.2,742,200.3z M1131.7,275.3c0,4.1,3.4,7.5,7.5,7.5s7.5-3.4,7.5-7.5s-3.4-7.5-7.5-7.5S1131.7,271.2,1131.7,275.3z
			 M1196.7,312.8c0,4.1,3.4,7.5,7.5,7.5s7.5-3.4,7.5-7.5s-3.4-7.5-7.5-7.5S1196.7,308.7,1196.7,312.8z M1196.7,387.8
			c0,4.1,3.4,7.5,7.5,7.5s7.5-3.4,7.5-7.5s-3.4-7.5-7.5-7.5S1196.7,383.7,1196.7,387.8z M1131.7,425.3c0,4.1,3.4,7.5,7.5,7.5
			s7.5-3.4,7.5-7.5s-3.4-7.5-7.5-7.5S1131.7,421.2,1131.7,425.3z M1066.8,387.8c0,4.1,3.4,7.5,7.5,7.5s7.5-3.4,7.5-7.5
			s-3.4-7.5-7.5-7.5S1066.8,383.7,1066.8,387.8z M1066.8,312.8c0,4.1,3.4,7.5,7.5,7.5s7.5-3.4,7.5-7.5s-3.4-7.5-7.5-7.5
			S1066.8,308.7,1066.8,312.8z M1196.7-62.2c0,4.1,3.4,7.5,7.5,7.5s7.5-3.4,7.5-7.5s-3.4-7.5-7.5-7.5S1196.7-66.3,1196.7-62.2z
			 M1261.6-24.7c0,4.1,3.4,7.5,7.5,7.5s7.5-3.4,7.5-7.5s-3.4-7.5-7.5-7.5S1261.6-28.8,1261.6-24.7z M1261.6,50.3
			c0,4.1,3.4,7.5,7.5,7.5s7.5-3.4,7.5-7.5s-3.4-7.5-7.5-7.5S1261.6,46.2,1261.6,50.3z M1196.7,87.8c0,4.1,3.4,7.5,7.5,7.5
			s7.5-3.4,7.5-7.5s-3.4-7.5-7.5-7.5S1196.7,83.7,1196.7,87.8z M1131.7,50.3c0,4.1,3.4,7.5,7.5,7.5s7.5-3.4,7.5-7.5
			s-3.4-7.5-7.5-7.5S1131.7,46.2,1131.7,50.3z M1131.7-24.7c0,4.1,3.4,7.5,7.5,7.5s7.5-3.4,7.5-7.5s-3.4-7.5-7.5-7.5
			S1131.7-28.8,1131.7-24.7z M1261.6,275.3c0,4.1,3.4,7.5,7.5,7.5s7.5-3.4,7.5-7.5s-3.4-7.5-7.5-7.5S1261.6,271.2,1261.6,275.3z
			 M1326.6,312.8c0,4.1,3.4,7.5,7.5,7.5s7.5-3.4,7.5-7.5s-3.4-7.5-7.5-7.5S1326.6,308.7,1326.6,312.8z M1326.6,387.8
			c0,4.1,3.4,7.5,7.5,7.5s7.5-3.4,7.5-7.5s-3.4-7.5-7.5-7.5S1326.6,383.7,1326.6,387.8z M1261.6,425.3c0,4.1,3.4,7.5,7.5,7.5
			s7.5-3.4,7.5-7.5s-3.4-7.5-7.5-7.5S1261.6,421.2,1261.6,425.3z M1261.6,500.3c0,4.1,3.4,7.5,7.5,7.5s7.5-3.4,7.5-7.5l0,0
			c0-4.1-3.4-7.5-7.5-7.5S1261.6,496.2,1261.6,500.3L1261.6,500.3z M1196.7,537.8c0,4.1,3.4,7.5,7.5,7.5s7.5-3.4,7.5-7.5
			s-3.4-7.5-7.5-7.5S1196.7,533.7,1196.7,537.8z M1131.7,500.3c0,4.1,3.4,7.5,7.5,7.5s7.5-3.4,7.5-7.5l0,0c0-4.1-3.4-7.5-7.5-7.5
			S1131.7,496.2,1131.7,500.3L1131.7,500.3z M1391.5,50.3c0,4.1,3.4,7.5,7.5,7.5s7.5-3.4,7.5-7.5s-3.4-7.5-7.5-7.5
			S1391.5,46.2,1391.5,50.3z M1456.5,87.8c0,4.1,3.4,7.5,7.5,7.5s7.5-3.4,7.5-7.5s-3.4-7.5-7.5-7.5S1456.5,83.7,1456.5,87.8z
			 M1456.5,162.8c0,4.1,3.4,7.5,7.5,7.5s7.5-3.4,7.5-7.5s-3.4-7.5-7.5-7.5S1456.5,158.7,1456.5,162.8z M1391.5,200.3
			c0,4.1,3.4,7.5,7.5,7.5s7.5-3.4,7.5-7.5s-3.4-7.5-7.5-7.5S1391.5,196.2,1391.5,200.3z M1326.6,162.8c0,4.1,3.4,7.5,7.5,7.5
			s7.5-3.4,7.5-7.5s-3.4-7.5-7.5-7.5S1326.6,158.7,1326.6,162.8z M1326.6,87.8c0,4.1,3.4,7.5,7.5,7.5s7.5-3.4,7.5-7.5
			s-3.4-7.5-7.5-7.5S1326.6,83.7,1326.6,87.8z M1521.4,50.3c0,4.1,3.4,7.5,7.5,7.5s7.5-3.4,7.5-7.5s-3.4-7.5-7.5-7.5
			S1521.4,46.2,1521.4,50.3z M1586.4,87.8c0,4.1,3.4,7.5,7.5,7.5s7.5-3.4,7.5-7.5s-3.4-7.5-7.5-7.5S1586.4,83.7,1586.4,87.8z
			 M1586.4,162.8c0,4.1,3.4,7.5,7.5,7.5s7.5-3.4,7.5-7.5s-3.4-7.5-7.5-7.5S1586.4,158.7,1586.4,162.8z M1521.4,200.3
			c0,4.1,3.4,7.5,7.5,7.5s7.5-3.4,7.5-7.5s-3.4-7.5-7.5-7.5S1521.4,196.2,1521.4,200.3z M1521.4,275.3c0,4.1,3.4,7.5,7.5,7.5
			s7.5-3.4,7.5-7.5s-3.4-7.5-7.5-7.5S1521.4,271.2,1521.4,275.3z M1586.4,312.8c0,4.1,3.4,7.5,7.5,7.5s7.5-3.4,7.5-7.5
			s-3.4-7.5-7.5-7.5S1586.4,308.7,1586.4,312.8z M1586.4,387.8c0,4.1,3.4,7.5,7.5,7.5s7.5-3.4,7.5-7.5s-3.4-7.5-7.5-7.5
			S1586.4,383.7,1586.4,387.8z M1521.4,425.3c0,4.1,3.4,7.5,7.5,7.5s7.5-3.4,7.5-7.5s-3.4-7.5-7.5-7.5S1521.4,421.2,1521.4,425.3z
			 M1456.5,387.8c0,4.1,3.4,7.5,7.5,7.5s7.5-3.4,7.5-7.5s-3.4-7.5-7.5-7.5S1456.5,383.7,1456.5,387.8z M1456.5,312.8
			c0,4.1,3.4,7.5,7.5,7.5s7.5-3.4,7.5-7.5s-3.4-7.5-7.5-7.5S1456.5,308.7,1456.5,312.8z M1521.4,500.3c0,4.1,3.4,7.5,7.5,7.5
			s7.5-3.4,7.5-7.5l0,0c0-4.1-3.4-7.5-7.5-7.5S1521.4,496.2,1521.4,500.3L1521.4,500.3z M1586.4,537.8c0,4.1,3.4,7.5,7.5,7.5
			s7.5-3.4,7.5-7.5s-3.4-7.5-7.5-7.5S1586.4,533.7,1586.4,537.8z M1586.4,612.8c0,4.1,3.4,7.5,7.5,7.5s7.5-3.4,7.5-7.5
			s-3.4-7.5-7.5-7.5S1586.4,608.7,1586.4,612.8z M1521.4,650.3c0,4.1,3.4,7.5,7.5,7.5s7.5-3.4,7.5-7.5l0,0c0-4.1-3.4-7.5-7.5-7.5
			S1521.4,646.2,1521.4,650.3L1521.4,650.3z M1456.5,612.8c0,4.1,3.4,7.5,7.5,7.5s7.5-3.4,7.5-7.5s-3.4-7.5-7.5-7.5
			S1456.5,608.7,1456.5,612.8z M1456.5,537.8c0,4.1,3.4,7.5,7.5,7.5s7.5-3.4,7.5-7.5s-3.4-7.5-7.5-7.5S1456.5,533.7,1456.5,537.8z"
			/>
		<path class="st2" d="M91.8,370.9l43.3,25v50l-43.3,25l-43.3-25v-50L91.8,370.9z M91.8,520.9l43.3,25v50l-43.3,25l-43.3-25v-50
			L91.8,520.9z M178.4,220.9l43.3,25v50l-43.3,25l-43.3-25v-50L178.4,220.9z M221.7-4.1l43.3,25v50l-43.3,25l-43.3-25v-50L221.7-4.1
			z M265,70.9l43.3,25v50l-43.3,25l-43.3-25v-50C221.7,95.9,265,70.9,265,70.9z M221.7,145.9l43.3,25v50l-43.3,25l-43.3-25v-50
			L221.7,145.9z M221.7,445.9l43.3,25v50l-43.3,25l-43.3-25v-50L221.7,445.9L221.7,445.9z M308.4,145.9l43.3,25v50l-43.3,25
			l-43.3-25v-50L308.4,145.9z M351.6,220.9l43.3,25v50l-43.3,25l-43.3-25v-50L351.6,220.9z M308.4,445.9l43.3,25v50l-43.3,25
			l-43.3-25v-50L308.4,445.9L308.4,445.9z M438.2,220.9l43.3,25v50l-43.3,25l-43.3-25v-50L438.2,220.9z M395,295.9l43.3,25v50
			l-43.3,25l-43.3-25v-50L395,295.9z M438.2,370.9l43.3,25v50l-43.3,25l-43.3-25v-50L438.2,370.9z M395,445.9l43.3,25v50l-43.3,25
			l-43.3-25v-50L395,445.9L395,445.9z M481.6,145.9l43.3,25v50l-43.3,25l-43.3-25v-50L481.6,145.9L481.6,145.9z M481.6,445.9
			l43.3,25v50l-43.3,25l-43.3-25v-50L481.6,445.9L481.6,445.9z M611.5,520.9l43.3,25v50l-43.3,25l-43.3-25v-50L611.5,520.9z
			 M698.1,220.9l43.3,25v50l-43.3,25l-43.3-25v-50L698.1,220.9z M654.8,295.9l43.3,25v50l-43.3,25l-43.3-25v-50L654.8,295.9z
			 M698.1,520.9l43.3,25v50l-43.3,25l-43.3-25v-50L698.1,520.9z M784.7,70.9l43.3,25v50l-43.3,25l-43.3-25v-50L784.7,70.9z
			 M741.4,145.9l43.3,25v50l-43.3,25l-43.3-25v-50L741.4,145.9z M784.7,220.9l43.3,25v50l-43.3,25l-43.3-25v-50L784.7,220.9z
			 M741.4,445.9l43.3,25v50l-43.3,25l-43.3-25v-50L741.4,445.9z M784.7,520.9l43.3,25v50l-43.3,25l-43.3-25v-50L784.7,520.9z
			 M828-4.1l43.3,25v50l-43.3,25l-43.3-25v-50C784.7,20.9,828-4.1,828-4.1z M828,145.9l43.3,25v50l-43.3,25l-43.3-25v-50L828,145.9z
			 M914.6-4.1l43.3,25v50l-43.3,25l-43.3-25v-50C871.3,20.9,914.6-4.1,914.6-4.1z M957.9,70.9l43.3,25v50l-43.3,25l-43.3-25v-50
			C914.6,95.9,957.9,70.9,957.9,70.9z M957.9,370.9l43.3,25v50l-43.3,25l-43.3-25v-50L957.9,370.9z M1001.2,145.9l43.3,25v50
			l-43.3,25l-43.3-25v-50L1001.2,145.9L1001.2,145.9z M1044.5,220.9l43.3,25v50l-43.3,25l-43.3-25v-50L1044.5,220.9z M1001.2,295.9
			l43.3,25v50l-43.3,25l-43.3-25v-50L1001.2,295.9z M1044.5,520.9l43.3,25v50l-43.3,25l-43.3-25v-50L1044.5,520.9z M1087.8,295.9
			l43.3,25v50l-43.3,25l-43.3-25v-50L1087.8,295.9z M1217.7,520.9l43.3,25v50l-43.3,25l-43.3-25v-50L1217.7,520.9z M1304.3,220.9
			l43.3,25v50l-43.3,25l-43.3-25v-50L1304.3,220.9z M1304.3,370.9l43.3,25v50l-43.3,25l-43.3-25v-50L1304.3,370.9z M1390.9,70.9
			l43.3,25v50l-43.3,25l-43.3-25v-50L1390.9,70.9z M1347.6,295.9l43.3,25v50l-43.3,25l-43.3-25v-50L1347.6,295.9z M1347.6,445.9
			l43.3,25v50l-43.3,25l-43.3-25v-50L1347.6,445.9z M1477.5,70.9l43.3,25v50l-43.3,25l-43.3-25v-50L1477.5,70.9z"/>
	</g>
</g>
<g id="Capa_2_00000067944805963702928140000017064575297702769042_" class="st0">
	<g class="st1">
		<path class="st3" d="M0.2,441.3c0-189.5,0.1-379-0.2-568.5c0-8.9,1.3-11.3,11-11.3c472.4,0.3,944.8,0.3,1417.3,0
			c10,0,11.8,2.2,11.8,11.9c-0.3,295.1-0.3,590.3,0,885.4c0,9.2-1.1,12.1-11.6,12.1c-472.4-0.4-944.8-0.3-1417.3-0.5
			c-3.5,0-8.4,3.1-10.9-2.6h1417.3c3.6,0,7.3-0.3,10.9,0.1c6.3,0.6,8.8-1.7,8.7-8.3c-0.4-32.6-0.4-65.3-0.6-97.9v-54.5
			c0-31.7,0.1-63.5,0.1-95.2c0.2-12.7,0.1-25.3,0.6-38c0.2-6.3-1.4-8.9-8.3-8.3c-39.2,3.6-78.4,6.8-117.7,10.2
			c-10.4-0.3-20.6-2.3-30.5-5.3c-26.6-8-53-17.9-81.1-5.1c-3,1.4-7.1,0.4-10.7,0.5c-32.7-15.6-67.1-26.9-100.5-40.7
			c-18.4-7.6-37.2-14.2-55.6-21.5c-5.1-2-9.3-1.3-14.1,0.9c-61.3,27.9-122.8,55.5-184.1,83.5c-7.6,3.5-15.1,5.5-23.5,5.7
			c-59.5,1.7-119,3.4-178.4,5.4c-11.9,0.4-23.4-0.8-35-3.4c-89.3-19.8-177.5-45-269.2-53.4c-58.1-5.3-115.4-18.9-174.6-12.3
			C102.7,435.7,51.4,437.7,0.2,441.3L0.2,441.3z"/>
		<path class="st4" d="M0.2,441.3c51.2-3.6,102.5-5.6,153.5-11.3c59.2-6.5,116.5,7,174.6,12.3c91.6,8.4,179.8,33.6,269.2,53.4
			c11.6,2.6,23.1,3.8,35,3.4c59.5-2,118.9-3.7,178.4-5.4c8.3-0.2,15.8-2.2,23.5-5.7c61.3-28,122.8-55.6,184.1-83.5
			c4.8-2.2,9.1-2.9,14.1-0.9c18.5,7.3,37.3,13.9,55.6,21.5c33.4,13.9,67.9,25.1,100.5,40.7c-3.2,1.5-6.3,3.5-9.7,4.4
			c-45.1,12.2-90.1,25.2-135.5,36c-47.3,11.2-95.2,20.3-142.8,30.1c-26.9,5.6-53.7,14.7-80.8,15.6c-67.9,2.3-135.9,1.6-203.9-2
			c-2.2-0.1-4.7-0.2-6.6-1.1c-57-26.3-116.3-47.4-173.5-73c-18.8-8.4-33.7-6-50.7,3.6c-31.5,17.7-64.2,33.1-95.8,50.4
			c-12.3,6.8-26.9,10.5-35.8,22.8c-3.6,0.5-7.1,1.1-10.7,1.3c-30.1,1.9-60.1,3.7-90.1-1.1c-2.8-3.9-7.3-5.3-11.4-6.9
			c-25.7-10.4-51.8-20.1-77.4-30.8c-21.1-8.9-42.2-17.8-63.9-24.9C0.2,474,0.2,457.7,0.2,441.3L0.2,441.3z"/>
		<path class="st5" d="M812.7,604.6c-13.6,5.9-28.3,3.1-42.4,5c-28.1,3.6-56.6,4.6-85,6c-58.5,2.8-114.9,16.8-171.4,30.9
			c-34.1,8.5-68.4,16.5-102.5,25.3c-10.7,2.7-20.6-1.9-30.9-1.6c-52.1,1.6-104.2-2.7-156.3-3.5c-44.1-0.7-88.1-6.4-132.1-9.9
			c-14.4-1.1-28.9-1.4-43.3-2.4c-16.2-1.1-32.3-3.8-48.6-3.4v-98c42.1,1.4,84.2-2.6,126.3,2.4c8.5,1,18,3,26.4-2.3
			c30,4.8,60.1,3,90.1,1.1c3.6-0.2,7.1-0.9,10.7-1.3c33.1,1.5,65.9-4.6,99-2.7c2.2,0.1,4.4-0.7,6.7-1c23-3.2,46.2-2.8,69.2-0.7
			c35.8,3.1,71.5,8.5,107.2,12.7c26.4,3.1,52.9,5.3,79.1,9.2c42.7,6.4,85.4,13.3,127.9,21C766.1,595.4,790.1,596.7,812.7,604.6
			L812.7,604.6z"/>
		<path class="st6" d="M152.9,553c-8.4,5.2-17.9,3.3-26.4,2.3c-42.1-5-84.2-1-126.3-2.4v-62.6c21.8,7.1,42.8,16,63.9,24.9
			c25.6,10.8,51.6,20.5,77.4,30.8C145.6,547.7,150.1,549.1,152.9,553L152.9,553z"/>
		<path class="st7" d="M812.7,604.6c-22.6-7.9-46.5-9.1-69.9-13.3c-42.5-7.7-85.2-14.6-127.9-21c-26.3-3.9-52.8-6.1-79.1-9.2
			c-35.7-4.3-71.4-9.6-107.2-12.7c-22.9-2-46.1-2.5-69.2,0.7c-2.2,0.3-4.5,1.1-6.7,1c-33.1-1.9-66,4.2-99,2.7
			c8.9-12.3,23.4-16,35.8-22.8c31.7-17.3,64.4-32.8,95.8-50.4c17-9.5,31.9-12,50.7-3.6c57.3,25.6,116.5,46.7,173.5,73
			c2,0.9,4.4,1,6.6,1.1c67.9,3.6,136,4.3,203.9,2c27.1-0.9,53.9-10,80.8-15.6c47.7-9.9,95.5-18.9,142.8-30.1
			c45.5-10.8,90.4-23.8,135.5-36c3.4-0.9,6.5-2.9,9.7-4.4c3.6-0.1,7.7,0.9,10.7-0.5c28-12.8,54.5-2.9,81.1,5.1c10,3,20.1,5,30.5,5.3
			c3.7,4.7,9.3,4.9,14.5,6.3c37,9.9,73.9,19.8,110.9,29.8c0,31.7-0.1,63.5-0.1,95.2c-3.5,0-6.9,0.1-10.4,0.1
			c-3.3-4.1-8.2-5.7-12.8-7.4c-49.2-18-98.4-36-146.9-55.7c-13.2-5.3-26.3-14.5-40.9-11.8c-46,8.3-92,17.5-137.8,27
			c-74.2,15.5-149.2,25.7-223.9,37.5c-6,1-15.2-1.8-18.6,7.4C834.4,604.5,823.5,604.5,812.7,604.6L812.7,604.6z"/>
		<path class="st8" d="M1436.6,512c-37-9.9-73.9-19.9-110.9-29.8c-5.1-1.4-10.8-1.6-14.5-6.3c39.2-3.4,78.5-6.6,117.7-10.2
			c6.9-0.6,8.5,2,8.3,8.3C1436.6,486.7,1436.7,499.3,1436.6,512z"/>
		<path class="st5" d="M845.3,604.4c3.4-9.2,12.6-6.5,18.6-7.4c74.8-11.8,149.7-22.1,223.9-37.5c45.8-9.5,91.7-18.7,137.8-27
			c14.5-2.6,27.7,6.5,40.9,11.8c48.5,19.7,97.7,37.6,146.9,55.7c4.6,1.7,9.5,3.3,12.8,7.4c-21.4,9.8-44.4,15-66.6,22.3
			c-39.5,13-79.5,24.8-119.1,37.4c-6.4,2-12,2.4-18.3,0c-58.7-22.5-117.6-44.5-176.1-67.4c-14.9-5.8-30-7.1-45.3-5.6
			c-27,2.7-54,4-81.1,5.2C894.8,600.5,870,602.7,845.3,604.4L845.3,604.4z"/>
	</g>
</g>
<g>
	<defs>
		<rect id="SVGID_1_" x="1.1" y="75" width="1439.2" height="556.4"/>
	</defs>
	<clipPath id="SVGID_00000177480615438821118900000018395396530442897319_">
		<use xlink:href="#SVGID_1_"  style="overflow:visible;"/>
	</clipPath>
	<g style="clip-path:url(#SVGID_00000177480615438821118900000018395396530442897319_);">
		<path class="st10" d="M-4.9,13.2c0-1,0-1.9,0-2.9C22.9-13.1,50.9-36.2,78.3-60c9.6-8.3,22.1-14,26.8-27.2
			c14.4-0.2,28.8-0.6,43.1-0.6c103.1,0.1,206.2,0.3,309.3,0.5c-0.6,7.6-0.9,15.3-1.7,22.9c-5.2,45.1-10.6,90.2-15.9,135.3
			c-6.8-1.2-12.3-5-18.2-8.2c-28.1-15.1-54.2-33.7-83.6-46.6c-0.7-2.8-0.9-5.8-2.2-8.2c-16.2-27.8-32.7-55.5-48.7-83.4
			c-6.1-10.6-11.1-8.3-18.8-1.3C235-46.5,200.6-17.2,167.5,13.5c-15.3,14.2-33,26-45.6,43.2c4.6,4.2,9,2.3,13,1.5
			C168.8,50.9,202.5,43,236.4,36c33.4-7,66.3-16.5,100.4-20.1c-0.2,1-0.4,1.9-0.6,2.9c-1.7,2.3-3.6,4.5-5,7
			c-44.7,84.3-89.3,168.6-134,252.9c-7-2.5-7.9-9.5-10-15c-15.7-41.3-30.7-82.9-46.7-124c-9.7-25-16.3-51.2-30.1-74.6
			C85.8,53.4,61.2,41.3,36.1,30.4C22.5,24.5,10.3,15.2-4.9,13.2L-4.9,13.2z"/>
		<path class="st11" d="M651,873.2H466c2.6-14.1,5.2-28.2,7.7-42.4c6.1-33.9,12.3-67.8,18.4-101.7c-1.9-24.6-11.3-47.3-17.7-70.8
			c-13.8-50.7-28.7-101.1-43.1-151.6c0-2,0-4,0.1-6c1-0.9,2-1.8,3-2.7c1.7,6.4,7.6,6.8,12.5,8.4c59.4,19.3,119,38.2,178.3,57.8
			c10,3.3,13.9,0.6,15.9-9.1c3.9-19.8,8.2-39.5,12.9-59.1c9-36.8,14.5-74.3,26-110.5c3.9,2.4,5.9,6.1,7.5,10.2
			c15,36.2,29.6,72.5,45.1,108.4c9.9,23.1,16.5,47.7,30.9,68.8c0.1,1,0.3,2,0.4,3c-1,0-1.9,0-2.9,0.1c-1.1,0-2.2,0-3.3,0
			c-15.3-0.5-30.6-0.3-46-2.2c-19.9-2.5-40.2-2.6-60.3-3.6c-7.2-0.4-13.6,0.6-14.7,9.8c-3.8,33.3-7.8,66.5-11.8,99.8
			c-5.8,4.2-11.6,8.2-18.7,10.6c-32.2,11.3-64,23.4-96.2,34.6c-9.5,3.3-12.3,6.3-3.7,14c27.5,24.7,55.2,49.1,82.1,74.5
			C609.4,833.3,632.9,850.4,651,873.2L651,873.2z"/>
		<path class="st12" d="M1217.3,873.2h-8.7c-0.8-4.5-3.5-7.5-6.9-10.4c-30.2-25.4-60.3-51-90.3-76.6c-3.8-3.3-7.8-5.4-12.8-5.2
			c-9.3-5.8-13-17.3-22.8-22.6c0.1-5.7-2.8-9.8-6.2-14c-29.7-36.9-58.7-74.3-88.9-110.8c-11.7-14.1-20.4-31.3-37.8-40.2
			c-1.2-1.8-2.3-3.7-3.5-5.5c0.2-1.1,0.3-2.1,0.5-3.2c2,0,4-0.1,6-0.1c10.6-0.6,21,2.2,31.5,2.7c63.7,2.9,127.3,7,190.8,12
			c-0.1,8.1-4.4,14.5-8.3,21.1c-23.2,39.8-46.3,79.6-69.3,119.5c-1.8,3.1-6.1,6.3-2.9,10.2c2.8,3.4,7.2,1.7,10.8,0.6
			c67.1-18.5,134.2-36.9,201.3-55.5c4.4-1.2,11.6-1,10-9.3c3.8-5.9-1.7-8.7-4.3-12.2c-21.4-28.8-42.8-57.6-64.4-86.3
			c-3.2-4.3-6.5-8.3-6.4-14c39.3-11.3,80-16.5,119.6-26.1c25.6-6.2,52.3-7.6,77-17.7c2.7,1,5.4,2.1,8.1,3.1c0,1,0,2.1,0.1,3.2
			c-2.4,2.4-5.1,4.5-7.1,7.1c-33.4,44-66.7,88-99.8,132.2c-4.5,6-11.6,10.7-11.2,19.5c-8.7-2.9-9.2,4.9-11.7,9.4
			c-19,33.9-38.4,67.7-56.5,102.1C1241,828.3,1226.2,849.2,1217.3,873.2L1217.3,873.2z"/>
		<path class="st13" d="M-4.9,13.2c15.2,2,27.4,11.3,41,17.2c25.1,10.9,49.7,23,74.5,34.7C73.1,138.2,35.5,211.3-2,284.5
			c-1,0-2,0-2.9-0.1V13.2z"/>
		<path class="st14" d="M-4.9,584.6v-5.8c1,0,2,0,3,0c48.5-8.5,96.1-21.2,144.2-31.6c-3.1,42.3-5.4,84.7-9.9,126.8
			c-1.5,13.5,1.9,27.9-5.2,40.8c-2.5-1.4-5.5-2.3-7.3-4.3c-26.4-27.7-52.6-55.6-79.1-83.2C26.3,612.2,14.1,594.8-4.9,584.6
			L-4.9,584.6z"/>
		<path class="st15" d="M-1.9,578.8c-1,0-2,0-3,0V373.9c6.9-0.4,13.2,2.2,19.6,4.2c31,10.1,62.1,20.3,93.1,30.4
			c1.8,0.1,3.6,0.2,5.3,0.3c0.1,0.8,0.2,1.6,0.3,2.4c-30.2,43-60.7,86-90.6,129.2C14.1,552.9,3.1,563.9-1.9,578.8L-1.9,578.8z"/>
		<path class="st3" d="M1439.8,873.2c-0.2-1-0.3-2-0.5-3.1c0-49,0-98,0-147c0-62.5,0-125,0-187.5c0-1,0-2.1-0.1-3.2
			c0.1-54.9,0.1-109.7,0.2-164.6c0-3.8,0-7.5-0.1-11.3c0-52.9,0-105.8-0.1-158.7c0-54.8,0-109.7,0-164.5
			c0.2-37.4,0.2-74.9,0.6-112.3c0.1-6.9-2.3-9-9.1-9c-49,0.4-98,0.4-147,0.6c-33.7,0-67.4,0-101.1,0c-0.9-0.4-1.9-0.4-2.8,0
			c-86.7,0-173.4,0-260.1-0.1c-52,0-104,0-156.1,0c-52,0-104.1,0-156.1,0c-50,0-100,0-150,0c-103.1-0.2-206.2-0.4-309.3-0.5
			c-14.4,0-28.8,0.4-43.1,0.6c-36.7-0.2-73.3-0.4-110-0.6c2.6-6,7.8-2.7,11.6-2.7c71.3-0.2,142.5-0.2,213.8-0.2
			c403.1,0,806.1,0.1,1209.2-0.3c10.8,0,13.3,2.4,13.3,13.3c-0.3,312.6-0.3,625.3-0.4,937.9C1442.5,864.4,1445.8,870,1439.8,873.2
			L1439.8,873.2z"/>
		<path class="st5" d="M107.8,408.5c-31-10.1-62.1-20.3-93.1-30.4C8.3,376,2,373.5-4.9,373.9v-89.5c1,0,2,0,2.9,0.1
			c1,1.9,1.9,3.9,2.9,5.9c0.8,5.7,4.9,9.1,8.6,12.8c29.9,30.8,59.8,61.7,89.7,92.5C102.9,399.4,107,402.9,107.8,408.5L107.8,408.5z"
			/>
		<path class="st16" d="M457.5-87.3c50,0,100,0,150,0c1.1,50.1-4.6,100.1-2.8,150.2c0.2,6.7-0.3,13.4,2.8,19.6
			c0,1.9,0.1,3.8,0.1,5.7c-5.4,0.8-7.9,4.8-10.4,9c-26.2,43.1-52.9,85.9-78.6,129.2c-7.7,13-18.9,24.6-20.8,40.6
			c-2.9,2.9-5.8,5.8-8.7,8.7c-0.7,0.1-1.4,0.2-2.1,0.2c-1.9-0.1-4.3,0.4-5.6-0.6c-4.3-3.1,1-2.9,1.8-4c2-2.8,1.1-5.5,0.4-8.2
			C467.8,201,454.7,138.2,437,76.6c10.1-5.3,21.6-1.2,32.1-5.9h-29.3c5.3-45.1,10.7-90.2,15.9-135.3C456.7-72,456.9-79.7,457.5-87.3
			L457.5-87.3z"/>
		<path class="st11" d="M0.9,290.4c-1-1.9-1.9-3.9-2.9-5.9C35.5,211.3,73.1,138.2,110.6,65c13.8,23.4,20.4,49.6,30.1,74.6
			c16,41.2,31,82.8,46.7,124c2.1,5.5,2.9,12.5,10,15c0.6,7.9,6.1,8.6,12.3,8.7c33.6,0.9,67.1,1.9,100.6,2.9
			c-6.1,26.8-17,52.1-26.5,77.8c-7.4,2.9-10.2-3.5-14.1-7.2c-26-24.5-49-52.3-78.2-73.5C127.9,285.4,64.5,291.4,0.9,290.4L0.9,290.4
			z"/>
		<path class="st17" d="M310.2,290.3c-33.5-1-67.1-2-100.6-2.9c-6.2-0.2-11.7-0.8-12.3-8.7c44.6-84.3,89.3-168.6,134-252.9
			c1.3-2.5,3.3-4.7,5-7c0.3,23.6-3.4,46.9-5.9,70.2c-6.7,60.5-9.1,121.5-19.7,181.6c-0.8,4.8-1,9.6,1.6,14
			C311.6,286.5,310.9,288.4,310.2,290.3L310.2,290.3z"/>
		<path class="st18" d="M312.2,284.6c-2.6-4.4-2.4-9.2-1.5-14c10.5-60.1,13-121.1,19.7-181.6c2.6-23.3,6.2-46.6,5.9-70.2
			c0.2-1,0.4-1.9,0.5-2.9l1.4,0.2c29.3,12.9,55.5,31.5,83.6,46.6c5.9,3.2,11.4,7,18.2,8.2c9.8,0,19.5,0,29.3,0
			c-10.5,4.7-22,0.5-32.1,5.9c-40.5,69.2-80.9,138.4-121.4,207.7L312.2,284.6L312.2,284.6z"/>
		<path class="st5" d="M359.2,766.4c-1.9,0-3.9,0-5.8,0l0,0c-6.9-20.9-13-42-20.8-62.6c-17.5-46-33.5-92.5-50.4-138.8
			c-6.5-17.8-10.5-36.9-21.5-53c0.1-1.8,0.2-3.6,0.3-5.4c1-1,2-2.1,2.9-3.1c1,0.1,2,0.3,3,0.4c5.2,3.4,11.1,2.6,16.8,2.5
			c30.6-0.8,61.2-2,91.8-2.8c18.7-0.4,37.4,0.7,55.9-3c0,2,0,4-0.1,6c-1,2.2-2.3,4.2-2.9,6.5C405.3,597.6,382.2,682,359.2,766.4
			L359.2,766.4L359.2,766.4z"/>
		<path class="st19" d="M680,385.5c-11.5,36.2-17.1,73.7-26,110.5c-4.8,19.6-9,39.3-12.9,59.1c-1.9,9.8-5.8,12.5-15.9,9.1
			c-59.3-19.5-118.9-38.5-178.3-57.8c-4.8-1.6-10.7-2-12.5-8.4c49.2-21.9,96.7-47.1,144.6-71.6c29.9-15.3,59.6-31.2,89.3-46.8
			c3.9-1.1,7.8-2.2,11.6-3.3C680,379.4,680,382.5,680,385.5L680,385.5z"/>
		<path class="st17" d="M668.4,379.7c-29.8,15.6-59.4,31.5-89.3,46.8c-47.9,24.5-95.4,49.7-144.6,71.6c-1,0.9-2,1.8-3,2.7
			c-18.5,3.6-37.2,2.5-55.9,3c-30.6,0.7-61.2,1.9-91.8,2.8c-5.7,0.2-11.6,1-16.8-2.5c29.5-18.6,59.3-36.8,88.5-55.8
			c21.5-14,44.8-25.5,64.5-42.5c0.7-0.2,1.4-0.3,2.1-0.4c11.9-1.1,23.9-2,35.7-3.5c65.6-8.2,131.2-16.5,196.8-24.8
			C659.4,376.5,664.2,376.6,668.4,379.7L668.4,379.7z"/>
		<path class="st15" d="M937,581.8c-4.7,3.3-10,2.6-15.3,2.4c-52.6-2.8-105.2-5.5-157.8-8.2c-0.1-1-0.3-2-0.4-3
			c7.9-66.3,15.8-132.6,23.7-198.9c0.8,0,1.6-0.1,2.5-0.1c49,68.4,98.1,136.9,147.2,205.3C936.8,580.1,936.9,580.9,937,581.8
			L937,581.8z"/>
		<path class="st16" d="M359.1,766.4c23.1-84.4,46.2-168.8,69.3-253.2c0.6-2.3,1.9-4.3,2.9-6.5c14.5,50.5,29.4,100.9,43.1,151.6
			c6.4,23.4,15.8,46.2,17.7,70.8C447.7,741.1,404.2,756.5,359.1,766.4L359.1,766.4z"/>
		<path class="st17" d="M787.2,374.1c-7.9,66.3-15.8,132.6-23.7,198.9c-14.4-21.1-20.9-45.7-30.9-68.8
			c-15.5-36-30.1-72.3-45.1-108.4c-1.7-4-3.7-7.8-7.5-10.2c0-3,0-6.1,0-9.1c0-0.7,0-1.3,0-2c1-0.1,2-0.3,3-0.5
			c34.5-1,69.1-2,103.6-3C786.7,372,787,373,787.2,374.1L787.2,374.1z"/>
		<path class="st5" d="M937,581.8c-0.1-0.9-0.2-1.7-0.2-2.6c3.5-4.3,2.1-8.9,1.3-13.7c-11.1-64.8-21.8-129.6-33.4-194.3
			c-2.7-15,2.8-14,13.1-9.9c35.3,14,70.6,27.9,106.1,41.5c28.7,11,56.5,24.2,86.5,31.6c0,1,0.1,2,0.1,2.9
			c-8.7,5.2-16,12.1-23.4,18.9c-23.7,21.6-48.3,42.1-71.7,64c-23,21.6-48.3,40.7-69.5,64.2c-2,0-4,0.1-6,0.1
			C938.9,583.6,937.9,582.7,937,581.8L937,581.8z"/>
		<path class="st14" d="M945.8,584.5c21.2-23.5,46.5-42.6,69.5-64.2c23.4-21.9,48-42.5,71.7-64c7.5-6.8,14.8-13.6,23.4-18.9
			c0.9,1.9,1.9,3.9,2.8,5.8c0.9,3.2,1.5,6.5,2.6,9.6c17.4,48.6,35,97.2,52.5,145.8l-0.2,0.5c-63.5-5-127.1-9.1-190.8-12
			C966.8,586.6,956.5,583.9,945.8,584.5L945.8,584.5z"/>
		<path class="st14" d="M1431.1,529.3c-24.7,10.1-51.4,11.5-77,17.7c-39.7,9.7-80.3,14.8-119.6,26.1c-0.9,0-1.9,0-2.8,0
			c15.5-48.2,31-96.4,46.4-144.6c2.7,1,5.7,1.6,8,3.1c44.8,28.7,89.6,57.5,134.2,86.5C1424.7,520.9,1429.5,523.8,1431.1,529.3z"/>
		<path class="st15" d="M1431.1,529.3c-1.6-5.6-6.5-8.4-10.7-11.2c-44.6-29-89.4-57.8-134.2-86.5c-2.4-1.5-5.3-2.1-8-3.1
			c0-0.9-0.1-1.7-0.1-2.6l3-2.5c30.6-8.2,59.3-21.8,89.2-31.9c23.1-7.8,44.7-19.7,69.2-23.6c-0.1,54.9-0.1,109.7-0.2,164.6
			C1436.5,531.4,1433.8,530.4,1431.1,529.3L1431.1,529.3z"/>
		<path class="st16" d="M1439.3,535.6c0,62.5,0,125,0,187.5c-33.8-8.5-67.6-17.1-101.5-25.4c-4.4-1.1-9.1-3.7-13.8-0.3
			c-1-1-1.9-2-2.9-3c-0.3-8.8,6.7-13.5,11.2-19.5c33.2-44.1,66.5-88.2,99.8-132.2C1434.2,540,1436.9,538,1439.3,535.6L1439.3,535.6z
			"/>
		<path class="st13" d="M260.7,512.1c11,16.1,15,35.1,21.5,53c16.8,46.2,32.9,92.8,50.4,138.8c7.8,20.5,13.9,41.7,20.8,62.6
			c-34.9-4.1-68.8-13.5-103.1-20.4c-33.9-6.8-67.7-14.2-101.5-21.5c-5.4-1.2-11.8-1.3-15-7.2c4.4-6.8,8.9-13.6,13.2-20.5
			C184.9,635.2,222.8,573.6,260.7,512.1L260.7,512.1z"/>
		<path class="st21" d="M260.7,512.1c-37.9,61.5-75.8,123.1-113.8,184.6c-4.3,6.9-8.8,13.7-13.2,20.5c-2,0.1-3.9,0.1-5.9,0.2
			c-0.2-0.9-0.4-1.8-0.6-2.7c7.1-12.8,3.7-27.2,5.2-40.8c4.5-42.1,6.8-84.5,9.9-126.8c0.5-8.3-2.7-15.9-4.3-23.8
			c-7.5-36.4-19.4-71.9-24.2-108.9c6.6-0.2,11.8,3.1,17.1,6.5c29.2,18.9,58.7,37.6,87.9,56.7c14.3,9.4,28.2,19.3,42.4,29
			C260.9,508.5,260.8,510.3,260.7,512.1L260.7,512.1z"/>
		<path class="st12" d="M113.7,414.5c4.8,37,16.8,72.4,24.2,108.9c1.6,7.9,4.8,15.5,4.3,23.8C94.1,557.6,46.5,570.4-2,578.8
			c5-14.9,16.1-25.9,24.7-38.4c29.9-43.3,60.4-86.2,90.6-129.2C113.5,412.3,113.6,413.4,113.7,414.5L113.7,414.5z"/>
		<path class="st10" d="M113.7,414.5c-0.1-1.1-0.2-2.2-0.3-3.3c-0.1-0.8-0.2-1.6-0.3-2.4c26.1-40.5,52.2-81,78.3-121.5
			c29.2,21.2,52.2,49,78.2,73.5c3.9,3.7,6.7,10.1,14.1,7.2c-1.4,9.9-2.8,19.8-4.3,29.6c-5.2,35.3-10.4,70.6-15.5,105.9
			c-1,1-2,2.1-2.9,3.1c-14.1-9.7-28-19.7-42.4-29c-29.2-19-58.6-37.7-87.9-56.7C125.5,417.6,120.3,414.2,113.7,414.5L113.7,414.5z"
			/>
		<path class="st14" d="M191.5,287.4c-26.1,40.5-52.2,81-78.3,121.5c-1.8-0.1-3.6-0.2-5.3-0.3c-0.8-5.6-4.9-9.1-8.5-12.9
			c-30.1-30.9-60-61.7-89.9-92.5c-3.7-3.8-7.8-7.2-8.6-12.8C64.5,291.4,127.9,285.4,191.5,287.4L191.5,287.4z"/>
		<path class="st12" d="M607.6,82.5c-3.2-6.2-2.6-13-2.8-19.6c-1.8-50.1,3.9-100.1,2.8-150.2c52,0,104.1,0,156.1,0
			c-0.7,11.7,3.5,22.7,6.1,33.7c7.5,31,9.9,63.2,22.8,92.9c-1.1,1-2.1,1.9-3.2,2.9c-2.9,0-5.8,0-8.6,0
			C723.1,55.5,665.4,69,607.6,82.5L607.6,82.5z"/>
		<path class="st22" d="M919.8-87.4c86.7,0,173.4,0,260.1,0.1c-0.2,33.5-5.3,66.7-7.8,100.1c-2.1,28.1-4.2,56.2-6.2,84.3
			c-0.3,0.9-0.6,1.8-0.8,2.6c-0.8,0-1.5,0-2.3-0.1c-1,0-2,0.1-2.9,0.1c-33.9-26.5-67.7-53.3-101.8-79.6
			C1012.2-15.3,966-50.3,919.9-85.4C919.8-86.1,919.8-86.8,919.8-87.4L919.8-87.4z"/>
		<path class="st5" d="M919.8-87.4c0,0.7,0,1.4,0,2c-2,15.1-4,30.3-5.8,45.4c-4.8,38.8-9.5,77.7-14.2,116.5
			c-35.9-11.8-72.6-21.2-107-37.3C779.9,9.6,777.5-22.7,770-53.7c-2.7-11.1-6.8-22-6.1-33.7C815.7-87.4,867.7-87.4,919.8-87.4
			L919.8-87.4z"/>
		<path class="st11" d="M1439.4,367.9c-24.4,3.9-46.1,15.8-69.2,23.6c-29.9,10.1-58.6,23.8-89.2,31.9c4.3-27.1,13.3-53,20.1-79.5
			c13.2-51.6,26.9-103.1,40.4-154.7c1,0,2,0.1,3,0.1c25.5,46.8,50.5,93.9,76.7,140.3c5.2,9.3,7.4,21.2,18.1,27
			C1439.3,360.3,1439.4,364.1,1439.4,367.9L1439.4,367.9z"/>
		<path class="st22" d="M1437.1,33.5c0.7,0,1.5-0.1,2.2-0.1c0,54.8,0,109.7,0,164.5c-31.6-2.8-63.2-5.7-94.7-8.5c-1,0-2-0.1-3-0.1
			l0,0c2.1-8.1,7.3-14.5,11.6-21.4C1381,122.9,1409,78.2,1437.1,33.5L1437.1,33.5z"/>
		<path class="st12" d="M1344.5,189.3c31.6,2.8,63.2,5.7,94.7,8.5c0,52.9,0,105.8,0.1,158.7c-10.7-5.8-12.9-17.7-18.1-27
			C1395.1,283.2,1370,236.1,1344.5,189.3L1344.5,189.3z"/>
		<path class="st12" d="M1165.8,97c2.1-28.1,4.1-56.2,6.2-84.3c2.5-33.3,7.6-66.5,7.8-100.1c0.9-0.4,1.9-0.4,2.8,0
			c17.1,30.7,31.5,62.9,52,91.8c-10.4,25.8-30.8,45-46,67.6C1182.3,81.2,1177.6,92.6,1165.8,97L1165.8,97z"/>
		<path class="st23" d="M682.9,374c-1,0.1-2,0.3-3,0.4c-34.4-18.3-68.4-37.3-103.2-54.7c-29.2-14.6-56.6-32.9-87.6-43.9
			c2.9-2.9,5.8-5.8,8.7-8.7c37.5-24.3,74.7-48.9,112.6-72.6c11.3-7.1,21.5-16.4,34.9-19.7c2.9,0.3,5.8,0.4,8.6,0.8
			c55.6,7.5,111.3,15,166.9,22.4c4.3,0.6,9.7,4,12.3-3c2.9,0.8,4.7,2.6,5.5,5.5c-0.1,2-0.2,4.1-0.3,6.1c-1.8,0-3.6-0.1-5.3-0.1
			c-5.4,0.6-7.7,5-10.9,8.6c-23,26.3-46.3,52.4-69.4,78.7C729.5,320.5,706.2,347.3,682.9,374L682.9,374z"/>
		<path class="st15" d="M422,405.3c-0.7,0.1-1.4,0.2-2.1,0.4c-32.9-34.5-65-69.8-96.1-106c-1.8-2.1-4.9-4.6-2.8-7.4
			c6-8.1-5.3-4.1-5.2-7.8c40.5-69.3,80.9-138.5,121.3-207.8c17.6,61.7,30.7,124.4,46.6,186.5c0.7,2.7,1.6,5.4-0.4,8.2
			c-0.8,1.1-6.1,0.9-1.8,4c1.3,0.9,3.7,0.4,5.6,0.6c-3.5,7.3-6.8,14.8-10.6,21.9C457.8,333.5,438.6,368.7,422,405.3L422,405.3z"/>
		<path class="st20" d="M422,405.3c16.5-36.6,35.8-71.8,54.4-107.4c3.8-7.2,7.1-14.6,10.6-21.9c0.7,0,1.4-0.1,2.1-0.2
			c31,11,58.4,29.3,87.6,43.9c34.8,17.4,68.8,36.4,103.2,54.7c0,0.7,0,1.3,0,2c-3.9,1.1-7.8,2.2-11.6,3.3c-4.2-3.1-9-3.2-13.8-2.6
			c-65.6,8.2-131.2,16.6-196.8,24.8C445.9,403.3,434,404.2,422,405.3L422,405.3z"/>
		<path class="st13" d="M645.4,174.8c-13.5,3.3-23.7,12.6-34.9,19.7c-37.8,23.7-75.1,48.3-112.6,72.6c2-16.1,13.1-27.6,20.8-40.6
			c25.7-43.4,52.4-86.2,78.6-129.2c2.6-4.2,5-8.2,10.4-9c2.6,4.5,5.6,8.8,7.7,13.5c10.1,22.5,20,45.1,29.9,67.7
			C645.3,171.2,645.3,173,645.4,174.8L645.4,174.8z"/>
		<path class="st15" d="M645.3,169.4c-10-22.6-19.8-45.2-29.9-67.7c-2.1-4.7-5.1-9-7.7-13.5c0-1.9-0.1-3.8-0.1-5.7
			C665.3,69,723.1,55.6,780.8,42c-1.1,1.6-1.9,3.4-3.2,4.7c-41.6,39.5-83.2,79-124.9,118.4C650.7,167.1,647.8,168,645.3,169.4
			L645.3,169.4z"/>
		<path class="st13" d="M315.8,284.4c0,3.7,11.2-0.3,5.2,7.8c-2.1,2.8,1,5.3,2.8,7.4c31.1,36.2,63.2,71.5,96.1,106
			c-19.6,17-42.9,28.4-64.4,42.5c-29.2,19-59,37.3-88.5,55.8c-1-0.1-2-0.3-3-0.4c5.2-35.3,10.4-70.6,15.5-105.9
			c1.5-9.9,2.9-19.8,4.3-29.6c9.5-25.7,20.4-50.9,26.5-77.8c0.7-1.9,1.3-3.8,2-5.7C313.4,284.5,314.6,284.5,315.8,284.4L315.8,284.4
			z"/>
		<path class="st11" d="M838.5,206.6c0.1-2,0.2-4.1,0.3-6.1c25,2,50.1,4,75.1,6c0.9,1,1.9,1.9,2.8,2.9c-0.9,4.2-2.2,8.3-2.6,12.5
			c-3.2,34.7-6.2,69.5-9.4,104.2c-0.7,7-5.9,16.6-0.3,20.3c6.3,4.2,13.6-4.1,20.2-7.5c50.3-25.9,100.5-52,150.7-78
			c2-0.9,4-1.8,6.1-2.6c1,1.9,2,3.7,3.1,5.6c8.6,56.8,17.3,113.7,25.9,170.5l0,0c-29.9-7.5-57.8-20.6-86.5-31.6
			c-35.4-13.6-70.8-27.6-106.1-41.5c-10.2-4-15.8-5.1-13.1,9.9c11.7,64.7,22.3,129.6,33.4,194.3c0.8,4.8,2.2,9.4-1.3,13.7
			c-49-68.4-98.1-136.9-147.2-205.3c0-1,0-2,0-3h-0.1c31.2-1.9,61.4-10.2,92.2-14.5c15.4-2.2,16.7-5.2,10.6-19.9
			C874.3,293.3,856.5,249.9,838.5,206.6L838.5,206.6z"/>
		<path class="st18" d="M789.7,371c0,1,0,2,0,3c-0.8,0-1.6,0.1-2.5,0.1c-0.2-1-0.4-2.1-0.6-3.1C787.6,371,788.6,371,789.7,371
			L789.7,371z"/>
		<path class="st20" d="M789.7,371c-1,0-2.1,0-3.2,0c-34.5,1-69.1,2-103.6,3c23.3-26.7,46.5-53.5,69.9-80.1
			c23.1-26.3,46.4-52.4,69.4-78.7c3.2-3.6,5.5-8,10.9-8.6c-7.7,28.1-15.7,56.1-22.8,84.3C803.6,317.6,793.4,343.5,789.7,371
			L789.7,371L789.7,371z"/>
		<path class="st12" d="M1231.7,573.1c-1.8,1-3.5,2-5.3,2.9c-0.8-4.5-3.9-7.5-6.7-10.9c-14-16.4-27.6-33-41.8-49.2
			c-21.4-24.4-43.1-48.6-64.7-72.9c-0.9-1.9-1.9-3.9-2.8-5.8c0-1-0.1-2-0.1-2.9l0,0c4.7-0.9,9.4-2.6,14.1-2.6
			c49.3,0.1,98.5-4.7,147.8-6c2,0,3.9,0,5.9,0.1c0,0.9,0.1,1.7,0.1,2.6C1262.6,476.7,1247.2,524.9,1231.7,573.1z"/>
		<path class="st15" d="M1113.3,443.1c21.6,24.3,43.3,48.4,64.7,72.9c14.2,16.2,27.8,32.8,41.8,49.2c2.8,3.3,5.8,6.4,6.7,10.9
			c-17.4,7.7-34.9,15.4-52.4,23.1c-1.9-0.2-3.8-0.4-5.7-0.5c-17.5-48.6-35-97.2-52.5-145.8C1114.8,449.6,1114.1,446.3,1113.3,443.1
			L1113.3,443.1z"/>
		<path class="st22" d="M1278,425.9c-2,0-3.9,0-5.9-0.1c-3.9-4.2-7.4-8.8-11.8-12.5c-39.5-34-78.8-68.3-118.8-101.7
			c-19-15.9-36.4-33.9-57.2-47.7c-1-1.9-2-3.7-3.1-5.6c0.1-0.9,0.3-1.8,0.5-2.7c4.7-0.8,9.5-1.1,14.1-2.4
			c47.2-12.8,94.2-26.1,141.4-38.4c33.8-8.8,66.8-20.6,101.5-25.9c0.9,0,1.7,0.1,2.6,0.1l0,0c-13.5,51.6-27.2,103-40.4,154.7
			c-6.8,26.5-15.8,52.4-20.1,79.5C1280,424.2,1279,425.1,1278,425.9L1278,425.9z"/>
		<path class="st20" d="M645.3,169.4c2.5-1.4,5.4-2.3,7.4-4.2c41.7-39.4,83.3-79,124.9-118.5c1.3-1.3,2.2-3.1,3.2-4.7
			c2.9,0,5.8,0,8.6,0c1.2,4.6,2.2,9.3,3.5,13.9c12.8,46.5,29.2,92,40.3,139c-2.7,6.9-8.1,3.5-12.3,3
			c-55.7-7.4-111.3-14.9-166.9-22.4c-2.8-0.4-5.7-0.5-8.6-0.8C645.3,172.9,645.3,171.2,645.3,169.4L645.3,169.4z"/>
		<path class="st19" d="M833.2,195c-11.2-47-27.5-92.5-40.3-139c-1.3-4.6-2.3-9.3-3.5-13.9c1.1-1,2.1-1.9,3.2-2.9
			c34.4,16.1,71.1,25.6,107,37.3l-0.2,0.2c4.8,43.3,9.6,86.6,14.4,129.9v-0.1c-25-2-50.1-4-75.1-6C838,197.6,836.1,195.8,833.2,195
			L833.2,195z"/>
		<path class="st19" d="M1341.5,189.2c-0.9-0.1-1.7-0.1-2.6-0.1c-12.7-11.6-29.3-16-44.2-23.5c-43.2-22-87.5-41.9-129.8-65.8
			c0.3-0.9,0.6-1.8,0.8-2.6c11.9-4.4,16.5-15.8,22.8-25c15.3-22.6,35.6-41.8,46-67.6c0.7-0.2,1.3-0.3,2-0.3c5.2,3.8,11.5,5,17.6,5.7
			c59.8,7,119.6,13.8,179.3,20.7c1.2,1,2.3,2,3.5,3c-28,44.8-56.1,89.5-84,134.3C1348.8,174.6,1343.6,181.1,1341.5,189.2
			L1341.5,189.2z"/>
		<path class="st13" d="M899.6,76.5c4.7-38.8,9.5-77.7,14.2-116.5c1.9-15.2,3.9-30.3,5.8-45.4c46.1,35.2,92.3,70.2,138.2,105.5
			c34.1,26.3,67.9,53,101.8,79.6c-1.1,0.2-2.3,0.4-3.4,0.6c-31.1-0.3-61.8-4.7-92.7-8.3c-54.5-6.5-109.4-10.3-164.2-15.3L899.6,76.5
			L899.6,76.5z"/>
		<path class="st20" d="M1164.9,99.7c42.2,23.9,86.5,43.8,129.8,65.8c14.9,7.6,31.5,11.9,44.2,23.5c-34.7,5.3-67.7,17.1-101.5,25.9
			c-47.3,12.3-94.3,25.6-141.4,38.4c-4.6,1.2-9.4,1.6-14.1,2.4c25.9-49.1,51.9-98.1,77.8-147.2c1-3,2.1-5.9,3.1-8.9
			C1163.4,99.6,1164.2,99.6,1164.9,99.7L1164.9,99.7z"/>
		<path class="st12" d="M1162.7,99.6c-1,3-2.1,5.9-3.1,8.8c-1.1-1-2.1-2.1-3.2-3.1c0-1.7-0.1-3.3-0.1-5c1.1-0.2,2.3-0.4,3.4-0.6
			C1160.7,99.7,1161.7,99.6,1162.7,99.6L1162.7,99.6z"/>
		<path class="st18" d="M789.6,371c3.8-27.6,14-53.5,20.8-80.2c7.1-28.2,15.2-56.2,22.8-84.3c1.8,0,3.6,0.1,5.3,0.1
			c17.9,43.3,35.8,86.7,53.8,130c6.1,14.7,4.8,17.8-10.6,19.9C851,360.8,820.8,369.1,789.6,371L789.6,371z"/>
		<path class="st19" d="M1156.4,105.3c1.1,1.1,2.1,2.1,3.2,3.1c-25.9,49.1-51.9,98.1-77.8,147.2c-0.2,0.9-0.4,1.8-0.5,2.7
			c-2,0.9-4,1.8-6.1,2.6c-2.4-4.2-6.6-5.3-10.8-6.6c-49.2-15-98.5-30-147.8-44.9c-0.9-1-1.9-1.9-2.8-2.9v0.1
			c8.9-3.5,17.9-6.8,26.7-10.5C1012.5,165.9,1084.5,135.6,1156.4,105.3L1156.4,105.3z"/>
		<path class="st5" d="M1084.4,263.9c20.8,13.9,38.2,31.8,57.2,47.7c40,33.5,79.3,67.7,118.8,101.7c4.3,3.7,7.8,8.3,11.8,12.5
			c-49.3,1.3-98.4,6.2-147.8,6c-4.7,0-9.4,1.7-14.1,2.6C1101.7,377.6,1093,320.8,1084.4,263.9L1084.4,263.9z"/>
		<path class="st13" d="M916.7,209.4c49.3,15,98.5,30,147.8,44.9c4.2,1.3,8.4,2.4,10.8,6.6c-50.2,26-100.4,52-150.7,78
			c-6.6,3.4-13.8,11.7-20.2,7.5c-5.7-3.7-0.4-13.3,0.3-20.3c3.2-34.7,6.2-69.5,9.4-104.2C914.5,217.7,915.8,213.6,916.7,209.4
			L916.7,209.4z"/>
		<path class="st20" d="M1156.4,105.3c-71.9,30.3-143.9,60.5-215.8,90.7c-8.8,3.7-17.8,7-26.7,10.5c-4.8-43.3-9.6-86.6-14.4-129.9
			c54.7,5,109.6,8.8,164.1,15.3c30.9,3.6,61.6,8,92.7,8.3C1156.3,102,1156.4,103.7,1156.4,105.3z"/>
	</g>
</g>
<rect x="23.8" y="52.7" class="st25" width="1405.6" height="504"/>
<text transform="matrix(1 0 0 1 23.8263 103.8357)" class="st26 st27">1</text>
<text transform="matrix(1 0 0 1 60.7263 103.8357)" class="st26 st27 st28"> </text>
<text transform="matrix(1 0 0 1 95.8263 103.8357)" class="st26 st27">2</text>
<text transform="matrix(1 0 0 1 132.7263 103.8357)" class="st26 st27 st28"> </text>
<text transform="matrix(1 0 0 1 167.8263 103.8357)" class="st26 st27">3</text>
<text transform="matrix(1 0 0 1 204.7263 103.8357)" class="st26 st27 st28"> </text>
<text transform="matrix(1 0 0 1 239.8263 103.8357)" class="st26 st27">4</text>
<text transform="matrix(1 0 0 1 276.7263 103.8357)" class="st26 st27 st28"> </text>
<text transform="matrix(1 0 0 1 311.8263 103.8357)" class="st26 st27">5</text>
<text transform="matrix(1 0 0 1 348.7263 103.8357)" class="st26 st27 st28"> </text>
<text transform="matrix(1 0 0 1 383.8263 103.8357)" class="st26 st27">6</text>
<text transform="matrix(1 0 0 1 420.7263 103.8357)" class="st26 st27 st28"> </text>
<text transform="matrix(1 0 0 1 455.8263 103.8357)" class="st26 st27">7</text>
<text transform="matrix(1 0 0 1 492.7263 103.8357)" class="st26 st27 st28"> </text>
<text transform="matrix(1 0 0 1 527.8263 103.8357)" class="st26 st27">8</text>
<text transform="matrix(1 0 0 1 564.7263 103.8357)" class="st26 st27 st28"> </text>
<text transform="matrix(1 0 0 1 599.8263 103.8357)" class="st26 st27">9 </text>
<text transform="matrix(1 0 0 1 652.0263 103.8357)" class="st26 st27 st29"> </text>
<text transform="matrix(1 0 0 1 671.8263 103.8357)" class="st26 st27">6</text>
<text transform="matrix(1 0 0 1 708.7263 103.8357)" class="st26 st27 st28"> </text>
<text transform="matrix(1 0 0 1 743.8263 103.8357)" class="st26 st27">6</text>
<text transform="matrix(1 0 0 1 780.7263 103.8357)" class="st26 st27 st28"> </text>
<text transform="matrix(1 0 0 1 815.8263 103.8357)" class="st26 st27">6</text>
<text transform="matrix(1 0 0 1 852.7263 103.8357)" class="st26 st27 st28"> </text>
<text transform="matrix(1 0 0 1 887.8263 103.8357)" class="st26 st27">6</text>
<text transform="matrix(1 0 0 1 924.7263 103.8357)" class="st26 st27 st28"> </text>
<text transform="matrix(1 0 0 1 959.8263 103.8357)" class="st26 st27">6</text>
<text transform="matrix(1 0 0 1 996.7263 103.8357)" class="st26 st27 st28"> </text>
<text transform="matrix(1 0 0 1 1031.8263 103.8357)" class="st26 st27">6</text>
<text transform="matrix(1 0 0 1 1068.7263 103.8357)" class="st26 st27 st28"> </text>
<text transform="matrix(1 0 0 1 1103.8263 103.8357)" class="st26 st27">6</text>
<text transform="matrix(1 0 0 1 1140.7263 103.8357)" class="st26 st27 st28"> </text>
<text transform="matrix(1 0 0 1 1175.8263 103.8357)" class="st26 st27">6</text>
<text transform="matrix(1 0 0 1 1212.7263 103.8357)" class="st26 st27 st28"> </text>
<text transform="matrix(1 0 0 1 1247.8263 103.8357)" class="st26 st27">6</text>
<text transform="matrix(1 0 0 1 1284.7263 103.8357)" class="st26 st27 st28"> </text>
<text transform="matrix(1 0 0 1 1319.8263 103.8357)" class="st26 st27">6</text>
<text transform="matrix(1 0 0 1 1356.7263 103.8357)" class="st26 st27 st28"> </text>
<text transform="matrix(1 0 0 1 1391.8263 103.8357)" class="st26 st27">6</text>
<text transform="matrix(1 0 0 1 1428.7263 103.8357)" class="st26 st27 st28"> </text>
<text transform="matrix(1 0 0 1 23.8263 190.2357)" class="st26 st27">6</text>
<text transform="matrix(1 0 0 1 60.7263 190.2357)" class="st26 st27 st28"> </text>
<text transform="matrix(1 0 0 1 95.8263 190.2357)" class="st26 st27">7</text>
<text transform="matrix(1 0 0 1 132.7263 190.2357)" class="st26 st27 st28"> </text>
<text transform="matrix(1 0 0 1 167.8263 190.2357)" class="st26 st27">7</text>
<text transform="matrix(1 0 0 1 204.7263 190.2357)" class="st26 st27 st28"> </text>
<text transform="matrix(1 0 0 1 239.8263 190.2357)" class="st26 st27">7</text>
<text transform="matrix(1 0 0 1 276.7263 190.2357)" class="st26 st27 st28"> </text>
<text transform="matrix(1 0 0 1 311.8263 190.2357)" class="st26 st27">7</text>
<text transform="matrix(1 0 0 1 348.7263 190.2357)" class="st26 st27 st28"> </text>
<text transform="matrix(1 0 0 1 383.8263 190.2357)" class="st26 st27">7</text>
<text transform="matrix(1 0 0 1 420.7263 190.2357)" class="st26 st27 st28"> </text>
<text transform="matrix(1 0 0 1 455.8263 190.2357)" class="st26 st27">7</text>
<text transform="matrix(1 0 0 1 492.7263 190.2357)" class="st26 st27 st28"> </text>
<text transform="matrix(1 0 0 1 527.8263 190.2357)" class="st26 st27">7</text>
<text transform="matrix(1 0 0 1 564.7263 190.2357)" class="st26 st27 st28"> </text>
<text transform="matrix(1 0 0 1 599.8263 190.2357)" class="st26 st27">7</text>
<text transform="matrix(1 0 0 1 636.7263 190.2357)" class="st26 st27 st28"> </text>
<text transform="matrix(1 0 0 1 671.8263 190.2357)" class="st26 st27">7</text>
<text transform="matrix(1 0 0 1 708.7263 190.2357)" class="st26 st27 st28"> </text>
<text transform="matrix(1 0 0 1 743.8263 190.2357)" class="st26 st27">7</text>
<text transform="matrix(1 0 0 1 780.7263 190.2357)" class="st26 st27 st28"> </text>
<text transform="matrix(1 0 0 1 815.8263 190.2357)" class="st26 st27">7</text>
<text transform="matrix(1 0 0 1 852.7263 190.2357)" class="st26 st27 st28"> </text>
<text transform="matrix(1 0 0 1 887.8263 190.2357)" class="st26 st27">7</text>
<text transform="matrix(1 0 0 1 924.7263 190.2357)" class="st26 st27 st28"> </text>
<text transform="matrix(1 0 0 1 959.8263 190.2357)" class="st26 st27">7</text>
<text transform="matrix(1 0 0 1 996.7263 190.2357)" class="st26 st27 st28"> </text>
<text transform="matrix(1 0 0 1 1031.8263 190.2357)" class="st26 st27">7</text>
<text transform="matrix(1 0 0 1 1068.7263 190.2357)" class="st26 st27 st28"> </text>
<text transform="matrix(1 0 0 1 1103.8263 190.2357)" class="st26 st27">7</text>
<text transform="matrix(1 0 0 1 1140.7263 190.2357)" class="st26 st27 st28"> </text>
<text transform="matrix(1 0 0 1 1175.8263 190.2357)" class="st26 st27">7</text>
<text transform="matrix(1 0 0 1 1212.7263 190.2357)" class="st26 st27 st28"> </text>
<text transform="matrix(1 0 0 1 1247.8263 190.2357)" class="st26 st27">7</text>
<text transform="matrix(1 0 0 1 1284.7263 190.2357)" class="st26 st27 st28"> </text>
<text transform="matrix(1 0 0 1 1319.8263 190.2357)" class="st26 st27">7</text>
<text transform="matrix(1 0 0 1 1356.7263 190.2357)" class="st26 st27 st28"> </text>
<text transform="matrix(1 0 0 1 1391.8263 190.2357)" class="st26 st27">8</text>
<text transform="matrix(1 0 0 1 1428.7263 190.2357)" class="st26 st27 st28"> </text>
<text transform="matrix(1 0 0 1 23.8263 276.6357)" class="st26 st27">8</text>
<text transform="matrix(1 0 0 1 60.7263 276.6357)" class="st26 st27 st28"> </text>
<text transform="matrix(1 0 0 1 95.8263 276.6357)" class="st26 st27">8</text>
<text transform="matrix(1 0 0 1 132.7263 276.6357)" class="st26 st27 st28"> </text>
<text transform="matrix(1 0 0 1 167.8263 276.6357)" class="st26 st27">8</text>
<text transform="matrix(1 0 0 1 204.7263 276.6357)" class="st26 st27 st28"> </text>
<text transform="matrix(1 0 0 1 239.8263 276.6357)" class="st26 st27">8</text>
<text transform="matrix(1 0 0 1 276.7263 276.6357)" class="st26 st27 st28"> </text>
<text transform="matrix(1 0 0 1 311.8263 276.6357)" class="st26 st27">8</text>
<text transform="matrix(1 0 0 1 348.7263 276.6357)" class="st26 st27 st28"> </text>
<text transform="matrix(1 0 0 1 383.8263 276.6357)" class="st26 st27">8</text>
<text transform="matrix(1 0 0 1 420.7263 276.6357)" class="st26 st27 st28"> </text>
<text transform="matrix(1 0 0 1 455.8263 276.6357)" class="st26 st27">8</text>
<text transform="matrix(1 0 0 1 492.7263 276.6357)" class="st26 st27 st28"> </text>
<text transform="matrix(1 0 0 1 527.8263 276.6357)" class="st26 st27">8</text>
<text transform="matrix(1 0 0 1 564.7263 276.6357)" class="st26 st27 st28"> </text>
<text transform="matrix(1 0 0 1 599.8263 276.6357)" class="st26 st27">8</text>
<text transform="matrix(1 0 0 1 636.7263 276.6357)" class="st26 st27 st28"> </text>
<text transform="matrix(1 0 0 1 671.8263 276.6357)" class="st26 st27">8</text>
<text transform="matrix(1 0 0 1 708.7263 276.6357)" class="st26 st27 st28"> </text>
<text transform="matrix(1 0 0 1 743.8263 276.6357)" class="st26 st27">8</text>
<text transform="matrix(1 0 0 1 780.7263 276.6357)" class="st26 st27 st28"> </text>
<text transform="matrix(1 0 0 1 815.8263 276.6357)" class="st26 st27">88</text>
<text transform="matrix(1 0 0 1 889.7263 276.6357)" class="st26 st27 st28"> </text>
<text transform="matrix(1 0 0 1 923.8263 276.6357)" class="st26 st27">8</text>
<text transform="matrix(1 0 0 1 960.7263 276.6357)" class="st26 st27 st28"> </text>
<text transform="matrix(1 0 0 1 995.8263 276.6357)" class="st26 st27">8</text>
<text transform="matrix(1 0 0 1 1032.7263 276.6357)" class="st26 st27 st28"> </text>
<text transform="matrix(1 0 0 1 1067.8263 276.6357)" class="st26 st27">8</text>
<text transform="matrix(1 0 0 1 1104.7263 276.6357)" class="st26 st27 st28"> </text>
<text transform="matrix(1 0 0 1 1139.8263 276.6357)" class="st26 st27">8</text>
<text transform="matrix(1 0 0 1 1176.7263 276.6357)" class="st26 st27 st28"> </text>
<text transform="matrix(1 0 0 1 1211.8263 276.6357)" class="st26 st27">8</text>
<text transform="matrix(1 0 0 1 1248.7263 276.6357)" class="st26 st27 st28"> </text>
<text transform="matrix(1 0 0 1 1283.8263 276.6357)" class="st26 st27">8</text>
<text transform="matrix(1 0 0 1 1320.7263 276.6357)" class="st26 st27 st28"> </text>
<text transform="matrix(1 0 0 1 1355.8263 276.6357)" class="st26 st27">9</text>
<text transform="matrix(1 0 0 1 1392.7263 276.6357)" class="st26 st27 st28"> </text>
<text transform="matrix(1 0 0 1 23.8263 363.0357)" class="st26 st27">9</text>
<text transform="matrix(1 0 0 1 60.7263 363.0357)" class="st26 st27 st28"> </text>
<text transform="matrix(1 0 0 1 95.8263 363.0357)" class="st26 st27">9</text>
<text transform="matrix(1 0 0 1 132.7263 363.0357)" class="st26 st27 st28"> </text>
<text transform="matrix(1 0 0 1 167.8263 363.0357)" class="st26 st27">9</text>
<text transform="matrix(1 0 0 1 204.7263 363.0357)" class="st26 st27 st28"> </text>
<text transform="matrix(1 0 0 1 239.8263 363.0357)" class="st26 st27">9</text>
<text transform="matrix(1 0 0 1 276.7263 363.0357)" class="st26 st27 st28"> </text>
<text transform="matrix(1 0 0 1 311.8263 363.0357)" class="st26 st27">9</text>
<text transform="matrix(1 0 0 1 348.7263 363.0357)" class="st26 st27 st28"> </text>
<text transform="matrix(1 0 0 1 383.8263 363.0357)" class="st26 st27">9</text>
<text transform="matrix(1 0 0 1 420.7263 363.0357)" class="st26 st27 st28"> </text>
<text transform="matrix(1 0 0 1 455.8263 363.0357)" class="st26 st27">9</text>
<text transform="matrix(1 0 0 1 492.7263 363.0357)" class="st26 st27 st28"> </text>
<text transform="matrix(1 0 0 1 527.8263 363.0357)" class="st26 st27">9</text>
<text transform="matrix(1 0 0 1 564.7263 363.0357)" class="st26 st27 st28"> </text>
<text transform="matrix(1 0 0 1 599.8263 363.0357)" class="st26 st27">9</text>
<text transform="matrix(1 0 0 1 636.7263 363.0357)" class="st26 st27 st28"> </text>
<text transform="matrix(1 0 0 1 671.8263 363.0357)" class="st26 st27">9</text>
<text transform="matrix(1 0 0 1 708.7263 363.0357)" class="st26 st27 st28"> </text>
<text transform="matrix(1 0 0 1 743.8263 363.0357)" class="st26 st27">9</text>
<text transform="matrix(1 0 0 1 780.7263 363.0357)" class="st26 st27 st28"> </text>
<text transform="matrix(1 0 0 1 815.8263 363.0357)" class="st26 st27">9</text>
<text transform="matrix(1 0 0 1 852.7263 363.0357)" class="st26 st27 st28"> </text>
<text transform="matrix(1 0 0 1 887.8263 363.0357)" class="st26 st27">9</text>
<text transform="matrix(1 0 0 1 924.7263 363.0357)" class="st26 st27 st28"> </text>
<text transform="matrix(1 0 0 1 959.8263 363.0357)" class="st26 st27">9</text>
<text transform="matrix(1 0 0 1 996.7263 363.0357)" class="st26 st27 st28"> </text>
<text transform="matrix(1 0 0 1 1031.8263 363.0357)" class="st26 st27">9</text>
<text transform="matrix(1 0 0 1 1068.7263 363.0357)" class="st26 st27 st28"> </text>
<text transform="matrix(1 0 0 1 1103.8263 363.0357)" class="st26 st27">9</text>
<text transform="matrix(1 0 0 1 1140.7263 363.0357)" class="st26 st27 st28"> </text>
<text transform="matrix(1 0 0 1 1175.8263 363.0357)" class="st26 st27">9</text>
<text transform="matrix(1 0 0 1 1212.7263 363.0357)" class="st26 st27 st28"> </text>
<text transform="matrix(1 0 0 1 1247.8263 363.0357)" class="st26 st27 st30"> </text>
<text transform="matrix(1 0 0 1 1283.8263 363.0357)" class="st26 st27">5</text>
<text transform="matrix(1 0 0 1 1320.7263 363.0357)" class="st26 st27 st28"> </text>
<text transform="matrix(1 0 0 1 1355.8263 363.0357)" class="st26 st27">5</text>
<text transform="matrix(1 0 0 1 1392.7263 363.0357)" class="st26 st27 st28"> </text>
<text transform="matrix(1 0 0 1 23.8263 449.4357)" class="st26 st27">5</text>
<text transform="matrix(1 0 0 1 60.7263 449.4357)" class="st26 st27 st28"> </text>
<text transform="matrix(1 0 0 1 95.8263 449.4357)" class="st26 st27">5</text>
<text transform="matrix(1 0 0 1 132.7263 449.4357)" class="st26 st27 st28"> </text>
<text transform="matrix(1 0 0 1 167.8263 449.4357)" class="st26 st27">5</text>
<text transform="matrix(1 0 0 1 204.7263 449.4357)" class="st26 st27 st28"> </text>
<text transform="matrix(1 0 0 1 239.8263 449.4357)" class="st26 st27">5</text>
<text transform="matrix(1 0 0 1 276.7263 449.4357)" class="st26 st27 st28"> </text>
<text transform="matrix(1 0 0 1 311.8263 449.4357)" class="st26 st27">5</text>
<text transform="matrix(1 0 0 1 348.7263 449.4357)" class="st26 st27 st28"> </text>
<text transform="matrix(1 0 0 1 383.8263 449.4357)" class="st26 st27">5</text>
<text transform="matrix(1 0 0 1 420.7263 449.4357)" class="st26 st27 st28"> </text>
<text transform="matrix(1 0 0 1 455.8263 449.4357)" class="st26 st27">5</text>
<text transform="matrix(1 0 0 1 492.7263 449.4357)" class="st26 st27 st28"> </text>
<text transform="matrix(1 0 0 1 527.8263 449.4357)" class="st26 st27">5</text>
<text transform="matrix(1 0 0 1 564.7263 449.4357)" class="st26 st27 st28"> </text>
<text transform="matrix(1 0 0 1 599.8263 449.4357)" class="st26 st27">5</text>
<text transform="matrix(1 0 0 1 636.7263 449.4357)" class="st26 st27 st28"> </text>
<text transform="matrix(1 0 0 1 671.8263 449.4357)" class="st26 st27">5</text>
<text transform="matrix(1 0 0 1 708.7263 449.4357)" class="st26 st27 st28"> </text>
<text transform="matrix(1 0 0 1 743.8263 449.4357)" class="st26 st27">5</text>
<text transform="matrix(1 0 0 1 780.7263 449.4357)" class="st26 st27 st28"> </text>
<text transform="matrix(1 0 0 1 815.8263 449.4357)" class="st26 st27">5</text>
<text transform="matrix(1 0 0 1 852.7263 449.4357)" class="st26 st27 st28"> </text>
<text transform="matrix(1 0 0 1 887.8263 449.4357)" class="st26 st27">5</text>
<text transform="matrix(1 0 0 1 924.7263 449.4357)" class="st26 st27 st28"> </text>
<text transform="matrix(1 0 0 1 959.8263 449.4357)" class="st26 st27">5</text>
<text transform="matrix(1 0 0 1 996.7263 449.4357)" class="st26 st27 st28"> </text>
<text transform="matrix(1 0 0 1 1031.8263 449.4357)" class="st26 st27">5</text>
<text transform="matrix(1 0 0 1 1068.7263 449.4357)" class="st26 st27 st28"> </text>
<text transform="matrix(1 0 0 1 1103.8263 449.4357)" class="st26 st27">5</text>
<text transform="matrix(1 0 0 1 1140.7263 449.4357)" class="st26 st27 st28"> </text>
<text transform="matrix(1 0 0 1 1175.8263 449.4357)" class="st26 st27">5</text>
<text transform="matrix(1 0 0 1 1212.7263 449.4357)" class="st26 st27 st28"> </text>
<text transform="matrix(1 0 0 1 1247.8263 449.4357)" class="st26 st27">5</text>
<text transform="matrix(1 0 0 1 1284.7263 449.4357)" class="st26 st27 st28"> </text>
<text transform="matrix(1 0 0 1 1319.8263 449.4357)" class="st26 st27">5</text>
<text transform="matrix(1 0 0 1 1356.7263 449.4357)" class="st26 st27 st28"> </text>
<text transform="matrix(1 0 0 1 1391.8263 449.4357)" class="st26 st27">5</text>
<text transform="matrix(1 0 0 1 1428.7263 449.4357)" class="st26 st27 st28"> </text>
<text transform="matrix(1 0 0 1 23.8263 535.8357)" class="st26 st27">4</text>
<text transform="matrix(1 0 0 1 60.7263 535.8357)" class="st26 st27 st28"> </text>
<text transform="matrix(1 0 0 1 95.8263 535.8357)" class="st26 st27">4</text>
<text transform="matrix(1 0 0 1 132.7263 535.8357)" class="st26 st27 st28"> </text>
<text transform="matrix(1 0 0 1 167.8263 535.8357)" class="st26 st27">4</text>
<text transform="matrix(1 0 0 1 204.7263 535.8357)" class="st26 st27 st28"> </text>
<text transform="matrix(1 0 0 1 239.8263 535.8357)" class="st26 st27">4</text>
<text transform="matrix(1 0 0 1 276.7263 535.8357)" class="st26 st27 st28"> </text>
<text transform="matrix(1 0 0 1 311.8263 535.8357)" class="st26 st27">4</text>
<text transform="matrix(1 0 0 1 348.7263 535.8357)" class="st26 st27 st28"> </text>
<text transform="matrix(1 0 0 1 383.8263 535.8357)" class="st26 st27">4</text>
<text transform="matrix(1 0 0 1 420.7263 535.8357)" class="st26 st27 st28"> </text>
<text transform="matrix(1 0 0 1 455.8263 535.8357)" class="st26 st27">4</text>
<text transform="matrix(1 0 0 1 492.7263 535.8357)" class="st26 st27 st28"> </text>
<text transform="matrix(1 0 0 1 527.8263 535.8357)" class="st26 st27">4</text>
<text transform="matrix(1 0 0 1 564.7263 535.8357)" class="st26 st27 st28"> </text>
<text transform="matrix(1 0 0 1 599.8263 535.8357)" class="st26 st27">4</text>
<text transform="matrix(1 0 0 1 636.7263 535.8357)" class="st26 st27 st28"> </text>
<text transform="matrix(1 0 0 1 671.8263 535.8357)" class="st26 st27">4</text>
<text transform="matrix(1 0 0 1 708.7263 535.8357)" class="st26 st27 st28"> </text>
<text transform="matrix(1 0 0 1 743.8263 535.8357)" class="st26 st27">4</text>
<text transform="matrix(1 0 0 1 780.7263 535.8357)" class="st26 st27 st28"> </text>
<text transform="matrix(1 0 0 1 815.8263 535.8357)" class="st26 st27">4</text>
<text transform="matrix(1 0 0 1 852.7263 535.8357)" class="st26 st27 st28"> </text>
<text transform="matrix(1 0 0 1 887.8263 535.8357)" class="st26 st27">4</text>
<text transform="matrix(1 0 0 1 924.7263 535.8357)" class="st26 st27 st28"> </text>
<text transform="matrix(1 0 0 1 959.8263 535.8357)" class="st26 st27">4</text>
<text transform="matrix(1 0 0 1 996.7263 535.8357)" class="st26 st27 st28"> </text>
<text transform="matrix(1 0 0 1 1031.8263 535.8357)" class="st26 st27">4</text>
<text transform="matrix(1 0 0 1 1068.7263 535.8357)" class="st26 st27 st28"> </text>
<text transform="matrix(1 0 0 1 1103.8263 535.8357)" class="st26 st27">4</text>
<text transform="matrix(1 0 0 1 1140.7263 535.8357)" class="st26 st27 st28"> </text>
<text transform="matrix(1 0 0 1 1175.8263 535.8357)" class="st26 st27">4</text>
<text transform="matrix(1 0 0 1 1212.7263 535.8357)" class="st26 st27 st28"> </text>
<text transform="matrix(1 0 0 1 1247.8263 535.8357)" class="st26 st27">4</text>
<text transform="matrix(1 0 0 1 1284.7263 535.8357)" class="st26 st27 st28"> </text>
<text transform="matrix(1 0 0 1 1319.8263 535.8357)" class="st26 st27">4</text>
<text transform="matrix(1 0 0 1 1356.7263 535.8357)" class="st26 st27 st28"> </text>
<text transform="matrix(1 0 0 1 1391.8263 535.8357)" class="st26 st27">4</text>
<text transform="matrix(1 0 0 1 1428.7263 535.8357)" class="st26 st27 st28"> </text>
</svg>
