?xml version="1.0" encoding="utf-8"?>
<!-- Generator: Adobe Illustrator 26.5.0, SVG Export Plug-In . SVG Version: 6.00 Build 0)  -->
<svg version="1.1" xmlns="http://www.w3.org/2000/svg" xmlns:xlink="http://www.w3.org/1999/xlink" x="0px" y="0px"
	 viewBox="0 0 1440 560" style="enable-background:new 0 0 1440 560;" xml:space="preserve">
<style type="text/css">
	.st0{fill:none;}
	.st1{fill:#FEFEFE;}
	.st2{fill:#36B2B9;}
	.st3{fill:#136E77;}
	.st4{fill:#2DA0A8;}
	.st5{fill:#248F97;}
	.st6{fill:#1B7E86;}
	.st7{fill:#1B7F87;}
	.st8{fill:#156F78;}
</style>
<g id="Capa_1" xmlns:svgjs="http://svgjs.dev/svgjs">
	<g>
		<rect class="st0" width="1440" height="560"/>
		<path class="st0" d="M35,162.8l64.9,37.5v75L35,312.8l-64.9-37.5v-75L35,162.8z M229.9,50.3l65,37.5v75l-65,37.5l-64.9-37.5v-75
			L229.9,50.3z M229.9,275.3l65,37.5v75l-65,37.5l-64.9-37.5v-75L229.9,275.3z M294.8-62.2l65,37.5v75l-65,37.5l-65-37.5v-75
			L294.8-62.2z M489.7,275.3l65,37.5v75l-65,37.5l-65-37.5v-75L489.7,275.3z M489.7,500.3l65,37.5v75l-65,37.5l-65-37.5v-75
			L489.7,500.3z M749.5,500.3l65,37.5v75l-65,37.5l-65-37.5v-75L749.5,500.3z M814.5,162.8l65,37.5v75l-65,37.5l-65-37.5v-75
			L814.5,162.8z M1139.2,275.3l65,37.5v75l-65,37.5l-64.9-37.5v-75L1139.2,275.3z M1204.2-62.2l64.9,37.5v75l-64.9,37.5l-65-37.5
			v-75L1204.2-62.2z M1269.1,275.3l64.9,37.5v75l-64.9,37.5l-64.9-37.5v-75L1269.1,275.3z M1204.2,387.8l64.9,37.5v75l-64.9,37.5
			l-65-37.5v-75L1204.2,387.8z M1399,50.3l64.9,37.5v75l-64.9,37.5l-65-37.5v-75L1399,50.3z M1528.9,50.3l65,37.5v75l-65,37.5
			l-65-37.5v-75L1528.9,50.3z M1528.9,275.3l65,37.5v75l-65,37.5l-65-37.5v-75L1528.9,275.3z M1528.9,500.3l65,37.5v75l-65,37.5
			l-65-37.5v-75L1528.9,500.3z"/>
		<path class="st0" d="M27.5,162.8c0,4.1,3.4,7.5,7.5,7.5s7.5-3.4,7.5-7.5s-3.4-7.5-7.5-7.5S27.5,158.7,27.5,162.8z M92.5,200.3
			c0,4.1,3.4,7.5,7.5,7.5s7.5-3.4,7.5-7.5s-3.4-7.5-7.5-7.5S92.5,196.2,92.5,200.3z M92.5,275.3c0,4.1,3.4,7.5,7.5,7.5
			s7.5-3.4,7.5-7.5s-3.4-7.5-7.5-7.5S92.5,271.2,92.5,275.3z M27.5,312.8c0,4.1,3.4,7.5,7.5,7.5s7.5-3.4,7.5-7.5s-3.4-7.5-7.5-7.5
			S27.5,308.7,27.5,312.8z M-37.4,275.3c0,4.1,3.4,7.5,7.5,7.5s7.5-3.4,7.5-7.5s-3.4-7.5-7.5-7.5S-37.4,271.2-37.4,275.3z
			 M-37.4,200.3c0,4.1,3.4,7.5,7.5,7.5s7.5-3.4,7.5-7.5s-3.4-7.5-7.5-7.5S-37.4,196.2-37.4,200.3z M222.4,50.3
			c0,4.1,3.4,7.5,7.5,7.5s7.5-3.4,7.5-7.5s-3.4-7.5-7.5-7.5S222.4,46.2,222.4,50.3z M287.3,87.8c0,4.1,3.4,7.5,7.5,7.5
			s7.5-3.4,7.5-7.5s-3.4-7.5-7.5-7.5S287.3,83.7,287.3,87.8z M287.3,162.8c0,4.1,3.4,7.5,7.5,7.5s7.5-3.4,7.5-7.5s-3.4-7.5-7.5-7.5
			S287.3,158.7,287.3,162.8z M222.4,200.3c0,4.1,3.4,7.5,7.5,7.5s7.5-3.4,7.5-7.5s-3.4-7.5-7.5-7.5S222.4,196.2,222.4,200.3z
			 M157.4,162.8c0,4.1,3.4,7.5,7.5,7.5s7.5-3.4,7.5-7.5s-3.4-7.5-7.5-7.5S157.4,158.7,157.4,162.8z M157.4,87.8
			c0,4.1,3.4,7.5,7.5,7.5s7.5-3.4,7.5-7.5s-3.4-7.5-7.5-7.5S157.4,83.7,157.4,87.8z M222.4,275.3c0,4.1,3.4,7.5,7.5,7.5
			s7.5-3.4,7.5-7.5s-3.4-7.5-7.5-7.5S222.4,271.2,222.4,275.3z M287.3,312.8c0,4.1,3.4,7.5,7.5,7.5s7.5-3.4,7.5-7.5
			s-3.4-7.5-7.5-7.5S287.3,308.7,287.3,312.8z M287.3,387.8c0,4.1,3.4,7.5,7.5,7.5s7.5-3.4,7.5-7.5s-3.4-7.5-7.5-7.5
			S287.3,383.7,287.3,387.8z M222.4,425.3c0,4.1,3.4,7.5,7.5,7.5s7.5-3.4,7.5-7.5s-3.4-7.5-7.5-7.5S222.4,421.2,222.4,425.3z
			 M157.4,387.8c0,4.1,3.4,7.5,7.5,7.5s7.5-3.4,7.5-7.5s-3.4-7.5-7.5-7.5S157.4,383.7,157.4,387.8z M157.4,312.8
			c0,4.1,3.4,7.5,7.5,7.5s7.5-3.4,7.5-7.5s-3.4-7.5-7.5-7.5S157.4,308.7,157.4,312.8z M287.3-62.2c0,4.1,3.4,7.5,7.5,7.5
			s7.5-3.4,7.5-7.5s-3.4-7.5-7.5-7.5S287.3-66.3,287.3-62.2z M352.3-24.7c0,4.1,3.4,7.5,7.5,7.5s7.5-3.4,7.5-7.5s-3.4-7.5-7.5-7.5
			S352.3-28.8,352.3-24.7z M352.3,50.3c0,4.1,3.4,7.5,7.5,7.5s7.5-3.4,7.5-7.5s-3.4-7.5-7.5-7.5S352.3,46.2,352.3,50.3z M222.4-24.7
			c0,4.1,3.4,7.5,7.5,7.5s7.5-3.4,7.5-7.5s-3.4-7.5-7.5-7.5S222.4-28.8,222.4-24.7z M482.2,275.3c0,4.1,3.4,7.5,7.5,7.5
			s7.5-3.4,7.5-7.5s-3.4-7.5-7.5-7.5S482.2,271.2,482.2,275.3z M547.1,312.8c0,4.1,3.4,7.5,7.5,7.5s7.5-3.4,7.5-7.5
			s-3.4-7.5-7.5-7.5S547.1,308.7,547.1,312.8z M547.1,387.8c0,4.1,3.4,7.5,7.5,7.5s7.5-3.4,7.5-7.5s-3.4-7.5-7.5-7.5
			S547.1,383.7,547.1,387.8z M482.2,425.3c0,4.1,3.4,7.5,7.5,7.5s7.5-3.4,7.5-7.5s-3.4-7.5-7.5-7.5S482.2,421.2,482.2,425.3z
			 M417.2,387.8c0,4.1,3.4,7.5,7.5,7.5s7.5-3.4,7.5-7.5s-3.4-7.5-7.5-7.5S417.2,383.7,417.2,387.8z M417.2,312.8
			c0,4.1,3.4,7.5,7.5,7.5s7.5-3.4,7.5-7.5s-3.4-7.5-7.5-7.5S417.2,308.7,417.2,312.8z M482.2,500.3c0,4.1,3.4,7.5,7.5,7.5
			c4.1,0,7.5-3.4,7.5-7.5l0,0c0-4.1-3.4-7.5-7.5-7.5C485.5,492.8,482.2,496.2,482.2,500.3L482.2,500.3z M547.1,537.8
			c0,4.1,3.4,7.5,7.5,7.5s7.5-3.4,7.5-7.5s-3.4-7.5-7.5-7.5S547.1,533.7,547.1,537.8z M547.1,612.8c0,4.1,3.4,7.5,7.5,7.5
			s7.5-3.4,7.5-7.5s-3.4-7.5-7.5-7.5S547.1,608.7,547.1,612.8z M482.2,650.3c0,4.1,3.4,7.5,7.5,7.5c4.1,0,7.5-3.4,7.5-7.5l0,0
			c0-4.1-3.4-7.5-7.5-7.5C485.5,642.8,482.2,646.2,482.2,650.3L482.2,650.3z M417.2,612.8c0,4.1,3.4,7.5,7.5,7.5s7.5-3.4,7.5-7.5
			s-3.4-7.5-7.5-7.5S417.2,608.7,417.2,612.8z M417.2,537.8c0,4.1,3.4,7.5,7.5,7.5s7.5-3.4,7.5-7.5s-3.4-7.5-7.5-7.5
			S417.2,533.7,417.2,537.8z M742,500.3c0,4.1,3.4,7.5,7.5,7.5s7.5-3.4,7.5-7.5l0,0c0-4.1-3.4-7.5-7.5-7.5S742,496.2,742,500.3
			L742,500.3z M807,537.8c0,4.1,3.4,7.5,7.5,7.5s7.5-3.4,7.5-7.5s-3.4-7.5-7.5-7.5S807,533.7,807,537.8z M807,612.8
			c0,4.1,3.4,7.5,7.5,7.5s7.5-3.4,7.5-7.5s-3.4-7.5-7.5-7.5S807,608.7,807,612.8z M742,650.3c0,4.1,3.4,7.5,7.5,7.5s7.5-3.4,7.5-7.5
			l0,0c0-4.1-3.4-7.5-7.5-7.5S742,646.2,742,650.3L742,650.3z M677,612.8c0,4.1,3.4,7.5,7.5,7.5s7.5-3.4,7.5-7.5s-3.4-7.5-7.5-7.5
			S677,608.7,677,612.8z M677,537.8c0,4.1,3.4,7.5,7.5,7.5s7.5-3.4,7.5-7.5s-3.4-7.5-7.5-7.5S677,533.7,677,537.8z M807,162.8
			c0,4.1,3.4,7.5,7.5,7.5s7.5-3.4,7.5-7.5s-3.4-7.5-7.5-7.5S807,158.7,807,162.8z M871.9,200.3c0,4.1,3.4,7.5,7.5,7.5
			s7.5-3.4,7.5-7.5s-3.4-7.5-7.5-7.5S871.9,196.2,871.9,200.3z M871.9,275.3c0,4.1,3.4,7.5,7.5,7.5s7.5-3.4,7.5-7.5
			s-3.4-7.5-7.5-7.5S871.9,271.2,871.9,275.3z M807,312.8c0,4.1,3.4,7.5,7.5,7.5s7.5-3.4,7.5-7.5s-3.4-7.5-7.5-7.5
			S807,308.7,807,312.8z M742,275.3c0,4.1,3.4,7.5,7.5,7.5s7.5-3.4,7.5-7.5s-3.4-7.5-7.5-7.5S742,271.2,742,275.3z M742,200.3
			c0,4.1,3.4,7.5,7.5,7.5s7.5-3.4,7.5-7.5s-3.4-7.5-7.5-7.5S742,196.2,742,200.3z M1131.7,275.3c0,4.1,3.4,7.5,7.5,7.5
			s7.5-3.4,7.5-7.5s-3.4-7.5-7.5-7.5S1131.7,271.2,1131.7,275.3z M1196.7,312.8c0,4.1,3.4,7.5,7.5,7.5s7.5-3.4,7.5-7.5
			s-3.4-7.5-7.5-7.5S1196.7,308.7,1196.7,312.8z M1196.7,387.8c0,4.1,3.4,7.5,7.5,7.5s7.5-3.4,7.5-7.5s-3.4-7.5-7.5-7.5
			S1196.7,383.7,1196.7,387.8z M1131.7,425.3c0,4.1,3.4,7.5,7.5,7.5s7.5-3.4,7.5-7.5s-3.4-7.5-7.5-7.5S1131.7,421.2,1131.7,425.3z
			 M1066.8,387.8c0,4.1,3.4,7.5,7.5,7.5s7.5-3.4,7.5-7.5s-3.4-7.5-7.5-7.5S1066.8,383.7,1066.8,387.8z M1066.8,312.8
			c0,4.1,3.4,7.5,7.5,7.5s7.5-3.4,7.5-7.5s-3.4-7.5-7.5-7.5S1066.8,308.7,1066.8,312.8z M1196.7-62.2c0,4.1,3.4,7.5,7.5,7.5
			s7.5-3.4,7.5-7.5s-3.4-7.5-7.5-7.5S1196.7-66.3,1196.7-62.2z M1261.6-24.7c0,4.1,3.4,7.5,7.5,7.5s7.5-3.4,7.5-7.5
			s-3.4-7.5-7.5-7.5S1261.6-28.8,1261.6-24.7z M1261.6,50.3c0,4.1,3.4,7.5,7.5,7.5s7.5-3.4,7.5-7.5s-3.4-7.5-7.5-7.5
			S1261.6,46.2,1261.6,50.3z M1196.7,87.8c0,4.1,3.4,7.5,7.5,7.5s7.5-3.4,7.5-7.5s-3.4-7.5-7.5-7.5S1196.7,83.7,1196.7,87.8z
			 M1131.7,50.3c0,4.1,3.4,7.5,7.5,7.5s7.5-3.4,7.5-7.5s-3.4-7.5-7.5-7.5S1131.7,46.2,1131.7,50.3z M1131.7-24.7
			c0,4.1,3.4,7.5,7.5,7.5s7.5-3.4,7.5-7.5s-3.4-7.5-7.5-7.5S1131.7-28.8,1131.7-24.7z M1261.6,275.3c0,4.1,3.4,7.5,7.5,7.5
			s7.5-3.4,7.5-7.5s-3.4-7.5-7.5-7.5S1261.6,271.2,1261.6,275.3z M1326.6,312.8c0,4.1,3.4,7.5,7.5,7.5s7.5-3.4,7.5-7.5
			s-3.4-7.5-7.5-7.5S1326.6,308.7,1326.6,312.8z M1326.6,387.8c0,4.1,3.4,7.5,7.5,7.5s7.5-3.4,7.5-7.5s-3.4-7.5-7.5-7.5
			S1326.6,383.7,1326.6,387.8z M1261.6,425.3c0,4.1,3.4,7.5,7.5,7.5s7.5-3.4,7.5-7.5s-3.4-7.5-7.5-7.5S1261.6,421.2,1261.6,425.3z
			 M1261.6,500.3c0,4.1,3.4,7.5,7.5,7.5s7.5-3.4,7.5-7.5l0,0c0-4.1-3.4-7.5-7.5-7.5S1261.6,496.2,1261.6,500.3L1261.6,500.3z
			 M1196.7,537.8c0,4.1,3.4,7.5,7.5,7.5s7.5-3.4,7.5-7.5s-3.4-7.5-7.5-7.5S1196.7,533.7,1196.7,537.8z M1131.7,500.3
			c0,4.1,3.4,7.5,7.5,7.5s7.5-3.4,7.5-7.5l0,0c0-4.1-3.4-7.5-7.5-7.5S1131.7,496.2,1131.7,500.3L1131.7,500.3z M1391.5,50.3
			c0,4.1,3.4,7.5,7.5,7.5s7.5-3.4,7.5-7.5s-3.4-7.5-7.5-7.5S1391.5,46.2,1391.5,50.3z M1456.5,87.8c0,4.1,3.4,7.5,7.5,7.5
			s7.5-3.4,7.5-7.5s-3.4-7.5-7.5-7.5S1456.5,83.7,1456.5,87.8z M1456.5,162.8c0,4.1,3.4,7.5,7.5,7.5s7.5-3.4,7.5-7.5
			s-3.4-7.5-7.5-7.5S1456.5,158.7,1456.5,162.8z M1391.5,200.3c0,4.1,3.4,7.5,7.5,7.5s7.5-3.4,7.5-7.5s-3.4-7.5-7.5-7.5
			S1391.5,196.2,1391.5,200.3z M1326.6,162.8c0,4.1,3.4,7.5,7.5,7.5s7.5-3.4,7.5-7.5s-3.4-7.5-7.5-7.5S1326.6,158.7,1326.6,162.8z
			 M1326.6,87.8c0,4.1,3.4,7.5,7.5,7.5s7.5-3.4,7.5-7.5s-3.4-7.5-7.5-7.5S1326.6,83.7,1326.6,87.8z M1521.4,50.3
			c0,4.1,3.4,7.5,7.5,7.5s7.5-3.4,7.5-7.5s-3.4-7.5-7.5-7.5S1521.4,46.2,1521.4,50.3z M1586.4,87.8c0,4.1,3.4,7.5,7.5,7.5
			s7.5-3.4,7.5-7.5s-3.4-7.5-7.5-7.5S1586.4,83.7,1586.4,87.8z M1586.4,162.8c0,4.1,3.4,7.5,7.5,7.5s7.5-3.4,7.5-7.5
			s-3.4-7.5-7.5-7.5S1586.4,158.7,1586.4,162.8z M1521.4,200.3c0,4.1,3.4,7.5,7.5,7.5s7.5-3.4,7.5-7.5s-3.4-7.5-7.5-7.5
			S1521.4,196.2,1521.4,200.3z M1521.4,275.3c0,4.1,3.4,7.5,7.5,7.5s7.5-3.4,7.5-7.5s-3.4-7.5-7.5-7.5S1521.4,271.2,1521.4,275.3z
			 M1586.4,312.8c0,4.1,3.4,7.5,7.5,7.5s7.5-3.4,7.5-7.5s-3.4-7.5-7.5-7.5S1586.4,308.7,1586.4,312.8z M1586.4,387.8
			c0,4.1,3.4,7.5,7.5,7.5s7.5-3.4,7.5-7.5s-3.4-7.5-7.5-7.5S1586.4,383.7,1586.4,387.8z M1521.4,425.3c0,4.1,3.4,7.5,7.5,7.5
			s7.5-3.4,7.5-7.5s-3.4-7.5-7.5-7.5S1521.4,421.2,1521.4,425.3z M1456.5,387.8c0,4.1,3.4,7.5,7.5,7.5s7.5-3.4,7.5-7.5
			s-3.4-7.5-7.5-7.5S1456.5,383.7,1456.5,387.8z M1456.5,312.8c0,4.1,3.4,7.5,7.5,7.5s7.5-3.4,7.5-7.5s-3.4-7.5-7.5-7.5
			S1456.5,308.7,1456.5,312.8z M1521.4,500.3c0,4.1,3.4,7.5,7.5,7.5s7.5-3.4,7.5-7.5l0,0c0-4.1-3.4-7.5-7.5-7.5
			S1521.4,496.2,1521.4,500.3L1521.4,500.3z M1586.4,537.8c0,4.1,3.4,7.5,7.5,7.5s7.5-3.4,7.5-7.5s-3.4-7.5-7.5-7.5
			S1586.4,533.7,1586.4,537.8z M1586.4,612.8c0,4.1,3.4,7.5,7.5,7.5s7.5-3.4,7.5-7.5s-3.4-7.5-7.5-7.5S1586.4,608.7,1586.4,612.8z
			 M1521.4,650.3c0,4.1,3.4,7.5,7.5,7.5s7.5-3.4,7.5-7.5l0,0c0-4.1-3.4-7.5-7.5-7.5S1521.4,646.2,1521.4,650.3L1521.4,650.3z
			 M1456.5,612.8c0,4.1,3.4,7.5,7.5,7.5s7.5-3.4,7.5-7.5s-3.4-7.5-7.5-7.5S1456.5,608.7,1456.5,612.8z M1456.5,537.8
			c0,4.1,3.4,7.5,7.5,7.5s7.5-3.4,7.5-7.5s-3.4-7.5-7.5-7.5S1456.5,533.7,1456.5,537.8z"/>
		<path class="st0" d="M91.8,370.9l43.3,25v50l-43.3,25l-43.3-25v-50L91.8,370.9z M91.8,520.9l43.3,25v50l-43.3,25l-43.3-25v-50
			L91.8,520.9z M178.4,220.9l43.3,25v50l-43.3,25l-43.3-25v-50L178.4,220.9z M221.7-4.1l43.3,25v50l-43.3,25l-43.3-25v-50L221.7-4.1
			z M265,70.9l43.3,25v50l-43.3,25l-43.3-25v-50L265,70.9z M221.7,145.9l43.3,25v50l-43.3,25l-43.3-25v-50L221.7,145.9z
			 M221.7,445.9l43.3,25v50l-43.3,25l-43.3-25v-50L221.7,445.9z M308.4,145.9l43.3,25v50l-43.3,25l-43.3-25v-50L308.4,145.9z
			 M351.6,220.9l43.3,25v50l-43.3,25l-43.3-25v-50L351.6,220.9z M308.4,445.9l43.3,25v50l-43.3,25l-43.3-25v-50L308.4,445.9z
			 M438.2,220.9l43.3,25v50l-43.3,25l-43.3-25v-50L438.2,220.9z M395,295.9l43.3,25v50l-43.3,25l-43.3-25v-50L395,295.9z
			 M438.2,370.9l43.3,25v50l-43.3,25l-43.3-25v-50L438.2,370.9z M395,445.9l43.3,25v50l-43.3,25l-43.3-25v-50L395,445.9z
			 M481.6,145.9l43.3,25v50l-43.3,25l-43.3-25v-50L481.6,145.9z M481.6,445.9l43.3,25v50l-43.3,25l-43.3-25v-50L481.6,445.9z
			 M611.5,520.9l43.3,25v50l-43.3,25l-43.3-25v-50L611.5,520.9z M698.1,220.9l43.3,25v50l-43.3,25l-43.3-25v-50L698.1,220.9z
			 M654.8,295.9l43.3,25v50l-43.3,25l-43.3-25v-50L654.8,295.9z M698.1,520.9l43.3,25v50l-43.3,25l-43.3-25v-50L698.1,520.9z
			 M784.7,70.9l43.3,25v50l-43.3,25l-43.3-25v-50L784.7,70.9z M741.4,145.9l43.3,25v50l-43.3,25l-43.3-25v-50L741.4,145.9z
			 M784.7,220.9l43.3,25v50l-43.3,25l-43.3-25v-50L784.7,220.9z M741.4,445.9l43.3,25v50l-43.3,25l-43.3-25v-50L741.4,445.9z
			 M784.7,520.9l43.3,25v50l-43.3,25l-43.3-25v-50L784.7,520.9z M828-4.1l43.3,25v50l-43.3,25l-43.3-25v-50L828-4.1z M828,145.9
			l43.3,25v50l-43.3,25l-43.3-25v-50L828,145.9z M914.6-4.1l43.3,25v50l-43.3,25l-43.3-25v-50L914.6-4.1z M957.9,70.9l43.3,25v50
			l-43.3,25l-43.3-25v-50L957.9,70.9z M957.9,370.9l43.3,25v50l-43.3,25l-43.3-25v-50L957.9,370.9z M1001.2,145.9l43.3,25v50
			l-43.3,25l-43.3-25v-50L1001.2,145.9z M1044.5,220.9l43.3,25v50l-43.3,25l-43.3-25v-50L1044.5,220.9z M1001.2,295.9l43.3,25v50
			l-43.3,25l-43.3-25v-50L1001.2,295.9z M1044.5,520.9l43.3,25v50l-43.3,25l-43.3-25v-50L1044.5,520.9z M1087.8,295.9l43.3,25v50
			l-43.3,25l-43.3-25v-50L1087.8,295.9z M1217.7,520.9l43.3,25v50l-43.3,25l-43.3-25v-50L1217.7,520.9z M1304.3,220.9l43.3,25v50
			l-43.3,25l-43.3-25v-50L1304.3,220.9z M1304.3,370.9l43.3,25v50l-43.3,25l-43.3-25v-50L1304.3,370.9z M1390.9,70.9l43.3,25v50
			l-43.3,25l-43.3-25v-50L1390.9,70.9z M1347.6,295.9l43.3,25v50l-43.3,25l-43.3-25v-50L1347.6,295.9z M1347.6,445.9l43.3,25v50
			l-43.3,25l-43.3-25v-50L1347.6,445.9z M1477.5,70.9l43.3,25v50l-43.3,25l-43.3-25v-50L1477.5,70.9z"/>
	</g>
</g>
<g id="Capa_2">
	<g>
		<g>
			<path class="st1" d="M0.2,441.3c0-189.5,0.1-379-0.2-568.5c0-8.9,1.3-11.3,11-11.3c472.4,0.3,944.8,0.3,1417.3,0
				c10,0,11.8,2.2,11.8,11.9c-0.3,295.1-0.3,590.3,0,885.4c0,9.2-1.1,12.1-11.6,12.1c-472.4-0.4-944.8-0.3-1417.3-0.5
				c-3.5,0-8.4,3.1-10.9-2.6c472.4,0,944.9,0,1417.3,0c3.6,0,7.3-0.3,10.9,0.1c6.3,0.6,8.8-1.7,8.7-8.3c-0.4-32.6-0.4-65.3-0.6-97.9
				c0-18.2,0-36.3,0-54.5c0-31.7,0.1-63.5,0.1-95.2c0.2-12.7,0.1-25.3,0.6-38c0.2-6.3-1.4-8.9-8.3-8.3
				c-39.2,3.6-78.4,6.8-117.7,10.2c-10.4-0.3-20.6-2.3-30.5-5.3c-26.6-8-53-17.9-81.1-5.1c-3,1.4-7.1,0.4-10.7,0.5
				c-32.7-15.6-67.1-26.9-100.5-40.7c-18.4-7.6-37.2-14.2-55.6-21.5c-5.1-2-9.3-1.3-14.1,0.9c-61.3,27.9-122.8,55.5-184.1,83.5
				c-7.6,3.5-15.1,5.5-23.5,5.7c-59.5,1.7-119,3.4-178.4,5.4c-11.9,0.4-23.4-0.8-35-3.4c-89.3-19.8-177.5-45-269.2-53.4
				c-58.1-5.3-115.4-18.9-174.6-12.3C102.7,435.7,51.4,437.7,0.2,441.3z"/>
			<path class="st2" d="M1436.5,661.7c0.2,32.6,0.2,65.3,0.6,97.9c0.1,6.7-2.4,8.9-8.7,8.3c-3.6-0.3-7.3-0.1-10.9-0.1
				c-472.4,0-944.9,0-1417.3,0c0-17.2,0-34.5,0-51.7c12.2-0.5,24.2-2.3,36.1-5.2c47-11.3,93.8-23,140.9-33.9
				c10.8-2.5,21.6-8,32.9-5.6c52.5,11,105.2,21.5,157.3,34.2c29.6,7.2,58.5,7.4,88.2,2.1c65.2-11.7,130.2-25.2,196.4-29
				c56.4-3.2,112.9-5.7,169.3-8.5c44.8-2.3,89.7,2,134.6-2.7c48.1-5,94.4,4.6,140.1,18.8c41.4,12.9,83.4,23.7,125,35.8
				c6.5,1.9,12.1,1.7,18.4-0.3c52.2-16.6,104.3-33.3,156.7-49.2C1409.4,668.5,1422.3,662.4,1436.5,661.7z"/>
			<path class="st3" d="M0.2,441.3c51.2-3.6,102.5-5.6,153.5-11.3c59.2-6.5,116.5,7,174.6,12.3c91.6,8.4,179.8,33.6,269.2,53.4
				c11.6,2.6,23.1,3.8,35,3.4c59.5-2,118.9-3.7,178.4-5.4c8.3-0.2,15.8-2.2,23.5-5.7c61.3-28,122.8-55.6,184.1-83.5
				c4.8-2.2,9.1-2.9,14.1-0.9c18.5,7.3,37.3,13.9,55.6,21.5c33.4,13.9,67.9,25.1,100.5,40.7c-3.2,1.5-6.3,3.5-9.7,4.4
				c-45.1,12.2-90.1,25.2-135.5,36c-47.3,11.2-95.2,20.3-142.8,30.1c-26.9,5.6-53.7,14.7-80.8,15.6c-67.9,2.3-135.9,1.6-203.9-2
				c-2.2-0.1-4.7-0.2-6.6-1.1c-57-26.3-116.3-47.4-173.5-73c-18.8-8.4-33.7-6-50.7,3.6c-31.5,17.7-64.2,33.1-95.8,50.4
				c-12.3,6.8-26.9,10.5-35.8,22.8c-3.6,0.5-7.1,1.1-10.7,1.3c-30.1,1.9-60.1,3.7-90.1-1.1c-2.8-3.9-7.3-5.3-11.4-6.9
				c-25.7-10.4-51.8-20.1-77.4-30.8c-21.1-8.9-42.2-17.8-63.9-24.9C0.2,474,0.2,457.7,0.2,441.3z"/>
			<path class="st4" d="M1436.5,661.7c-14.2,0.7-27.1,6.8-40.5,10.8c-52.4,15.9-104.5,32.6-156.7,49.2c-6.3,2-11.9,2.2-18.4,0.3
				c-41.6-12.1-83.6-22.9-125-35.8c-45.8-14.3-92.1-23.9-140.1-18.8c-44.9,4.7-89.8,0.4-134.6,2.7c-56.4,2.9-112.9,5.3-169.3,8.5
				c-66.2,3.8-131.2,17.4-196.4,29c-29.6,5.3-58.5,5.2-88.2-2.1c-52.1-12.7-104.8-23.2-157.3-34.2c-11.3-2.4-22.1,3.1-32.9,5.6
				C130.1,688,83.3,699.7,36.3,711c-11.8,2.9-23.9,4.7-36.1,5.2c0-21.8,0-43.5,0-65.3c16.3-0.4,32.5,2.3,48.6,3.4
				c14.4,1,28.9,1.3,43.3,2.4c44,3.5,88,9.3,132.1,9.9c52.1,0.8,104.1,5.1,156.3,3.5c10.3-0.3,20.2,4.3,30.9,1.6
				c34.1-8.7,68.4-16.7,102.5-25.3c56.4-14.1,112.9-28.1,171.4-30.9c28.4-1.4,56.9-2.4,85-6c14.1-1.8,28.8,0.9,42.4-5
				c10.9,0,21.7-0.1,32.6-0.1c24.8-1.8,49.5-4,74.3-5.1c27.1-1.3,54.1-2.6,81.1-5.2c15.3-1.5,30.4-0.2,45.3,5.6
				c58.6,22.8,117.4,44.9,176.1,67.4c6.3,2.4,11.9,2.1,18.3,0c39.7-12.6,79.6-24.5,119.1-37.4c22.2-7.3,45.2-12.5,66.6-22.3
				c3.5,0,6.9-0.1,10.4-0.1C1436.5,625.4,1436.5,643.5,1436.5,661.7z"/>
			<path class="st5" d="M812.7,604.6c-13.6,5.9-28.3,3.1-42.4,5c-28.1,3.6-56.6,4.6-85,6c-58.5,2.8-114.9,16.8-171.4,30.9
				c-34.1,8.5-68.4,16.5-102.5,25.3c-10.7,2.7-20.6-1.9-30.9-1.6c-52.1,1.6-104.2-2.7-156.3-3.5c-44.1-0.7-88.1-6.4-132.1-9.9
				c-14.4-1.1-28.9-1.4-43.3-2.4c-16.2-1.1-32.3-3.8-48.6-3.4c0-32.7,0-65.3,0-98c42.1,1.4,84.2-2.6,126.3,2.4c8.5,1,18,3,26.4-2.3
				c30,4.8,60.1,3,90.1,1.1c3.6-0.2,7.1-0.9,10.7-1.3c33.1,1.5,65.9-4.6,99-2.7c2.2,0.1,4.4-0.7,6.7-1c23-3.2,46.2-2.8,69.2-0.7
				c35.8,3.1,71.5,8.5,107.2,12.7c26.4,3.1,52.9,5.3,79.1,9.2c42.7,6.4,85.4,13.3,127.9,21C766.1,595.4,790.1,596.7,812.7,604.6z"/>
			<path class="st6" d="M152.9,553c-8.4,5.2-17.9,3.3-26.4,2.3c-42.1-5-84.2-1-126.3-2.4c0-20.9,0-41.7,0-62.6
				c21.8,7.1,42.8,16,63.9,24.9c25.6,10.8,51.6,20.5,77.4,30.8C145.6,547.7,150.1,549.1,152.9,553z"/>
			<path class="st7" d="M812.7,604.6c-22.6-7.9-46.5-9.1-69.9-13.3c-42.5-7.7-85.2-14.6-127.9-21c-26.3-3.9-52.8-6.1-79.1-9.2
				c-35.7-4.3-71.4-9.6-107.2-12.7c-22.9-2-46.1-2.5-69.2,0.7c-2.2,0.3-4.5,1.1-6.7,1c-33.1-1.9-66,4.2-99,2.7
				c8.9-12.3,23.4-16,35.8-22.8c31.7-17.3,64.4-32.8,95.8-50.4c17-9.5,31.9-12,50.7-3.6c57.3,25.6,116.5,46.7,173.5,73
				c2,0.9,4.4,1,6.6,1.1c67.9,3.6,136,4.3,203.9,2c27.1-0.9,53.9-10,80.8-15.6c47.7-9.9,95.5-18.9,142.8-30.1
				c45.5-10.8,90.4-23.8,135.5-36c3.4-0.9,6.5-2.9,9.7-4.4c3.6-0.1,7.7,0.9,10.7-0.5c28-12.8,54.5-2.9,81.1,5.1
				c10,3,20.1,5,30.5,5.3c3.7,4.7,9.3,4.9,14.5,6.3c37,9.9,73.9,19.8,110.9,29.8c0,31.7-0.1,63.5-0.1,95.2c-3.5,0-6.9,0.1-10.4,0.1
				c-3.3-4.1-8.2-5.7-12.8-7.4c-49.2-18-98.4-36-146.9-55.7c-13.2-5.3-26.3-14.5-40.9-11.8c-46,8.3-92,17.5-137.8,27
				c-74.2,15.5-149.2,25.7-223.9,37.5c-6,1-15.2-1.8-18.6,7.4C834.4,604.5,823.5,604.5,812.7,604.6z"/>
			<path class="st8" d="M1436.6,512c-37-9.9-73.9-19.9-110.9-29.8c-5.1-1.4-10.8-1.6-14.5-6.3c39.2-3.4,78.5-6.6,117.7-10.2
				c6.9-0.6,8.5,2,8.3,8.3C1436.6,486.7,1436.7,499.3,1436.6,512z"/>
			<path class="st5" d="M845.3,604.4c3.4-9.2,12.6-6.5,18.6-7.4c74.8-11.8,149.7-22.1,223.9-37.5c45.8-9.5,91.7-18.7,137.8-27
				c14.5-2.6,27.7,6.5,40.9,11.8c48.5,19.7,97.7,37.6,146.9,55.7c4.6,1.7,9.5,3.3,12.8,7.4c-21.4,9.8-44.4,15-66.6,22.3
				c-39.5,13-79.5,24.8-119.1,37.4c-6.4,2-12,2.4-18.3,0c-58.7-22.5-117.6-44.5-176.1-67.4c-14.9-5.8-30-7.1-45.3-5.6
				c-27,2.7-54,4-81.1,5.2C894.8,600.5,870,602.7,845.3,604.4z"/>
		</g>
	</g>
</g>
</svg>
