<?xml version="1.0" encoding="utf-8"?>
<!-- Generator: Adobe Illustrator 26.5.0, SVG Export Plug-In . SVG Version: 6.00 Build 0)  -->
<svg version="1.1" id="Capa_1" xmlns="http://www.w3.org/2000/svg" xmlns:xlink="http://www.w3.org/1999/xlink" x="0px" y="0px"
	 viewBox="0 0 1440 560" style="enable-background:new 0 0 1440 560;" xml:space="preserve">
<style type="text/css">
	.st0{fill:#28979E;}
	.st1{clip-path:url(#SVGID_00000105408122604196809720000014973110646747073201_);}
	.st2{fill:#2B9DA5;}
	.st3{fill:#2FA4AB;}
	.st4{fill:#16757E;}
	.st5{fill:#208890;}
	.st6{fill:#126E77;}
	.st7{fill:#FEFEFE;}
	.st8{fill:#248F97;}
	.st9{fill:#1A7B84;}
	.st10{fill:#36B2B8;}
	.st11{fill:#1E828B;}
	.st12{fill:#208991;}
	.st13{fill:#32ABB2;}
	.st14{fill:#31A8AF;}
	.st15{fill:#36B2B9;}
	.st16{fill:#228C94;}
	.st17{fill:none;}
	.st18{fill:#FFFFFF;}
</style>
<g id="Capa_1-2">
	<g>
		<rect y="0" class="st0" width="1440" height="560"/>
		<path class="st0" d="M35,162.8l64.9,37.5v75L35,312.8l-64.9-37.5v-75L35,162.8L35,162.8z M229.9,50.3l65,37.5v75l-65,37.5
			L165,162.8v-75L229.9,50.3z M229.9,275.3l65,37.5v75l-65,37.5L165,387.8v-75L229.9,275.3z M294.8-62.2l65,37.5v75l-65,37.5
			l-65-37.5v-75L294.8-62.2z M489.7,275.3l65,37.5v75l-65,37.5l-65-37.5v-75L489.7,275.3L489.7,275.3z M489.7,500.3l65,37.5v75
			l-65,37.5l-65-37.5v-75L489.7,500.3L489.7,500.3z M749.5,500.3l65,37.5v75l-65,37.5l-65-37.5v-75L749.5,500.3z M814.5,162.8
			l65,37.5v75l-65,37.5l-65-37.5v-75L814.5,162.8z M1139.2,275.3l65,37.5v75l-65,37.5l-64.9-37.5v-75L1139.2,275.3z M1204.2-62.2
			l64.9,37.5v75l-64.9,37.5l-65-37.5v-75L1204.2-62.2L1204.2-62.2z M1269.1,275.3l64.9,37.5v75l-64.9,37.5l-64.9-37.5v-75
			L1269.1,275.3z M1204.2,387.8l64.9,37.5v75l-64.9,37.5l-65-37.5v-75L1204.2,387.8z M1399,50.3l64.9,37.5v75l-64.9,37.5l-65-37.5
			v-75L1399,50.3z M1528.9,50.3l65,37.5v75l-65,37.5l-65-37.5v-75L1528.9,50.3z M1528.9,275.3l65,37.5v75l-65,37.5l-65-37.5v-75
			L1528.9,275.3z M1528.9,500.3l65,37.5v75l-65,37.5l-65-37.5v-75L1528.9,500.3z"/>
		<path class="st0" d="M27.5,162.8c0,4.1,3.4,7.5,7.5,7.5s7.5-3.4,7.5-7.5s-3.4-7.5-7.5-7.5S27.5,158.7,27.5,162.8z M92.5,200.3
			c0,4.1,3.4,7.5,7.5,7.5s7.5-3.4,7.5-7.5s-3.4-7.5-7.5-7.5S92.5,196.2,92.5,200.3z M92.5,275.3c0,4.1,3.4,7.5,7.5,7.5
			s7.5-3.4,7.5-7.5s-3.4-7.5-7.5-7.5S92.5,271.2,92.5,275.3z M27.5,312.8c0,4.1,3.4,7.5,7.5,7.5s7.5-3.4,7.5-7.5s-3.4-7.5-7.5-7.5
			S27.5,308.7,27.5,312.8z M-37.4,275.3c0,4.1,3.4,7.5,7.5,7.5s7.5-3.4,7.5-7.5s-3.4-7.5-7.5-7.5S-37.4,271.2-37.4,275.3z
			 M-37.4,200.3c0,4.1,3.4,7.5,7.5,7.5s7.5-3.4,7.5-7.5s-3.4-7.5-7.5-7.5S-37.4,196.2-37.4,200.3z M222.4,50.3
			c0,4.1,3.4,7.5,7.5,7.5s7.5-3.4,7.5-7.5s-3.4-7.5-7.5-7.5S222.4,46.2,222.4,50.3z M287.3,87.8c0,4.1,3.4,7.5,7.5,7.5
			s7.5-3.4,7.5-7.5s-3.4-7.5-7.5-7.5S287.3,83.7,287.3,87.8z M287.3,162.8c0,4.1,3.4,7.5,7.5,7.5s7.5-3.4,7.5-7.5s-3.4-7.5-7.5-7.5
			S287.3,158.7,287.3,162.8z M222.4,200.3c0,4.1,3.4,7.5,7.5,7.5s7.5-3.4,7.5-7.5s-3.4-7.5-7.5-7.5S222.4,196.2,222.4,200.3z
			 M157.4,162.8c0,4.1,3.4,7.5,7.5,7.5s7.5-3.4,7.5-7.5s-3.4-7.5-7.5-7.5S157.4,158.7,157.4,162.8z M157.4,87.8
			c0,4.1,3.4,7.5,7.5,7.5s7.5-3.4,7.5-7.5s-3.4-7.5-7.5-7.5S157.4,83.7,157.4,87.8z M222.4,275.3c0,4.1,3.4,7.5,7.5,7.5
			s7.5-3.4,7.5-7.5s-3.4-7.5-7.5-7.5S222.4,271.2,222.4,275.3z M287.3,312.8c0,4.1,3.4,7.5,7.5,7.5s7.5-3.4,7.5-7.5
			s-3.4-7.5-7.5-7.5S287.3,308.7,287.3,312.8z M287.3,387.8c0,4.1,3.4,7.5,7.5,7.5s7.5-3.4,7.5-7.5s-3.4-7.5-7.5-7.5
			S287.3,383.7,287.3,387.8z M222.4,425.3c0,4.1,3.4,7.5,7.5,7.5s7.5-3.4,7.5-7.5s-3.4-7.5-7.5-7.5S222.4,421.2,222.4,425.3z
			 M157.4,387.8c0,4.1,3.4,7.5,7.5,7.5s7.5-3.4,7.5-7.5s-3.4-7.5-7.5-7.5S157.4,383.7,157.4,387.8z M157.4,312.8
			c0,4.1,3.4,7.5,7.5,7.5s7.5-3.4,7.5-7.5s-3.4-7.5-7.5-7.5S157.4,308.7,157.4,312.8z M287.3-62.2c0,4.1,3.4,7.5,7.5,7.5
			s7.5-3.4,7.5-7.5s-3.4-7.5-7.5-7.5S287.3-66.3,287.3-62.2z M352.3-24.7c0,4.1,3.4,7.5,7.5,7.5s7.5-3.4,7.5-7.5s-3.4-7.5-7.5-7.5
			S352.3-28.8,352.3-24.7z M352.3,50.3c0,4.1,3.4,7.5,7.5,7.5s7.5-3.4,7.5-7.5s-3.4-7.5-7.5-7.5S352.3,46.2,352.3,50.3z M222.4-24.7
			c0,4.1,3.4,7.5,7.5,7.5s7.5-3.4,7.5-7.5s-3.4-7.5-7.5-7.5S222.4-28.8,222.4-24.7z M482.2,275.3c0,4.1,3.4,7.5,7.5,7.5
			s7.5-3.4,7.5-7.5s-3.4-7.5-7.5-7.5S482.2,271.2,482.2,275.3z M547.1,312.8c0,4.1,3.4,7.5,7.5,7.5s7.5-3.4,7.5-7.5
			s-3.4-7.5-7.5-7.5S547.1,308.7,547.1,312.8z M547.1,387.8c0,4.1,3.4,7.5,7.5,7.5s7.5-3.4,7.5-7.5s-3.4-7.5-7.5-7.5
			S547.1,383.7,547.1,387.8z M482.2,425.3c0,4.1,3.4,7.5,7.5,7.5s7.5-3.4,7.5-7.5s-3.4-7.5-7.5-7.5S482.2,421.2,482.2,425.3z
			 M417.2,387.8c0,4.1,3.4,7.5,7.5,7.5s7.5-3.4,7.5-7.5s-3.4-7.5-7.5-7.5S417.2,383.7,417.2,387.8z M417.2,312.8
			c0,4.1,3.4,7.5,7.5,7.5s7.5-3.4,7.5-7.5s-3.4-7.5-7.5-7.5S417.2,308.7,417.2,312.8z M482.2,500.3c0,4.1,3.4,7.5,7.5,7.5
			s7.5-3.4,7.5-7.5l0,0c0-4.1-3.4-7.5-7.5-7.5S482.2,496.2,482.2,500.3L482.2,500.3z M547.1,537.8c0,4.1,3.4,7.5,7.5,7.5
			s7.5-3.4,7.5-7.5s-3.4-7.5-7.5-7.5S547.1,533.7,547.1,537.8z M547.1,612.8c0,4.1,3.4,7.5,7.5,7.5s7.5-3.4,7.5-7.5
			s-3.4-7.5-7.5-7.5S547.1,608.7,547.1,612.8z M482.2,650.3c0,4.1,3.4,7.5,7.5,7.5s7.5-3.4,7.5-7.5l0,0c0-4.1-3.4-7.5-7.5-7.5
			S482.2,646.2,482.2,650.3L482.2,650.3z M417.2,612.8c0,4.1,3.4,7.5,7.5,7.5s7.5-3.4,7.5-7.5s-3.4-7.5-7.5-7.5
			S417.2,608.7,417.2,612.8z M417.2,537.8c0,4.1,3.4,7.5,7.5,7.5s7.5-3.4,7.5-7.5s-3.4-7.5-7.5-7.5S417.2,533.7,417.2,537.8z
			 M742,500.3c0,4.1,3.4,7.5,7.5,7.5s7.5-3.4,7.5-7.5l0,0c0-4.1-3.4-7.5-7.5-7.5S742,496.2,742,500.3L742,500.3z M807,537.8
			c0,4.1,3.4,7.5,7.5,7.5s7.5-3.4,7.5-7.5s-3.4-7.5-7.5-7.5S807,533.7,807,537.8z M807,612.8c0,4.1,3.4,7.5,7.5,7.5s7.5-3.4,7.5-7.5
			s-3.4-7.5-7.5-7.5S807,608.7,807,612.8z M742,650.3c0,4.1,3.4,7.5,7.5,7.5s7.5-3.4,7.5-7.5l0,0c0-4.1-3.4-7.5-7.5-7.5
			S742,646.2,742,650.3L742,650.3z M677,612.8c0,4.1,3.4,7.5,7.5,7.5s7.5-3.4,7.5-7.5s-3.4-7.5-7.5-7.5S677,608.7,677,612.8z
			 M677,537.8c0,4.1,3.4,7.5,7.5,7.5s7.5-3.4,7.5-7.5s-3.4-7.5-7.5-7.5S677,533.7,677,537.8z M807,162.8c0,4.1,3.4,7.5,7.5,7.5
			s7.5-3.4,7.5-7.5s-3.4-7.5-7.5-7.5S807,158.7,807,162.8z M871.9,200.3c0,4.1,3.4,7.5,7.5,7.5s7.5-3.4,7.5-7.5s-3.4-7.5-7.5-7.5
			S871.9,196.2,871.9,200.3z M871.9,275.3c0,4.1,3.4,7.5,7.5,7.5s7.5-3.4,7.5-7.5s-3.4-7.5-7.5-7.5S871.9,271.2,871.9,275.3z
			 M807,312.8c0,4.1,3.4,7.5,7.5,7.5s7.5-3.4,7.5-7.5s-3.4-7.5-7.5-7.5S807,308.7,807,312.8z M742,275.3c0,4.1,3.4,7.5,7.5,7.5
			s7.5-3.4,7.5-7.5s-3.4-7.5-7.5-7.5S742,271.2,742,275.3z M742,200.3c0,4.1,3.4,7.5,7.5,7.5s7.5-3.4,7.5-7.5s-3.4-7.5-7.5-7.5
			S742,196.2,742,200.3z M1131.7,275.3c0,4.1,3.4,7.5,7.5,7.5s7.5-3.4,7.5-7.5s-3.4-7.5-7.5-7.5S1131.7,271.2,1131.7,275.3z
			 M1196.7,312.8c0,4.1,3.4,7.5,7.5,7.5s7.5-3.4,7.5-7.5s-3.4-7.5-7.5-7.5S1196.7,308.7,1196.7,312.8z M1196.7,387.8
			c0,4.1,3.4,7.5,7.5,7.5s7.5-3.4,7.5-7.5s-3.4-7.5-7.5-7.5S1196.7,383.7,1196.7,387.8z M1131.7,425.3c0,4.1,3.4,7.5,7.5,7.5
			s7.5-3.4,7.5-7.5s-3.4-7.5-7.5-7.5S1131.7,421.2,1131.7,425.3z M1066.8,387.8c0,4.1,3.4,7.5,7.5,7.5s7.5-3.4,7.5-7.5
			s-3.4-7.5-7.5-7.5S1066.8,383.7,1066.8,387.8z M1066.8,312.8c0,4.1,3.4,7.5,7.5,7.5s7.5-3.4,7.5-7.5s-3.4-7.5-7.5-7.5
			S1066.8,308.7,1066.8,312.8z M1196.7-62.2c0,4.1,3.4,7.5,7.5,7.5s7.5-3.4,7.5-7.5s-3.4-7.5-7.5-7.5S1196.7-66.3,1196.7-62.2z
			 M1261.6-24.7c0,4.1,3.4,7.5,7.5,7.5s7.5-3.4,7.5-7.5s-3.4-7.5-7.5-7.5S1261.6-28.8,1261.6-24.7z M1261.6,50.3
			c0,4.1,3.4,7.5,7.5,7.5s7.5-3.4,7.5-7.5s-3.4-7.5-7.5-7.5S1261.6,46.2,1261.6,50.3z M1196.7,87.8c0,4.1,3.4,7.5,7.5,7.5
			s7.5-3.4,7.5-7.5s-3.4-7.5-7.5-7.5S1196.7,83.7,1196.7,87.8z M1131.7,50.3c0,4.1,3.4,7.5,7.5,7.5s7.5-3.4,7.5-7.5
			s-3.4-7.5-7.5-7.5S1131.7,46.2,1131.7,50.3z M1131.7-24.7c0,4.1,3.4,7.5,7.5,7.5s7.5-3.4,7.5-7.5s-3.4-7.5-7.5-7.5
			S1131.7-28.8,1131.7-24.7z M1261.6,275.3c0,4.1,3.4,7.5,7.5,7.5s7.5-3.4,7.5-7.5s-3.4-7.5-7.5-7.5S1261.6,271.2,1261.6,275.3z
			 M1326.6,312.8c0,4.1,3.4,7.5,7.5,7.5s7.5-3.4,7.5-7.5s-3.4-7.5-7.5-7.5S1326.6,308.7,1326.6,312.8z M1326.6,387.8
			c0,4.1,3.4,7.5,7.5,7.5s7.5-3.4,7.5-7.5s-3.4-7.5-7.5-7.5S1326.6,383.7,1326.6,387.8z M1261.6,425.3c0,4.1,3.4,7.5,7.5,7.5
			s7.5-3.4,7.5-7.5s-3.4-7.5-7.5-7.5S1261.6,421.2,1261.6,425.3z M1261.6,500.3c0,4.1,3.4,7.5,7.5,7.5s7.5-3.4,7.5-7.5l0,0
			c0-4.1-3.4-7.5-7.5-7.5S1261.6,496.2,1261.6,500.3L1261.6,500.3z M1196.7,537.8c0,4.1,3.4,7.5,7.5,7.5s7.5-3.4,7.5-7.5
			s-3.4-7.5-7.5-7.5S1196.7,533.7,1196.7,537.8z M1131.7,500.3c0,4.1,3.4,7.5,7.5,7.5s7.5-3.4,7.5-7.5l0,0c0-4.1-3.4-7.5-7.5-7.5
			S1131.7,496.2,1131.7,500.3L1131.7,500.3z M1391.5,50.3c0,4.1,3.4,7.5,7.5,7.5s7.5-3.4,7.5-7.5s-3.4-7.5-7.5-7.5
			S1391.5,46.2,1391.5,50.3z M1456.5,87.8c0,4.1,3.4,7.5,7.5,7.5s7.5-3.4,7.5-7.5s-3.4-7.5-7.5-7.5S1456.5,83.7,1456.5,87.8z
			 M1456.5,162.8c0,4.1,3.4,7.5,7.5,7.5s7.5-3.4,7.5-7.5s-3.4-7.5-7.5-7.5S1456.5,158.7,1456.5,162.8z M1391.5,200.3
			c0,4.1,3.4,7.5,7.5,7.5s7.5-3.4,7.5-7.5s-3.4-7.5-7.5-7.5S1391.5,196.2,1391.5,200.3z M1326.6,162.8c0,4.1,3.4,7.5,7.5,7.5
			s7.5-3.4,7.5-7.5s-3.4-7.5-7.5-7.5S1326.6,158.7,1326.6,162.8z M1326.6,87.8c0,4.1,3.4,7.5,7.5,7.5s7.5-3.4,7.5-7.5
			s-3.4-7.5-7.5-7.5S1326.6,83.7,1326.6,87.8z M1521.4,50.3c0,4.1,3.4,7.5,7.5,7.5s7.5-3.4,7.5-7.5s-3.4-7.5-7.5-7.5
			S1521.4,46.2,1521.4,50.3z M1586.4,87.8c0,4.1,3.4,7.5,7.5,7.5s7.5-3.4,7.5-7.5s-3.4-7.5-7.5-7.5S1586.4,83.7,1586.4,87.8z
			 M1586.4,162.8c0,4.1,3.4,7.5,7.5,7.5s7.5-3.4,7.5-7.5s-3.4-7.5-7.5-7.5S1586.4,158.7,1586.4,162.8z M1521.4,200.3
			c0,4.1,3.4,7.5,7.5,7.5s7.5-3.4,7.5-7.5s-3.4-7.5-7.5-7.5S1521.4,196.2,1521.4,200.3z M1521.4,275.3c0,4.1,3.4,7.5,7.5,7.5
			s7.5-3.4,7.5-7.5s-3.4-7.5-7.5-7.5S1521.4,271.2,1521.4,275.3z M1586.4,312.8c0,4.1,3.4,7.5,7.5,7.5s7.5-3.4,7.5-7.5
			s-3.4-7.5-7.5-7.5S1586.4,308.7,1586.4,312.8z M1586.4,387.8c0,4.1,3.4,7.5,7.5,7.5s7.5-3.4,7.5-7.5s-3.4-7.5-7.5-7.5
			S1586.4,383.7,1586.4,387.8z M1521.4,425.3c0,4.1,3.4,7.5,7.5,7.5s7.5-3.4,7.5-7.5s-3.4-7.5-7.5-7.5S1521.4,421.2,1521.4,425.3z
			 M1456.5,387.8c0,4.1,3.4,7.5,7.5,7.5s7.5-3.4,7.5-7.5s-3.4-7.5-7.5-7.5S1456.5,383.7,1456.5,387.8z M1456.5,312.8
			c0,4.1,3.4,7.5,7.5,7.5s7.5-3.4,7.5-7.5s-3.4-7.5-7.5-7.5S1456.5,308.7,1456.5,312.8z M1521.4,500.3c0,4.1,3.4,7.5,7.5,7.5
			s7.5-3.4,7.5-7.5l0,0c0-4.1-3.4-7.5-7.5-7.5S1521.4,496.2,1521.4,500.3L1521.4,500.3z M1586.4,537.8c0,4.1,3.4,7.5,7.5,7.5
			s7.5-3.4,7.5-7.5s-3.4-7.5-7.5-7.5S1586.4,533.7,1586.4,537.8z M1586.4,612.8c0,4.1,3.4,7.5,7.5,7.5s7.5-3.4,7.5-7.5
			s-3.4-7.5-7.5-7.5S1586.4,608.7,1586.4,612.8z M1521.4,650.3c0,4.1,3.4,7.5,7.5,7.5s7.5-3.4,7.5-7.5l0,0c0-4.1-3.4-7.5-7.5-7.5
			S1521.4,646.2,1521.4,650.3L1521.4,650.3z M1456.5,612.8c0,4.1,3.4,7.5,7.5,7.5s7.5-3.4,7.5-7.5s-3.4-7.5-7.5-7.5
			S1456.5,608.7,1456.5,612.8z M1456.5,537.8c0,4.1,3.4,7.5,7.5,7.5s7.5-3.4,7.5-7.5s-3.4-7.5-7.5-7.5S1456.5,533.7,1456.5,537.8z"
			/>
		<path class="st0" d="M91.8,370.9l43.3,25v50l-43.3,25l-43.3-25v-50L91.8,370.9z M91.8,520.9l43.3,25v50l-43.3,25l-43.3-25v-50
			L91.8,520.9z M178.4,220.9l43.3,25v50l-43.3,25l-43.3-25v-50L178.4,220.9z M221.7-4.1l43.3,25v50l-43.3,25l-43.3-25v-50L221.7-4.1
			z M265,70.9l43.3,25v50l-43.3,25l-43.3-25v-50C221.7,95.9,265,70.9,265,70.9z M221.7,145.9l43.3,25v50l-43.3,25l-43.3-25v-50
			L221.7,145.9z M221.7,445.9l43.3,25v50l-43.3,25l-43.3-25v-50L221.7,445.9L221.7,445.9z M308.4,145.9l43.3,25v50l-43.3,25
			l-43.3-25v-50L308.4,145.9z M351.6,220.9l43.3,25v50l-43.3,25l-43.3-25v-50L351.6,220.9z M308.4,445.9l43.3,25v50l-43.3,25
			l-43.3-25v-50L308.4,445.9L308.4,445.9z M438.2,220.9l43.3,25v50l-43.3,25l-43.3-25v-50L438.2,220.9z M395,295.9l43.3,25v50
			l-43.3,25l-43.3-25v-50L395,295.9z M438.2,370.9l43.3,25v50l-43.3,25l-43.3-25v-50L438.2,370.9z M395,445.9l43.3,25v50l-43.3,25
			l-43.3-25v-50L395,445.9L395,445.9z M481.6,145.9l43.3,25v50l-43.3,25l-43.3-25v-50L481.6,145.9L481.6,145.9z M481.6,445.9
			l43.3,25v50l-43.3,25l-43.3-25v-50L481.6,445.9L481.6,445.9z M611.5,520.9l43.3,25v50l-43.3,25l-43.3-25v-50L611.5,520.9z
			 M698.1,220.9l43.3,25v50l-43.3,25l-43.3-25v-50L698.1,220.9z M654.8,295.9l43.3,25v50l-43.3,25l-43.3-25v-50L654.8,295.9z
			 M698.1,520.9l43.3,25v50l-43.3,25l-43.3-25v-50L698.1,520.9z M784.7,70.9l43.3,25v50l-43.3,25l-43.3-25v-50L784.7,70.9z
			 M741.4,145.9l43.3,25v50l-43.3,25l-43.3-25v-50L741.4,145.9z M784.7,220.9l43.3,25v50l-43.3,25l-43.3-25v-50L784.7,220.9z
			 M741.4,445.9l43.3,25v50l-43.3,25l-43.3-25v-50L741.4,445.9z M784.7,520.9l43.3,25v50l-43.3,25l-43.3-25v-50L784.7,520.9z
			 M828-4.1l43.3,25v50l-43.3,25l-43.3-25v-50C784.7,20.9,828-4.1,828-4.1z M828,145.9l43.3,25v50l-43.3,25l-43.3-25v-50L828,145.9z
			 M914.6-4.1l43.3,25v50l-43.3,25l-43.3-25v-50C871.3,20.9,914.6-4.1,914.6-4.1z M957.9,70.9l43.3,25v50l-43.3,25l-43.3-25v-50
			C914.6,95.9,957.9,70.9,957.9,70.9z M957.9,370.9l43.3,25v50l-43.3,25l-43.3-25v-50L957.9,370.9z M1001.2,145.9l43.3,25v50
			l-43.3,25l-43.3-25v-50L1001.2,145.9L1001.2,145.9z M1044.5,220.9l43.3,25v50l-43.3,25l-43.3-25v-50L1044.5,220.9z M1001.2,295.9
			l43.3,25v50l-43.3,25l-43.3-25v-50L1001.2,295.9z M1044.5,520.9l43.3,25v50l-43.3,25l-43.3-25v-50L1044.5,520.9z M1087.8,295.9
			l43.3,25v50l-43.3,25l-43.3-25v-50L1087.8,295.9z M1217.7,520.9l43.3,25v50l-43.3,25l-43.3-25v-50L1217.7,520.9z M1304.3,220.9
			l43.3,25v50l-43.3,25l-43.3-25v-50L1304.3,220.9z M1304.3,370.9l43.3,25v50l-43.3,25l-43.3-25v-50L1304.3,370.9z M1390.9,70.9
			l43.3,25v50l-43.3,25l-43.3-25v-50L1390.9,70.9z M1347.6,295.9l43.3,25v50l-43.3,25l-43.3-25v-50L1347.6,295.9z M1347.6,445.9
			l43.3,25v50l-43.3,25l-43.3-25v-50L1347.6,445.9z M1477.5,70.9l43.3,25v50l-43.3,25l-43.3-25v-50L1477.5,70.9z"/>
	</g>
</g>
<g>
	<defs>
		<rect id="SVGID_1_" x="2.1" y="2.1" width="1439.2" height="556.4"/>
	</defs>
	<clipPath id="SVGID_00000061469089770655804030000011950915628838747832_">
		<use xlink:href="#SVGID_1_"  style="overflow:visible;"/>
	</clipPath>
	<g style="clip-path:url(#SVGID_00000061469089770655804030000011950915628838747832_);">
		<path class="st2" d="M-3.9-36.8c0-1,0-1.9,0-2.9C23.9-63.1,51.9-86.2,79.3-110c9.6-8.3,22.1-14,26.8-27.2
			c14.4-0.2,28.8-0.6,43.1-0.6c103.1,0.1,206.2,0.3,309.3,0.5c-0.6,7.6-0.9,15.3-1.7,22.9c-5.2,45.1-10.6,90.2-15.9,135.3
			c-6.8-1.2-12.3-5-18.2-8.2C394.6-2.4,368.5-21,339.1-33.9c-0.7-2.8-0.9-5.8-2.2-8.2c-16.2-27.8-32.7-55.5-48.7-83.4
			c-6.1-10.6-11.1-8.3-18.8-1.3C236-96.5,201.6-67.2,168.5-36.5c-15.3,14.2-36.9-1.9-49.5,15.3c4.6,4.2,21.4,7.6,25.4,6.8
			c33.9-7.3,59.1,7.5,93,0.5c33.4-7,66.3-16.5,100.4-20.1c-0.2,1-0.4,1.9-0.6,2.9c-1.7,2.3-3.6,4.5-5,7
			c-44.7,84.3-89.3,168.6-134,252.9c-7-2.5-7.9-9.5-10-15c-15.7-41.3-30.7-82.9-46.7-124c-9.7-25-16.3-51.2-30.1-74.6
			C86.8,3.4,62.2-8.7,37.1-19.6C23.5-25.5,11.3-34.8-3.9-36.8L-3.9-36.8z"/>
		<path class="st3" d="M652,823.2H467c2.6-14.1,5.2-28.2,7.7-42.4c6.1-33.9,12.3-67.8,18.4-101.7c-1.9-24.6-11.3-47.3-17.7-70.8
			c-13.8-50.7-28.7-101.1-43.1-151.6c0-2,0-4,0.1-6c1-0.9,2-1.8,3-2.7c1.7,6.4,7.6,6.8,12.5,8.4c59.4,19.3,119,38.2,178.3,57.8
			c10,3.3,13.9,0.6,15.9-9.1c3.9-19.8,8.2-39.5,12.9-59.1c9-36.8,14.5-74.3,26-110.5c3.9,2.4,5.9,6.1,7.5,10.2
			c15,36.2,29.6,72.5,45.1,108.4c9.9,23.1,16.5,47.7,30.9,68.8c0.1,1,0.3,2,0.4,3c-1,0-1.9,0-2.9,0.1c-1.1,0-2.2,0-3.3,0
			c-15.3-0.5-30.6-0.3-46-2.2c-19.9-2.5-40.2-2.6-60.3-3.6c-7.2-0.4-13.6,0.6-14.7,9.8c-3.8,33.3-7.8,66.5-11.8,99.8
			c-5.8,4.2-11.6,8.2-18.7,10.6c-32.2,11.3-64,23.4-96.2,34.6c-9.5,3.3-12.3,6.3-3.7,14c27.5,24.7,55.2,49.1,82.1,74.5
			C610.4,783.3,633.9,800.4,652,823.2L652,823.2z"/>
		<path class="st0" d="M1218.3,823.2h-8.7c-0.8-4.5-3.5-7.5-6.9-10.4c-30.2-25.4-60.3-51-90.3-76.6c-3.8-3.3-7.8-5.4-12.8-5.2
			c-9.3-5.8-13-17.3-22.8-22.6c0.1-5.7-2.8-9.8-6.2-14c-29.7-36.9-58.7-74.3-88.9-110.8c-11.7-14.1-20.4-31.3-37.8-40.2
			c-1.2-1.8-2.3-3.7-3.5-5.5c0.2-1.1,0.3-2.1,0.5-3.2c2,0,4-0.1,6-0.1c10.6-0.6,21,2.2,31.5,2.7c63.7,2.9,127.3,7,190.8,12
			c-0.1,8.1-4.4,14.5-8.3,21.1c-23.2,39.8-46.3,79.6-69.3,119.5c-1.8,3.1-6.1,6.3-2.9,10.2c2.8,3.4,7.2,1.7,10.8,0.6
			c67.1-18.5,134.2-36.9,201.3-55.5c4.4-1.2,11.6-1,10-9.3c3.8-5.9-1.7-8.7-4.3-12.2c-21.4-28.8-42.8-57.6-64.4-86.3
			c-3.2-4.3-6.5-8.3-6.4-14c39.3-11.3,80-16.5,119.6-26.1c25.6-6.2,52.3-7.6,77-17.7c2.7,1,5.4,2.1,8.1,3.1c0,1,0,2.1,0.1,3.2
			c-2.4,2.4-5.1,4.5-7.1,7.1c-33.4,44-66.7,88-99.8,132.2c-4.5,6-11.6,10.7-11.2,19.5c-8.7-2.9-9.2,4.9-11.7,9.4
			c-19,33.9-38.4,67.7-56.5,102.1C1242,778.3,1227.2,799.2,1218.3,823.2L1218.3,823.2z"/>
		<path class="st4" d="M741.5,823.2c21.7-51,43.5-102,64.9-153.1c4.8-11.4,12-21.9,12.8-34.7C803.7,597,783.4,561.2,762,526
			c1,0,1.9,0,2.9-0.1c52.6,2.7,105.2,5.4,157.8,8.2c5.3,0.3,10.6,0.9,15.3-2.4c1,0.9,1.9,1.8,2.9,2.8c-0.2,1.1-0.3,2.1-0.5,3.2
			c-35.2,28.9-70.2,58.1-105.9,86.4c-8.5,6.7-9.9,12.6-5.5,22C855.9,704,882.5,762,909.1,820c0,1,0,2,0,3L741.5,823.2L741.5,823.2z"
			/>
		<path class="st4" d="M-3.9-36.8c15.2,2,27.4,11.3,41,17.2c25.1,10.9,49.7,23,74.5,34.7C74.1,88.2,36.5,161.3-1,234.5
			c-1,0-2,0-2.9-0.1V-36.8z"/>
		<path class="st5" d="M-3.9,534.6v-5.8c1,0,2,0,3,0c48.5-8.5,96.1-21.2,144.2-31.6c-3.1,42.3-5.4,84.7-9.9,126.8
			c-1.5,13.5,1.9,27.9-5.2,40.8c-2.5-1.4-5.5-2.3-7.3-4.3c-26.4-27.7-52.6-55.6-79.1-83.2C27.3,562.2,15.1,544.8-3.9,534.6
			L-3.9,534.6z"/>
		<path class="st6" d="M-0.9,528.8c-1,0-2,0-3,0V323.9c6.9-0.4,13.2,2.2,19.6,4.2c31,10.1,62.1,20.3,93.1,30.4
			c1.8,0.1,3.6,0.2,5.3,0.3c0.1,0.8,0.2,1.6,0.3,2.4c-30.2,43-60.7,86-90.6,129.2C15.1,502.9,4.1,513.9-0.9,528.8L-0.9,528.8z"/>
		<path class="st6" d="M128.9,669.5c-44.3,3.1-88.5-3-132.8-2.2V534.6c19,10.2,31.2,27.7,45.7,42.7c26.5,27.6,52.7,55.5,79.1,83.2
			c1.9,2,4.9,2.9,7.3,4.3c0.2,0.9,0.4,1.8,0.6,2.7C128.8,668.2,128.8,668.8,128.9,669.5L128.9,669.5z"/>
		<path class="st7" d="M1440.8,823.2c-0.2-1-0.3-2-0.5-3.1c0-49,0-98,0-147c0-62.5,0-125,0-187.5c0-1,0-2.1-0.1-3.2
			c0.1-54.9,0.1-109.7,0.2-164.6c0-3.8,0-7.5-0.1-11.3c0-52.9,0-105.8-0.1-158.7c0-54.8,0-109.7,0-164.5
			c0.2-37.4,0.2-74.9,0.6-112.3c0.1-6.9-2.3-9-9.1-9c-49,0.4-98,0.4-147,0.6c-33.7,0-67.4,0-101.1,0c-0.9-0.4-1.9-0.4-2.8,0
			c-86.7,0-173.4,0-260.1-0.1c-52,0-104,0-156.1,0c-52,0-104.1,0-156.1,0c-50,0-100,0-150,0c-103.1-0.2-206.2-0.4-309.3-0.5
			c-14.4,0-28.8,0.4-43.1,0.6c-36.7-0.2-73.3-0.4-110-0.6c2.6-6,7.8-2.7,11.6-2.7c71.3-0.2,142.5-0.2,213.8-0.2
			c403.1,0,806.1,0.1,1209.2-0.3c10.8,0,13.3,2.4,13.3,13.3c-0.3,312.6-0.3,625.3-0.4,937.9C1443.5,814.4,1446.8,820,1440.8,823.2
			L1440.8,823.2z"/>
		<path class="st8" d="M108.8,358.5c-31-10.1-62.1-20.3-93.1-30.4C9.3,326,3,323.5-3.9,323.9v-89.5c1,0,2,0,2.9,0.1
			c1,1.9,1.9,3.9,2.9,5.9c0.8,5.7,4.9,9.1,8.6,12.8c29.9,30.8,59.8,61.7,89.7,92.5C103.9,349.4,108,352.9,108.8,358.5L108.8,358.5z"
			/>
		<path class="st9" d="M458.5-137.3c50,0,100,0,150,0c1.1,50.1-4.6,100.1-2.8,150.2c0.2,6.7-0.3,13.4,2.8,19.6
			c0,1.9,0.1,3.8,0.1,5.7c-5.4,0.8-7.9,4.8-10.4,9c-26.2,43.1-52.9,85.9-78.6,129.2c-7.7,13-18.9,24.6-20.8,40.6
			c-2.9,2.9-5.8,5.8-8.7,8.7c-0.7,0.1-1.4,0.2-2.1,0.2c-1.9-0.1-4.3,0.4-5.6-0.6c-4.3-3.1,1-2.9,1.8-4c2-2.8,1.1-5.5,0.4-8.2
			C468.8,151,455.7,88.2,438,26.6c10.1-5.3,20.3-1.3,32.2-5.6l-29.4,0.1c5.3-45.1,10.7-90.6,15.9-135.7
			C457.7-122,457.9-129.7,458.5-137.3L458.5-137.3z"/>
		<path class="st3" d="M1.9,240.4c-1-1.9-1.9-3.9-2.9-5.9C36.5,161.3,74.1,88.2,111.6,15c13.8,23.4,20.4,49.6,30.1,74.6
			c16,41.2,31,82.8,46.7,124c2.1,5.5,2.9,12.5,10,15c0.6,7.9,6.1,8.6,12.3,8.7c33.6,0.9,67.1,1.9,100.6,2.9
			c-6.1,26.8-17,52.1-26.5,77.8c-7.4,2.9-10.2-3.5-14.1-7.2c-26-24.5-49-52.3-78.2-73.5C128.9,235.4,65.5,241.4,1.9,240.4L1.9,240.4
			z"/>
		<path class="st10" d="M311.4,240.3c-33.5-1-67.4-2.1-100.9-3c-6.2-0.2-11.7-0.8-12.3-8.7c44.6-84.3,89.3-168.6,134-252.9
			c1.3-2.5,3.3-4.7,5-7c0.3,23.6-3.4,46.9-5.9,70.2c-6.7,60.5-9.1,121.5-19.7,181.6c-0.8,4.8-1,9.6,1.6,14
			C312.6,236.4,311.4,240.3,311.4,240.3z"/>
		<path class="st11" d="M313.2,234.6c-2.6-4.4-2.4-9.2-1.5-14c10.5-60.1,13-121.1,19.7-181.6c2.6-23.3,6.2-46.6,5.9-70.2
			c0.2-1,0.4-1.9,0.5-2.9l1.4,0.2c29.3,12.9,55.5,31.5,83.6,46.6c5.9,3.2,11.4,7,18.2,8.2c9.8,0,19.5,0,29.3,0
			c-10.5,4.7-22,0.5-32.1,5.9C397.7,96,357.3,165.2,316.8,234.5L313.2,234.6L313.2,234.6z"/>
		<path class="st8" d="M360.2,716.4c-1.9,0-3.9,0-5.8,0l0,0c-6.9-20.9-13-42-20.8-62.6c-17.5-46-33.5-92.5-50.4-138.8
			c-6.5-17.8-10.5-36.9-21.5-53c0.1-1.8,0.2-3.6,0.3-5.4c1-1,2-2.1,2.9-3.1c1,0.1,2,0.3,3,0.4c5.2,3.4,11.1,2.6,16.8,2.5
			c30.6-0.8,61.2-2,91.8-2.8c18.7-0.4,37.4,0.7,55.9-3c0,2,0,4-0.1,6c-1,2.2-2.3,4.2-2.9,6.5C406.3,547.6,383.2,632,360.2,716.4
			L360.2,716.4L360.2,716.4z"/>
		<path class="st12" d="M681,335.5c-11.5,36.2-17.1,73.7-26,110.5c-4.8,19.6-9,39.3-12.9,59.1c-1.9,9.8-5.8,12.5-15.9,9.1
			c-59.3-19.5-118.9-38.5-178.3-57.8c-4.8-1.6-10.7-2-12.5-8.4c49.2-21.9,96.7-47.1,144.6-71.6c29.9-15.3,59.6-31.2,89.3-46.8
			c3.9-1.1,7.8-2.2,11.6-3.3C681,329.4,681,332.5,681,335.5L681,335.5z"/>
		<path class="st10" d="M669.4,329.7c-29.8,15.6-59.4,31.5-89.3,46.8c-47.9,24.5-95.4,49.7-144.6,71.6c-1,0.9-2,1.8-3,2.7
			c-18.5,3.6-37.2,2.5-55.9,3c-30.6,0.7-61.2,1.9-91.8,2.8c-5.7,0.2-11.6,1-16.8-2.5c29.5-18.6,59.3-36.8,88.5-55.8
			c21.5-14,44.8-25.5,64.5-42.5c0.7-0.2,1.4-0.3,2.1-0.4c11.9-1.1,23.9-2,35.7-3.5c65.6-8.2,131.2-16.5,196.8-24.8
			C660.4,326.5,665.2,326.6,669.4,329.7L669.4,329.7z"/>
		<path class="st6" d="M938,531.8c-4.7,3.3-10,2.6-15.3,2.4c-52.6-2.8-105.2-5.5-157.8-8.2c-0.1-1-0.3-2-0.4-3
			c7.9-66.3,15.8-132.6,23.7-198.9c0.8,0,1.6-0.1,2.5-0.1c49,68.4,98.1,136.9,147.2,205.3C937.8,530.1,937.9,530.9,938,531.8
			L938,531.8z"/>
		<path class="st9" d="M360.1,716.4c23.1-84.4,46.2-168.8,69.3-253.2c0.6-2.3,1.9-4.3,2.9-6.5c14.5,50.5,29.4,100.9,43.1,151.6
			c6.4,23.4,15.8,46.2,17.7,70.8C448.7,691.1,405.2,706.5,360.1,716.4L360.1,716.4z"/>
		<path class="st10" d="M788.2,324.1c-7.9,66.3-15.8,132.6-23.7,198.9c-14.4-21.1-20.9-45.7-30.9-68.8
			c-15.5-36-30.1-72.3-45.1-108.4c-1.7-4-3.7-7.8-7.5-10.2c0-3,0-6.1,0-9.1c0-0.7,0-1.3,0-2c1-0.1,2-0.3,3-0.5
			c34.5-1,69.1-2,103.6-3C787.7,322,788,323,788.2,324.1L788.2,324.1z"/>
		<path class="st2" d="M628.9,635.5c0-1.9,0-3.8,0-5.7c2.4-2.2,4.7-4.7,7.3-6.7c37.3-28.1,74.7-56.2,112.1-84.3
			c4.6-3.5,9.7-6.3,10.4-12.8c1.1,0,2.2,0,3.3,0c21.4,35.2,41.7,71,57.2,109.3C755.8,635.4,692.3,635.4,628.9,635.5L628.9,635.5z"/>
		<path class="st12" d="M758.7,526c-0.7,6.5-5.8,9.4-10.4,12.8c-37.4,28-74.8,56.1-112.1,84.3c-2.6,2-4.9,4.4-7.3,6.7
			c-0.9,0-1.8,0-2.8,0c3.9-33.3,7.9-66.5,11.8-99.8c1.1-9.2,7.5-10.2,14.7-9.8c20.1,1,40.3,1.1,60.3,3.6
			C728.1,525.7,743.4,525.5,758.7,526L758.7,526z"/>
		<path class="st6" d="M1007.9,716.3c-6.5,3.5-10.5,9.6-15.4,14.8c-28.1,29.4-53.1,61.6-83.4,89c-26.7-58-53.2-116-80.1-173.9
			c-4.4-9.4-2.9-15.3,5.5-22c35.7-28.4,70.7-57.5,105.9-86.4c1.2,1.8,2.3,3.7,3.5,5.5c2,5.9,3.8,11.9,5.9,17.7
			C969.1,612.8,988.5,664.6,1007.9,716.3L1007.9,716.3z"/>
		<path class="st8" d="M938,531.8c-0.1-0.9-0.2-1.7-0.2-2.6c3.5-4.3,2.1-8.9,1.3-13.7c-11.1-64.8-21.8-129.6-33.4-194.3
			c-2.7-15,2.8-14,13.1-9.9c35.3,14,70.6,27.9,106.1,41.5c28.7,11,56.5,24.2,86.5,31.6c0,1,0.1,2,0.1,2.9
			c-8.7,5.2-16,12.1-23.4,18.9c-23.7,21.6-48.3,42.1-71.7,64c-23,21.6-48.3,40.7-69.5,64.2c-2,0-4,0.1-6,0.1
			C939.9,533.6,938.9,532.7,938,531.8L938,531.8z"/>
		<path class="st5" d="M946.8,534.5c21.2-23.5,46.5-42.6,69.5-64.2c23.4-21.9,48-42.5,71.7-64c7.5-6.8,14.8-13.6,23.4-18.9
			c0.9,1.9,1.9,3.9,2.8,5.8c0.9,3.2,1.5,6.5,2.6,9.6c17.4,48.6,35,97.2,52.5,145.8l-0.2,0.5c-63.5-5-127.1-9.1-190.8-12
			C967.8,536.6,957.5,533.9,946.8,534.5L946.8,534.5z"/>
		<path class="st8" d="M1310.7,635.7c1.6,8.3-5.5,8-10,9.3c-67.1,18.7-134.2,37.1-201.3,55.5c-3.7,1-8.1,2.8-10.8-0.6
			c-3.1-3.9,1.2-7.1,2.9-10.2c23-39.9,46.1-79.7,69.3-119.5c3.9-6.7,8.2-13,8.3-21.1l0.2-0.5c1.9,0.2,3.8,0.4,5.7,0.5
			c0.8,4.7,4,7.2,7.9,9.6c19.6,12,38.8,24.6,58.7,36.2C1264.7,608.4,1286.1,624.8,1310.7,635.7L1310.7,635.7z"/>
		<path class="st5" d="M1432.1,479.3c-24.7,10.1-51.4,11.5-77,17.7c-39.7,9.7-80.3,14.8-119.6,26.1c-0.9,0-1.9,0-2.8,0
			c15.5-48.2,31-96.4,46.4-144.6c2.7,1,5.7,1.6,8,3.1c44.8,28.7,89.6,57.5,134.2,86.5C1425.7,470.9,1430.5,473.8,1432.1,479.3z"/>
		<path class="st6" d="M1432.1,479.3c-1.6-5.6-6.5-8.4-10.7-11.2c-44.6-29-89.4-57.8-134.2-86.5c-2.4-1.5-5.3-2.1-8-3.1
			c0-0.9-0.1-1.7-0.1-2.6l3-2.5c30.6-8.2,59.3-21.8,89.2-31.9c23.1-7.8,44.7-19.7,69.2-23.6c-0.1,54.9-0.1,109.7-0.2,164.6
			C1437.5,481.4,1434.8,480.4,1432.1,479.3L1432.1,479.3z"/>
		<path class="st9" d="M1440.3,485.6c0,62.5,0,125,0,187.5c-33.8-8.5-67.6-17.1-101.5-25.4c-4.4-1.1-9.1-3.7-13.8-0.3
			c-1-1-1.9-2-2.9-3c-0.3-8.8,6.7-13.5,11.2-19.5c33.2-44.1,66.5-88.2,99.8-132.2C1435.2,490,1437.9,488,1440.3,485.6L1440.3,485.6z
			"/>
		<path class="st13" d="M1007.9,716.3c-19.4-51.8-38.7-103.5-58-155.3c-2.2-5.8-4-11.8-5.9-17.7c17.3,8.9,26.1,26.1,37.8,40.2
			c30.2,36.5,59.2,73.9,88.9,110.8c3.4,4.3,6.3,8.4,6.2,14c-20.2,2.7-40.4,5.4-60.6,8.1C1013.4,716.4,1010.6,716.3,1007.9,716.3
			L1007.9,716.3z"/>
		<path class="st3" d="M1232.7,523.1c0.9,0,1.9,0,2.8,0c-0.1,5.7,3.2,9.7,6.4,14c21.6,28.7,43.1,57.5,64.4,86.3
			c2.6,3.5,8.1,6.3,4.3,12.2c-24.6-10.9-46-27.2-69.1-40.8c-19.8-11.6-39.1-24.2-58.7-36.2c-3.8-2.4-7.1-4.9-7.9-9.6
			c17.5-7.7,34.9-15.4,52.4-23.1C1229.1,525.1,1230.9,524.1,1232.7,523.1L1232.7,523.1z"/>
		<path class="st4" d="M261.7,462.1c11,16.1,15,35.1,21.5,53c16.8,46.2,32.9,92.8,50.4,138.8c7.8,20.5,13.9,41.7,20.8,62.6
			c-34.9-4.1-68.8-13.5-103.1-20.4c-33.9-6.8-67.7-14.2-101.5-21.5c-5.4-1.2-11.8-1.3-15-7.2c4.4-6.8,8.9-13.6,13.2-20.5
			C185.9,585.2,223.8,523.6,261.7,462.1L261.7,462.1z"/>
		<path class="st14" d="M261.7,462.1c-37.9,61.5-75.8,123.1-113.8,184.6c-4.3,6.9-8.8,13.7-13.2,20.5c-2,0.1-3.9,0.1-5.9,0.2
			c-0.2-0.9-0.4-1.8-0.6-2.7c7.1-12.8,3.7-27.2,5.2-40.8c4.5-42.1,6.8-84.5,9.9-126.8c0.5-8.3-2.7-15.9-4.3-23.8
			c-7.5-36.4-19.4-71.9-24.2-108.9c6.6-0.2,11.8,3.1,17.1,6.5c29.2,18.9,58.7,37.6,87.9,56.7c14.3,9.4,28.2,19.3,42.4,29
			C261.9,458.5,261.8,460.3,261.7,462.1L261.7,462.1z"/>
		<path class="st0" d="M114.7,364.5c4.8,37,16.8,72.4,24.2,108.9c1.6,7.9,4.8,15.5,4.3,23.8C95.1,507.6,47.5,520.4-1,528.8
			c5-14.9,16.1-25.9,24.7-38.4c29.9-43.3,60.4-86.2,90.6-129.2C114.5,362.3,114.6,363.4,114.7,364.5L114.7,364.5z"/>
		<path class="st2" d="M114.7,364.5c-0.1-1.1-0.2-2.2-0.3-3.3c-0.1-0.8-0.2-1.6-0.3-2.4c26.1-40.5,52.2-81,78.3-121.5
			c29.2,21.2,52.2,49,78.2,73.5c3.9,3.7,6.7,10.1,14.1,7.2c-1.4,9.9-2.8,19.8-4.3,29.6c-5.2,35.3-10.4,70.6-15.5,105.9
			c-1,1-2,2.1-2.9,3.1c-14.1-9.7-28-19.7-42.4-29c-29.2-19-58.6-37.7-87.9-56.7C126.5,367.6,121.3,364.2,114.7,364.5L114.7,364.5z"
			/>
		<path class="st5" d="M192.5,237.3c-26.1,40.5-52.2,81-78.3,121.5c-1.8-0.1-3.6-0.2-5.3-0.3c-0.8-5.6-4.9-9.1-8.5-12.9
			c-30.1-30.9-60-61.7-89.9-92.5c-3.7-3.8-7.8-7.2-8.6-12.8C65.5,241.3,128.9,235.3,192.5,237.3L192.5,237.3z"/>
		<path class="st0" d="M608.6,32.5c-3.2-6.2-2.6-13-2.8-19.6c-1.8-50.1,3.9-100.1,2.8-150.2c52,0,104.1,0,156.1,0
			c-0.7,11.7,3.5,22.7,6.1,33.7c7.5,31,9.9,63.2,22.8,92.9c-1.1,1-2.1,1.9-3.2,2.9c-2.9,0-5.8,0-8.6,0
			C724.1,5.5,666.4,19,608.6,32.5L608.6,32.5z"/>
		<path class="st15" d="M920.8-137.4c86.7,0,173.4,0,260.1,0.1c-0.2,33.5-5.3,66.7-7.8,100.1c-2.1,28.1-4.2,56.2-6.2,84.3
			c-0.3,0.9-0.6,1.8-0.8,2.6c-0.8,0-1.5,0-2.3-0.1c-1,0-2,0.1-2.9,0.1c-33.9-26.5-67.7-53.3-101.8-79.6
			c-45.9-35.4-92.1-70.4-138.2-105.5C920.8-136.1,920.8-136.8,920.8-137.4L920.8-137.4z"/>
		<path class="st8" d="M920.8-137.4c0,0.7,0,1.4,0,2c-2,15.1-4,30.3-5.8,45.4c-4.8,38.8-9.5,77.7-14.2,116.5
			c-35.9-11.8-72.6-21.2-107-37.3c-12.9-29.6-15.3-61.9-22.8-92.9c-2.7-11.1-6.8-22-6.1-33.7C816.7-137.4,868.7-137.4,920.8-137.4
			L920.8-137.4z"/>
		<path class="st3" d="M1440.4,317.9c-24.4,3.9-46.1,15.8-69.2,23.6c-29.9,10.1-58.6,23.8-89.2,31.9c4.3-27.1,13.3-53,20.1-79.5
			c13.2-51.6,26.9-103.1,40.4-154.7c1,0,2,0.1,3,0.1c25.5,46.8,50.5,93.9,76.7,140.3c5.2,9.3,7.4,21.2,18.1,27
			C1440.3,310.3,1440.4,314.1,1440.4,317.9L1440.4,317.9z"/>
		<path class="st15" d="M1438.1-16.5c0.7,0,1.5-0.1,2.2-0.1c0,54.8,0,109.7,0,164.5c-31.6-2.8-63.2-5.7-94.7-8.5c-1,0-2-0.1-3-0.1
			l0,0c2.1-8.1,7.3-14.5,11.6-21.4C1382,72.9,1410,28.2,1438.1-16.5L1438.1-16.5z"/>
		<path class="st0" d="M1345.5,139.3c31.6,2.8,63.2,5.7,94.7,8.5c0,52.9,0,105.8,0.1,158.7c-10.7-5.8-12.9-17.7-18.1-27
			C1396.1,233.2,1371,186.1,1345.5,139.3L1345.5,139.3z"/>
		<path class="st0" d="M1166.8,47c2.1-28.1,4.1-56.2,6.2-84.3c2.5-33.3,7.6-66.5,7.8-100.1c0.9-0.4,1.9-0.4,2.8,0
			c17.1,30.7,31.5,62.9,52,91.8c-10.4,25.8-30.8,45-46,67.6C1183.3,31.2,1178.6,42.6,1166.8,47L1166.8,47z"/>
		<path class="st16" d="M683.9,324c-1,0.1-2,0.3-3,0.4c-34.4-18.3-68.4-37.3-103.2-54.7c-29.2-14.6-56.6-32.9-87.6-43.9
			c2.9-2.9,5.8-5.8,8.7-8.7c37.5-24.3,74.7-48.9,112.6-72.6c11.3-7.1,21.5-16.4,34.9-19.7c2.9,0.3,5.8,0.4,8.6,0.8
			c55.6,7.5,111.3,15,166.9,22.4c4.3,0.6,9.7,4,12.3-3c2.9,0.8,4.7,2.6,5.5,5.5c-0.1,2-0.2,4.1-0.3,6.1c-1.8,0-3.6-0.1-5.3-0.1
			c-5.4,0.6-7.7,5-10.9,8.6c-23,26.3-46.3,52.4-69.4,78.7C730.5,270.5,707.2,297.3,683.9,324L683.9,324z"/>
		<path class="st6" d="M423,355.3c-0.7,0.1-1.4,0.2-2.1,0.4c-32.9-34.5-65-69.8-96.1-106c-1.8-2.1-5.1-4.8-3-7.6
			c6-8.1-5.1-3.9-5-7.6C357.3,165.2,397.7,96,438.1,26.7c17.6,61.7,30.7,124.4,46.6,186.5c0.7,2.7,1.6,5.4-0.4,8.2
			c-0.8,1.1-6.1,0.9-1.8,4c1.3,0.9,3.7,0.4,5.6,0.6c-3.5,7.3-6.8,14.8-10.6,21.9C458.8,283.5,439.6,318.7,423,355.3L423,355.3z"/>
		<path class="st13" d="M423,355.3c16.5-36.6,35.8-71.8,54.4-107.4c3.8-7.2,7.1-14.6,10.6-21.9c0.7,0,1.4-0.1,2.1-0.2
			c31,11,58.4,29.3,87.6,43.9c34.8,17.4,68.8,36.4,103.2,54.7c0,0.7,0,1.3,0,2c-3.9,1.1-7.8,2.2-11.6,3.3c-4.2-3.1-9-3.2-13.8-2.6
			c-65.6,8.2-131.2,16.6-196.8,24.8C446.9,353.3,435,354.2,423,355.3L423,355.3z"/>
		<path class="st4" d="M646.4,124.8c-13.5,3.3-23.7,12.6-34.9,19.7c-37.8,23.7-75.1,48.3-112.6,72.6c2-16.1,13.1-27.6,20.8-40.6
			c25.7-43.4,52.4-86.2,78.6-129.2c2.6-4.2,5-8.2,10.4-9c2.6,4.5,5.6,8.8,7.7,13.5c10.1,22.5,20,45.1,29.9,67.7
			C646.3,121.2,646.3,123,646.4,124.8L646.4,124.8z"/>
		<path class="st6" d="M646.3,119.4c-10-22.6-19.8-45.2-29.9-67.7c-2.1-4.7-5.1-9-7.7-13.5c0-1.9-0.1-3.8-0.1-5.7
			C666.3,19,724.1,5.6,781.8-8c-1.1,1.6-1.9,3.4-3.2,4.7c-41.6,39.5-83.2,79-124.9,118.4C651.7,117.1,648.8,118,646.3,119.4
			L646.3,119.4z"/>
		<path class="st4" d="M316.8,234.4c0,3.7,11.2-0.3,5.2,7.8c-2.1,2.8,1,5.3,2.8,7.4c31.1,36.2,63.2,71.5,96.1,106
			c-19.6,17-42.9,28.4-64.4,42.5c-29.2,19-59,37.3-88.5,55.8c-1-0.1-2-0.3-3-0.4c5.2-35.3,10.4-70.6,15.5-105.9
			c1.5-9.9,2.9-19.8,4.3-29.6c9.5-25.7,20.4-50.9,26.5-77.8c0.7-1.9,1.2-3.7,1.9-5.6C314.3,234.5,315.6,234.5,316.8,234.4
			L316.8,234.4z"/>
		<path class="st3" d="M839.5,156.6c0.1-2,0.2-4.1,0.3-6.1c25,2,50.1,4,75.1,6c0.9,1,1.9,1.9,2.8,2.9c-0.9,4.2-2.2,8.3-2.6,12.5
			c-3.2,34.7-6.2,69.5-9.4,104.2c-0.7,7-5.9,16.6-0.3,20.3c6.3,4.2,13.6-4.1,20.2-7.5c50.3-25.9,100.5-52,150.7-78
			c2-0.9,4-1.8,6.1-2.6c1,1.9,2,3.7,3.1,5.6c8.6,56.8,17.3,113.7,25.9,170.5l0,0c-29.9-7.5-57.8-20.6-86.5-31.6
			c-35.4-13.6-70.8-27.6-106.1-41.5c-10.2-4-15.8-5.1-13.1,9.9c11.7,64.7,22.3,129.6,33.4,194.3c0.8,4.8,2.2,9.4-1.3,13.7
			c-49-68.4-98.1-136.9-147.2-205.3c0-1,0-2,0-3h-0.1c31.2-1.9,61.4-10.2,92.2-14.5c15.4-2.2,16.7-5.2,10.6-19.9
			C875.3,243.3,857.5,199.9,839.5,156.6L839.5,156.6z"/>
		<path class="st11" d="M790.7,321c0,1,0,2,0,3c-0.8,0-1.6,0.1-2.5,0.1c-0.2-1-0.4-2.1-0.6-3.1C788.6,321,789.6,321,790.7,321
			L790.7,321z"/>
		<path class="st13" d="M790.7,321c-1,0-2.1,0-3.2,0c-34.5,1-69.1,2-103.6,3c23.3-26.7,46.5-53.5,69.9-80.1
			c23.1-26.3,46.4-52.4,69.4-78.7c3.2-3.6,5.5-8,10.9-8.6c-7.7,28.1-15.7,56.1-22.8,84.3C804.6,267.6,794.4,293.5,790.7,321
			L790.7,321L790.7,321z"/>
		<path class="st0" d="M1232.7,523.1c-1.8,1-3.5,2-5.3,2.9c-0.8-4.5-3.9-7.5-6.7-10.9c-14-16.4-27.6-33-41.8-49.2
			c-21.4-24.4-43.1-48.6-64.7-72.9c-0.9-1.9-1.9-3.9-2.8-5.8c0-1-0.1-2-0.1-2.9l0,0c4.7-0.9,9.4-2.6,14.1-2.6
			c49.3,0.1,98.5-4.7,147.8-6c2,0,3.9,0,5.9,0.1c0,0.9,0.1,1.7,0.1,2.6C1263.6,426.7,1248.2,474.9,1232.7,523.1z"/>
		<path class="st6" d="M1114.3,393.1c21.6,24.3,43.3,48.4,64.7,72.9c14.2,16.2,27.8,32.8,41.8,49.2c2.8,3.3,5.8,6.4,6.7,10.9
			c-17.4,7.7-34.9,15.4-52.4,23.1c-1.9-0.2-3.8-0.4-5.7-0.5c-17.5-48.6-35-97.2-52.5-145.8C1115.8,399.6,1115.1,396.3,1114.3,393.1
			L1114.3,393.1z"/>
		<path class="st15" d="M1279,375.9c-2,0-3.9,0-5.9-0.1c-3.9-4.2-7.4-8.8-11.8-12.5c-39.5-34-78.8-68.3-118.8-101.7
			c-19-15.9-36.4-33.9-57.2-47.7c-1-1.9-2-3.7-3.1-5.6c0.1-0.9,0.3-1.8,0.5-2.7c4.7-0.8,9.5-1.1,14.1-2.4
			c47.2-12.8,94.2-26.1,141.4-38.4c33.8-8.8,66.8-20.6,101.5-25.9c0.9,0,1.7,0.1,2.6,0.1l0,0c-13.5,51.6-27.2,103-40.4,154.7
			c-6.8,26.5-15.8,52.4-20.1,79.5C1281,374.2,1280,375.1,1279,375.9L1279,375.9z"/>
		<path class="st13" d="M646.3,119.4c2.5-1.4,5.4-2.3,7.4-4.2c41.7-39.4,83.3-79,124.9-118.5c1.3-1.3,2.2-3.1,3.2-4.7
			c2.9,0,5.8,0,8.6,0c1.2,4.6,2.2,9.3,3.5,13.9c12.8,46.5,29.2,92,40.3,139c-2.7,6.9-8.1,3.5-12.3,3
			c-55.7-7.4-111.3-14.9-166.9-22.4c-2.8-0.4-5.7-0.5-8.6-0.8C646.3,122.9,646.3,121.2,646.3,119.4L646.3,119.4z"/>
		<path class="st12" d="M834.2,145C823,98,806.7,52.5,793.9,6c-1.3-4.6-2.3-9.3-3.5-13.9c1.1-1,2.1-1.9,3.2-2.9
			c34.4,16.1,71.1,25.6,107,37.3l-0.2,0.2c4.8,43.3,9.6,86.6,14.4,129.9v-0.1c-25-2-50.1-4-75.1-6C839,147.6,837.1,145.8,834.2,145
			L834.2,145z"/>
		<path class="st12" d="M1342.5,139.2c-0.9-0.1-1.7-0.1-2.6-0.1c-12.7-11.6-29.3-16-44.2-23.5c-43.2-22-87.5-41.9-129.8-65.8
			c0.3-0.9,0.6-1.8,0.8-2.6c11.9-4.4,16.5-15.8,22.8-25c15.3-22.6,35.6-41.8,46-67.6c0.7-0.2,1.3-0.3,2-0.3c5.2,3.8,11.5,5,17.6,5.7
			c59.8,7,119.6,13.8,179.3,20.7c1.2,1,2.3,2,3.5,3c-28,44.8-56.1,89.5-84,134.3C1349.8,124.6,1344.6,131.1,1342.5,139.2
			L1342.5,139.2z"/>
		<path class="st4" d="M900.6,26.5c4.7-38.8,9.5-77.7,14.2-116.5c1.9-15.2,3.9-30.3,5.8-45.4c46.1,35.2,92.3,70.2,138.2,105.5
			c34.1,26.3,67.9,53,101.8,79.6c-1.1,0.2-2.3,0.4-3.4,0.6c-31.1-0.3-61.8-4.7-92.7-8.3c-54.5-6.5-109.4-10.3-164.2-15.3L900.6,26.5
			L900.6,26.5z"/>
		<path class="st13" d="M1165.9,49.7c42.2,23.9,86.5,43.8,129.8,65.8c14.9,7.6,31.5,11.9,44.2,23.5c-34.7,5.3-67.7,17.1-101.5,25.9
			c-47.3,12.3-94.3,25.6-141.4,38.4c-4.6,1.2-9.4,1.6-14.1,2.4c25.9-49.1,51.9-98.1,77.8-147.2c1-3,2.1-5.9,3.1-8.9
			C1164.4,49.6,1165.2,49.6,1165.9,49.7L1165.9,49.7z"/>
		<path class="st0" d="M1163.7,49.6c-1,3-2.1,5.9-3.1,8.8c-1.1-1-2.1-2.1-3.2-3.1c0-1.7-0.1-3.3-0.1-5c1.1-0.2,2.3-0.4,3.4-0.6
			C1161.7,49.7,1162.7,49.6,1163.7,49.6L1163.7,49.6z"/>
		<path class="st11" d="M790.6,321c3.8-27.6,14-53.5,20.8-80.2c7.1-28.2,15.2-56.2,22.8-84.3c1.8,0,3.6,0.1,5.3,0.1
			c17.9,43.3,35.8,86.7,53.8,130c6.1,14.7,4.8,17.8-10.6,19.9C852,310.8,821.8,319.1,790.6,321L790.6,321z"/>
		<path class="st12" d="M1157.4,55.3c1.1,1.1,2.1,2.1,3.2,3.1c-25.9,49.1-51.9,98.1-77.8,147.2c-0.2,0.9-0.4,1.8-0.5,2.7
			c-2,0.9-4,1.8-6.1,2.6c-2.4-4.2-6.6-5.3-10.8-6.6c-49.2-15-98.5-30-147.8-44.9c-0.9-1-1.9-1.9-2.8-2.9v0.1
			c8.9-3.5,17.9-6.8,26.7-10.5C1013.5,115.9,1085.5,85.6,1157.4,55.3L1157.4,55.3z"/>
		<path class="st8" d="M1085.4,213.9c20.8,13.9,38.2,31.8,57.2,47.7c40,33.5,79.3,67.7,118.8,101.7c4.3,3.7,7.8,8.3,11.8,12.5
			c-49.3,1.3-98.4,6.2-147.8,6c-4.7,0-9.4,1.7-14.1,2.6C1102.7,327.6,1094,270.8,1085.4,213.9L1085.4,213.9z"/>
		<path class="st4" d="M917.7,159.4c49.3,15,98.5,30,147.8,44.9c4.2,1.3,8.4,2.4,10.8,6.6c-50.2,26-100.4,52-150.7,78
			c-6.6,3.4-13.8,11.7-20.2,7.5c-5.7-3.7-0.4-13.3,0.3-20.3c3.2-34.7,6.2-69.5,9.4-104.2C915.5,167.7,916.8,163.6,917.7,159.4
			L917.7,159.4z"/>
		<path class="st13" d="M1157.4,55.3c-71.9,30.3-143.9,60.5-215.8,90.7c-8.8,3.7-17.8,7-26.7,10.5c-4.8-43.3-9.6-86.6-14.4-129.9
			c54.7,5,109.6,8.8,164.1,15.3c30.9,3.6,61.6,8,92.7,8.3C1157.3,52,1157.4,53.7,1157.4,55.3z"/>
	</g>
</g>
<rect x="23.8" y="52.7" class="st17" width="1405.6" height="504"/>
</svg>
