<svg xmlns="http://www.w3.org/2000/svg" version="1.1" xmlns:xlink="http://www.w3.org/1999/xlink" xmlns:svgjs="http://svgjs.dev/svgjs" width="1440" height="560" preserveAspectRatio="none" viewBox="0 0 1440 560"><g mask="url(&quot;#SvgjsMask1060&quot;)" fill="none"><rect width="1440" height="560" x="0" y="0" fill="rgba(54, 179, 186, 1)"></rect><path d="M0,576.602C115.187,585.949,229.734,568.838,335.188,521.562C453.137,468.684,600.202,414.841,637.133,290.969C674.59,165.334,535.5,55.385,512.662,-73.71C490.949,-196.443,594.391,-350.362,507.813,-440.023C419.798,-531.173,261.274,-443.744,136.138,-463.643C32.704,-480.091,-56.285,-557.633,-160.402,-546.28C-273.383,-533.96,-390.652,-488.638,-460.048,-398.634C-528.507,-309.845,-497.786,-184.39,-523.559,-75.276C-552.654,47.905,-668.879,166.446,-621.215,283.699C-573.866,400.178,-415.687,416.237,-301.96,469.859C-203.402,516.329,-108.607,567.789,0,576.602" fill="#237479"></path><path d="M1440 903.8910000000001C1522.388 901.29 1605.0149999999999 967.415 1680.394 934.06 1756.566 900.354 1785.568 809.344 1822.45 734.659 1860.402 657.808 1908.605 579.209 1897.6100000000001 494.206 1886.568 408.837 1833.863 329.323 1763.591 279.607 1698.951 233.87599999999998 1609.8609999999999 262.386 1534.706 237.45999999999998 1455.462 211.17700000000002 1397.314 127.60500000000002 1313.873 130.45 1225.7649999999999 133.454 1131.467 177.58300000000003 1085.445 252.776 1040.008 327.015 1084.923 421.586 1082.435 508.59000000000003 1080.297 583.338 1054.184 655.466 1071.851 728.1279999999999 1092.011 811.043 1112.646 912.787 1189.651 949.5509999999999 1267.783 986.8530000000001 1353.463 906.623 1440 903.8910000000001" fill="#6fd0d5"></path></g><defs><mask id="SvgjsMask1060"><rect width="1440" height="560" fill="#ffffff"></rect></mask></defs></svg>