<?xml version="1.0" encoding="UTF-8"?>
<svg id="Capa_1" data-name="Capa 1" xmlns="http://www.w3.org/2000/svg" viewBox="0 0 1440 560">
  <defs>
    <style>
      .cls-1 {
        fill: #fff;
      }

      .cls-2 {
        fill: #a3e0e2;
      }

      .cls-3 {
        fill: #36b2b9;
      }

      .cls-4 {
        fill: #136e77;
      }

      .cls-5 {
        fill: #1b7f87;
      }

      .cls-6 {
        fill: #248f97;
      }

      .cls-7 {
        fill: #298386;
      }

      .cls-8 {
        fill: #309a9f;
      }

      .cls-9 {
        fill: none;
      }

      .cls-10 {
        fill: #156f78;
      }

      .cls-11 {
        fill: #1b7e86;
      }

      .cls-12 {
        fill: #fefefe;
      }
    </style>
  </defs>
  <g id="Capa_1-2" data-name="Capa 1">
    <g>
      <rect class="cls-9" width="1440" height="560"/>
      <path class="cls-9" d="M35,162.8l64.9,37.5v75l-64.9,37.5-64.9-37.5v-75l64.9-37.5ZM229.9,50.3l65,37.5v75l-65,37.5-64.9-37.5V87.8l64.9-37.5Zm0,225l65,37.5v75l-65,37.5-64.9-37.5v-75l64.9-37.5ZM294.8-62.2l65,37.5V50.3l-65,37.5-65-37.5V-24.7l65-37.5Zm194.9,337.5l65,37.5v75l-65,37.5-65-37.5v-75l65-37.5Zm0,225l65,37.5v75l-65,37.5-65-37.5v-75l65-37.5Zm259.8,0l65,37.5v75l-65,37.5-65-37.5v-75l65-37.5Zm65-337.5l65,37.5v75l-65,37.5-65-37.5v-75l65-37.5Zm324.7,112.5l65,37.5v75l-65,37.5-64.9-37.5v-75l64.9-37.5Zm65-337.5l64.9,37.5V50.3l-64.9,37.5-65-37.5V-24.7l65-37.5Zm64.9,337.5l64.9,37.5v75l-64.9,37.5-64.9-37.5v-75l64.9-37.5Zm-64.9,112.5l64.9,37.5v75l-64.9,37.5-65-37.5v-75l65-37.5ZM1399,50.3l64.9,37.5v75l-64.9,37.5-65-37.5V87.8l65-37.5Zm129.9,0l65,37.5v75l-65,37.5-65-37.5V87.8l65-37.5Zm0,225l65,37.5v75l-65,37.5-65-37.5v-75l65-37.5Zm0,225l65,37.5v75l-65,37.5-65-37.5v-75l65-37.5Z"/>
      <path class="cls-9" d="M27.5,162.8c0,4.1,3.4,7.5,7.5,7.5s7.5-3.4,7.5-7.5-3.4-7.5-7.5-7.5-7.5,3.4-7.5,7.5Zm65,37.5c0,4.1,3.4,7.5,7.5,7.5s7.5-3.4,7.5-7.5-3.4-7.5-7.5-7.5-7.5,3.4-7.5,7.5Zm0,75c0,4.1,3.4,7.5,7.5,7.5s7.5-3.4,7.5-7.5-3.4-7.5-7.5-7.5-7.5,3.4-7.5,7.5Zm-65,37.5c0,4.1,3.4,7.5,7.5,7.5s7.5-3.4,7.5-7.5-3.4-7.5-7.5-7.5-7.5,3.4-7.5,7.5Zm-64.9-37.5c0,4.1,3.4,7.5,7.5,7.5s7.5-3.4,7.5-7.5-3.4-7.5-7.5-7.5-7.5,3.4-7.5,7.5Zm0-75c0,4.1,3.4,7.5,7.5,7.5s7.5-3.4,7.5-7.5-3.4-7.5-7.5-7.5-7.5,3.4-7.5,7.5ZM222.4,50.3c0,4.1,3.4,7.5,7.5,7.5s7.5-3.4,7.5-7.5-3.4-7.5-7.5-7.5-7.5,3.4-7.5,7.5Zm64.9,37.5c0,4.1,3.4,7.5,7.5,7.5s7.5-3.4,7.5-7.5-3.4-7.5-7.5-7.5-7.5,3.4-7.5,7.5Zm0,75c0,4.1,3.4,7.5,7.5,7.5s7.5-3.4,7.5-7.5-3.4-7.5-7.5-7.5-7.5,3.4-7.5,7.5Zm-64.9,37.5c0,4.1,3.4,7.5,7.5,7.5s7.5-3.4,7.5-7.5-3.4-7.5-7.5-7.5-7.5,3.4-7.5,7.5Zm-65-37.5c0,4.1,3.4,7.5,7.5,7.5s7.5-3.4,7.5-7.5-3.4-7.5-7.5-7.5-7.5,3.4-7.5,7.5Zm0-75c0,4.1,3.4,7.5,7.5,7.5s7.5-3.4,7.5-7.5-3.4-7.5-7.5-7.5-7.5,3.4-7.5,7.5Zm65,187.5c0,4.1,3.4,7.5,7.5,7.5s7.5-3.4,7.5-7.5-3.4-7.5-7.5-7.5-7.5,3.4-7.5,7.5Zm64.9,37.5c0,4.1,3.4,7.5,7.5,7.5s7.5-3.4,7.5-7.5-3.4-7.5-7.5-7.5-7.5,3.4-7.5,7.5Zm0,75c0,4.1,3.4,7.5,7.5,7.5s7.5-3.4,7.5-7.5-3.4-7.5-7.5-7.5-7.5,3.4-7.5,7.5Zm-64.9,37.5c0,4.1,3.4,7.5,7.5,7.5s7.5-3.4,7.5-7.5-3.4-7.5-7.5-7.5-7.5,3.4-7.5,7.5Zm-65-37.5c0,4.1,3.4,7.5,7.5,7.5s7.5-3.4,7.5-7.5-3.4-7.5-7.5-7.5-7.5,3.4-7.5,7.5Zm0-75c0,4.1,3.4,7.5,7.5,7.5s7.5-3.4,7.5-7.5-3.4-7.5-7.5-7.5-7.5,3.4-7.5,7.5ZM287.3-62.2c0,4.1,3.4,7.5,7.5,7.5s7.5-3.4,7.5-7.5-3.4-7.5-7.5-7.5-7.5,3.4-7.5,7.5Zm65,37.5c0,4.1,3.4,7.5,7.5,7.5s7.5-3.4,7.5-7.5-3.4-7.5-7.5-7.5-7.5,3.4-7.5,7.5Zm0,75c0,4.1,3.4,7.5,7.5,7.5s7.5-3.4,7.5-7.5-3.4-7.5-7.5-7.5-7.5,3.4-7.5,7.5ZM222.4-24.7c0,4.1,3.4,7.5,7.5,7.5s7.5-3.4,7.5-7.5-3.4-7.5-7.5-7.5-7.5,3.4-7.5,7.5ZM482.2,275.3c0,4.1,3.4,7.5,7.5,7.5s7.5-3.4,7.5-7.5-3.4-7.5-7.5-7.5-7.5,3.4-7.5,7.5Zm64.9,37.5c0,4.1,3.4,7.5,7.5,7.5s7.5-3.4,7.5-7.5-3.4-7.5-7.5-7.5-7.5,3.4-7.5,7.5Zm0,75c0,4.1,3.4,7.5,7.5,7.5s7.5-3.4,7.5-7.5-3.4-7.5-7.5-7.5-7.5,3.4-7.5,7.5Zm-64.9,37.5c0,4.1,3.4,7.5,7.5,7.5s7.5-3.4,7.5-7.5-3.4-7.5-7.5-7.5-7.5,3.4-7.5,7.5Zm-65-37.5c0,4.1,3.4,7.5,7.5,7.5s7.5-3.4,7.5-7.5-3.4-7.5-7.5-7.5-7.5,3.4-7.5,7.5Zm0-75c0,4.1,3.4,7.5,7.5,7.5s7.5-3.4,7.5-7.5-3.4-7.5-7.5-7.5-7.5,3.4-7.5,7.5Zm65,187.5c0,4.1,3.4,7.5,7.5,7.5s7.5-3.4,7.5-7.5h0c0-4.1-3.4-7.5-7.5-7.5s-7.5,3.4-7.5,7.5h0Zm64.9,37.5c0,4.1,3.4,7.5,7.5,7.5s7.5-3.4,7.5-7.5-3.4-7.5-7.5-7.5-7.5,3.4-7.5,7.5Zm0,75c0,4.1,3.4,7.5,7.5,7.5s7.5-3.4,7.5-7.5-3.4-7.5-7.5-7.5-7.5,3.4-7.5,7.5Zm-64.9,37.5c0,4.1,3.4,7.5,7.5,7.5s7.5-3.4,7.5-7.5h0c0-4.1-3.4-7.5-7.5-7.5s-7.5,3.4-7.5,7.5h0Zm-65-37.5c0,4.1,3.4,7.5,7.5,7.5s7.5-3.4,7.5-7.5-3.4-7.5-7.5-7.5-7.5,3.4-7.5,7.5Zm0-75c0,4.1,3.4,7.5,7.5,7.5s7.5-3.4,7.5-7.5-3.4-7.5-7.5-7.5-7.5,3.4-7.5,7.5Zm324.8-37.5c0,4.1,3.4,7.5,7.5,7.5s7.5-3.4,7.5-7.5h0c0-4.1-3.4-7.5-7.5-7.5s-7.5,3.4-7.5,7.5h0Zm65,37.5c0,4.1,3.4,7.5,7.5,7.5s7.5-3.4,7.5-7.5-3.4-7.5-7.5-7.5-7.5,3.4-7.5,7.5Zm0,75c0,4.1,3.4,7.5,7.5,7.5s7.5-3.4,7.5-7.5-3.4-7.5-7.5-7.5-7.5,3.4-7.5,7.5Zm-65,37.5c0,4.1,3.4,7.5,7.5,7.5s7.5-3.4,7.5-7.5h0c0-4.1-3.4-7.5-7.5-7.5s-7.5,3.4-7.5,7.5h0Zm-65-37.5c0,4.1,3.4,7.5,7.5,7.5s7.5-3.4,7.5-7.5-3.4-7.5-7.5-7.5-7.5,3.4-7.5,7.5Zm0-75c0,4.1,3.4,7.5,7.5,7.5s7.5-3.4,7.5-7.5-3.4-7.5-7.5-7.5-7.5,3.4-7.5,7.5Zm130-375c0,4.1,3.4,7.5,7.5,7.5s7.5-3.4,7.5-7.5-3.4-7.5-7.5-7.5-7.5,3.4-7.5,7.5Zm64.9,37.5c0,4.1,3.4,7.5,7.5,7.5s7.5-3.4,7.5-7.5-3.4-7.5-7.5-7.5-7.5,3.4-7.5,7.5Zm0,75c0,4.1,3.4,7.5,7.5,7.5s7.5-3.4,7.5-7.5-3.4-7.5-7.5-7.5-7.5,3.4-7.5,7.5Zm-64.9,37.5c0,4.1,3.4,7.5,7.5,7.5s7.5-3.4,7.5-7.5-3.4-7.5-7.5-7.5-7.5,3.4-7.5,7.5Zm-65-37.5c0,4.1,3.4,7.5,7.5,7.5s7.5-3.4,7.5-7.5-3.4-7.5-7.5-7.5-7.5,3.4-7.5,7.5Zm0-75c0,4.1,3.4,7.5,7.5,7.5s7.5-3.4,7.5-7.5-3.4-7.5-7.5-7.5-7.5,3.4-7.5,7.5Zm389.7,75c0,4.1,3.4,7.5,7.5,7.5s7.5-3.4,7.5-7.5-3.4-7.5-7.5-7.5-7.5,3.4-7.5,7.5Zm65,37.5c0,4.1,3.4,7.5,7.5,7.5s7.5-3.4,7.5-7.5-3.4-7.5-7.5-7.5-7.5,3.4-7.5,7.5Zm0,75c0,4.1,3.4,7.5,7.5,7.5s7.5-3.4,7.5-7.5-3.4-7.5-7.5-7.5-7.5,3.4-7.5,7.5Zm-65,37.5c0,4.1,3.4,7.5,7.5,7.5s7.5-3.4,7.5-7.5-3.4-7.5-7.5-7.5-7.5,3.4-7.5,7.5Zm-64.9-37.5c0,4.1,3.4,7.5,7.5,7.5s7.5-3.4,7.5-7.5-3.4-7.5-7.5-7.5-7.5,3.4-7.5,7.5Zm0-75c0,4.1,3.4,7.5,7.5,7.5s7.5-3.4,7.5-7.5-3.4-7.5-7.5-7.5-7.5,3.4-7.5,7.5ZM1196.7-62.2c0,4.1,3.4,7.5,7.5,7.5s7.5-3.4,7.5-7.5-3.4-7.5-7.5-7.5-7.5,3.4-7.5,7.5Zm64.9,37.5c0,4.1,3.4,7.5,7.5,7.5s7.5-3.4,7.5-7.5-3.4-7.5-7.5-7.5-7.5,3.4-7.5,7.5Zm0,75c0,4.1,3.4,7.5,7.5,7.5s7.5-3.4,7.5-7.5-3.4-7.5-7.5-7.5-7.5,3.4-7.5,7.5Zm-64.9,37.5c0,4.1,3.4,7.5,7.5,7.5s7.5-3.4,7.5-7.5-3.4-7.5-7.5-7.5-7.5,3.4-7.5,7.5Zm-65-37.5c0,4.1,3.4,7.5,7.5,7.5s7.5-3.4,7.5-7.5-3.4-7.5-7.5-7.5-7.5,3.4-7.5,7.5Zm0-75c0,4.1,3.4,7.5,7.5,7.5s7.5-3.4,7.5-7.5-3.4-7.5-7.5-7.5-7.5,3.4-7.5,7.5Zm129.9,300c0,4.1,3.4,7.5,7.5,7.5s7.5-3.4,7.5-7.5-3.4-7.5-7.5-7.5-7.5,3.4-7.5,7.5Zm65,37.5c0,4.1,3.4,7.5,7.5,7.5s7.5-3.4,7.5-7.5-3.4-7.5-7.5-7.5-7.5,3.4-7.5,7.5Zm0,75c0,4.1,3.4,7.5,7.5,7.5s7.5-3.4,7.5-7.5-3.4-7.5-7.5-7.5-7.5,3.4-7.5,7.5Zm-65,37.5c0,4.1,3.4,7.5,7.5,7.5s7.5-3.4,7.5-7.5-3.4-7.5-7.5-7.5-7.5,3.4-7.5,7.5Zm0,75c0,4.1,3.4,7.5,7.5,7.5s7.5-3.4,7.5-7.5h0c0-4.1-3.4-7.5-7.5-7.5s-7.5,3.4-7.5,7.5h0Zm-64.9,37.5c0,4.1,3.4,7.5,7.5,7.5s7.5-3.4,7.5-7.5-3.4-7.5-7.5-7.5-7.5,3.4-7.5,7.5Zm-65-37.5c0,4.1,3.4,7.5,7.5,7.5s7.5-3.4,7.5-7.5h0c0-4.1-3.4-7.5-7.5-7.5s-7.5,3.4-7.5,7.5h0ZM1391.5,50.3c0,4.1,3.4,7.5,7.5,7.5s7.5-3.4,7.5-7.5-3.4-7.5-7.5-7.5-7.5,3.4-7.5,7.5Zm65,37.5c0,4.1,3.4,7.5,7.5,7.5s7.5-3.4,7.5-7.5-3.4-7.5-7.5-7.5-7.5,3.4-7.5,7.5Zm0,75c0,4.1,3.4,7.5,7.5,7.5s7.5-3.4,7.5-7.5-3.4-7.5-7.5-7.5-7.5,3.4-7.5,7.5Zm-65,37.5c0,4.1,3.4,7.5,7.5,7.5s7.5-3.4,7.5-7.5-3.4-7.5-7.5-7.5-7.5,3.4-7.5,7.5Zm-64.9-37.5c0,4.1,3.4,7.5,7.5,7.5s7.5-3.4,7.5-7.5-3.4-7.5-7.5-7.5-7.5,3.4-7.5,7.5Zm0-75c0,4.1,3.4,7.5,7.5,7.5s7.5-3.4,7.5-7.5-3.4-7.5-7.5-7.5-7.5,3.4-7.5,7.5Zm194.8-37.5c0,4.1,3.4,7.5,7.5,7.5s7.5-3.4,7.5-7.5-3.4-7.5-7.5-7.5-7.5,3.4-7.5,7.5Zm65,37.5c0,4.1,3.4,7.5,7.5,7.5s7.5-3.4,7.5-7.5-3.4-7.5-7.5-7.5-7.5,3.4-7.5,7.5Zm0,75c0,4.1,3.4,7.5,7.5,7.5s7.5-3.4,7.5-7.5-3.4-7.5-7.5-7.5-7.5,3.4-7.5,7.5Zm-65,37.5c0,4.1,3.4,7.5,7.5,7.5s7.5-3.4,7.5-7.5-3.4-7.5-7.5-7.5-7.5,3.4-7.5,7.5Zm0,75c0,4.1,3.4,7.5,7.5,7.5s7.5-3.4,7.5-7.5-3.4-7.5-7.5-7.5-7.5,3.4-7.5,7.5Zm65,37.5c0,4.1,3.4,7.5,7.5,7.5s7.5-3.4,7.5-7.5-3.4-7.5-7.5-7.5-7.5,3.4-7.5,7.5Zm0,75c0,4.1,3.4,7.5,7.5,7.5s7.5-3.4,7.5-7.5-3.4-7.5-7.5-7.5-7.5,3.4-7.5,7.5Zm-65,37.5c0,4.1,3.4,7.5,7.5,7.5s7.5-3.4,7.5-7.5-3.4-7.5-7.5-7.5-7.5,3.4-7.5,7.5Zm-64.9-37.5c0,4.1,3.4,7.5,7.5,7.5s7.5-3.4,7.5-7.5-3.4-7.5-7.5-7.5-7.5,3.4-7.5,7.5Zm0-75c0,4.1,3.4,7.5,7.5,7.5s7.5-3.4,7.5-7.5-3.4-7.5-7.5-7.5-7.5,3.4-7.5,7.5Zm64.9,187.5c0,4.1,3.4,7.5,7.5,7.5s7.5-3.4,7.5-7.5h0c0-4.1-3.4-7.5-7.5-7.5s-7.5,3.4-7.5,7.5h0Zm65,37.5c0,4.1,3.4,7.5,7.5,7.5s7.5-3.4,7.5-7.5-3.4-7.5-7.5-7.5-7.5,3.4-7.5,7.5Zm0,75c0,4.1,3.4,7.5,7.5,7.5s7.5-3.4,7.5-7.5-3.4-7.5-7.5-7.5-7.5,3.4-7.5,7.5Zm-65,37.5c0,4.1,3.4,7.5,7.5,7.5s7.5-3.4,7.5-7.5h0c0-4.1-3.4-7.5-7.5-7.5s-7.5,3.4-7.5,7.5h0Zm-64.9-37.5c0,4.1,3.4,7.5,7.5,7.5s7.5-3.4,7.5-7.5-3.4-7.5-7.5-7.5-7.5,3.4-7.5,7.5Zm0-75c0,4.1,3.4,7.5,7.5,7.5s7.5-3.4,7.5-7.5-3.4-7.5-7.5-7.5-7.5,3.4-7.5,7.5Z"/>
      <path class="cls-9" d="M91.8,370.9l43.3,25v50l-43.3,25-43.3-25v-50l43.3-25Zm0,150l43.3,25v50l-43.3,25-43.3-25v-50l43.3-25ZM178.4,220.9l43.3,25v50l-43.3,25-43.3-25v-50l43.3-25ZM221.7-4.1l43.3,25v50l-43.3,25-43.3-25V20.9L221.7-4.1Zm43.3,75l43.3,25v50l-43.3,25-43.3-25v-50l43.3-25Zm-43.3,75l43.3,25v50l-43.3,25-43.3-25v-50l43.3-25Zm0,300l43.3,25v50l-43.3,25-43.3-25v-50l43.3-25Zm86.7-300l43.3,25v50l-43.3,25-43.3-25v-50l43.3-25Zm43.2,75l43.3,25v50l-43.3,25-43.3-25v-50l43.3-25Zm-43.2,225l43.3,25v50l-43.3,25-43.3-25v-50l43.3-25Zm129.8-225l43.3,25v50l-43.3,25-43.3-25v-50l43.3-25Zm-43.2,75l43.3,25v50l-43.3,25-43.3-25v-50l43.3-25Zm43.2,75l43.3,25v50l-43.3,25-43.3-25v-50l43.3-25Zm-43.2,75l43.3,25v50l-43.3,25-43.3-25v-50l43.3-25Zm86.6-300l43.3,25v50l-43.3,25-43.3-25v-50l43.3-25Zm0,300l43.3,25v50l-43.3,25-43.3-25v-50l43.3-25Zm129.9,75l43.3,25v50l-43.3,25-43.3-25v-50l43.3-25Zm86.6-300l43.3,25v50l-43.3,25-43.3-25v-50l43.3-25Zm-43.3,75l43.3,25v50l-43.3,25-43.3-25v-50l43.3-25Zm43.3,225l43.3,25v50l-43.3,25-43.3-25v-50l43.3-25Zm86.6-450l43.3,25v50l-43.3,25-43.3-25v-50l43.3-25Zm-43.3,75l43.3,25v50l-43.3,25-43.3-25v-50l43.3-25Zm43.3,75l43.3,25v50l-43.3,25-43.3-25v-50l43.3-25Zm-43.3,225l43.3,25v50l-43.3,25-43.3-25v-50l43.3-25Zm43.3,75l43.3,25v50l-43.3,25-43.3-25v-50l43.3-25ZM828-4.1l43.3,25v50l-43.3,25-43.3-25V20.9l43.3-25Zm0,150l43.3,25v50l-43.3,25-43.3-25v-50l43.3-25ZM914.6-4.1l43.3,25v50l-43.3,25-43.3-25V20.9l43.3-25Zm43.3,75l43.3,25v50l-43.3,25-43.3-25v-50l43.3-25Zm0,300l43.3,25v50l-43.3,25-43.3-25v-50l43.3-25Zm43.3-225l43.3,25v50l-43.3,25-43.3-25v-50l43.3-25Zm43.3,75l43.3,25v50l-43.3,25-43.3-25v-50l43.3-25Zm-43.3,75l43.3,25v50l-43.3,25-43.3-25v-50l43.3-25Zm43.3,225l43.3,25v50l-43.3,25-43.3-25v-50l43.3-25Zm43.3-225l43.3,25v50l-43.3,25-43.3-25v-50l43.3-25Zm129.9,225l43.3,25v50l-43.3,25-43.3-25v-50l43.3-25Zm86.6-300l43.3,25v50l-43.3,25-43.3-25v-50l43.3-25Zm0,150l43.3,25v50l-43.3,25-43.3-25v-50l43.3-25Zm86.6-300l43.3,25v50l-43.3,25-43.3-25v-50l43.3-25Zm-43.3,225l43.3,25v50l-43.3,25-43.3-25v-50l43.3-25Zm0,150l43.3,25v50l-43.3,25-43.3-25v-50l43.3-25Zm129.9-375l43.3,25v50l-43.3,25-43.3-25v-50l43.3-25Z"/>
    </g>
  </g>
  <g id="Capa_2" data-name="Capa 2">
    <g>
      <path class="cls-12" d="M.2,441.3C.2,251.8,.3,62.3,0-127.2c0-8.9,1.3-11.3,11-11.3,472.4,.3,944.8,.3,1417.3,0,10,0,11.8,2.2,11.8,11.9-.3,295.1-.3,590.3,0,885.4,0,9.2-1.1,12.1-11.6,12.1-472.4-.4-944.8-.3-1417.3-.5-3.5,0-8.4,3.1-10.9-2.6H1417.6c3.6,0,7.3-.3,10.9,.1,6.3,.6,8.8-1.7,8.7-8.3-.4-32.6-.4-65.3-.6-97.9v-54.5c0-31.7,.1-63.5,.1-95.2,.2-12.7,.1-25.3,.6-38,.2-6.3-1.4-8.9-8.3-8.3-39.2,3.6-78.4,6.8-117.7,10.2-10.4-.3-20.6-2.3-30.5-5.3-26.6-8-53-17.9-81.1-5.1-3,1.4-7.1,.4-10.7,.5-32.7-15.6-67.1-26.9-100.5-40.7-18.4-7.6-37.2-14.2-55.6-21.5-5.1-2-9.3-1.3-14.1,.9-61.3,27.9-122.8,55.5-184.1,83.5-7.6,3.5-15.1,5.5-23.5,5.7-59.5,1.7-119,3.4-178.4,5.4-11.9,.4-23.4-.8-35-3.4-89.3-19.8-177.5-45-269.2-53.4-58.1-5.3-115.4-18.9-174.6-12.3-51.3,5.5-102.6,7.5-153.8,11.1Z"/>
      <path class="cls-4" d="M.2,441.3c51.2-3.6,102.5-5.6,153.5-11.3,59.2-6.5,116.5,7,174.6,12.3,91.6,8.4,179.8,33.6,269.2,53.4,11.6,2.6,23.1,3.8,35,3.4,59.5-2,118.9-3.7,178.4-5.4,8.3-.2,15.8-2.2,23.5-5.7,61.3-28,122.8-55.6,184.1-83.5,4.8-2.2,9.1-2.9,14.1-.9,18.5,7.3,37.3,13.9,55.6,21.5,33.4,13.9,67.9,25.1,100.5,40.7-3.2,1.5-6.3,3.5-9.7,4.4-45.1,12.2-90.1,25.2-135.5,36-47.3,11.2-95.2,20.3-142.8,30.1-26.9,5.6-53.7,14.7-80.8,15.6-67.9,2.3-135.9,1.6-203.9-2-2.2-.1-4.7-.2-6.6-1.1-57-26.3-116.3-47.4-173.5-73-18.8-8.4-33.7-6-50.7,3.6-31.5,17.7-64.2,33.1-95.8,50.4-12.3,6.8-26.9,10.5-35.8,22.8-3.6,.5-7.1,1.1-10.7,1.3-30.1,1.9-60.1,3.7-90.1-1.1-2.8-3.9-7.3-5.3-11.4-6.9-25.7-10.4-51.8-20.1-77.4-30.8-21.1-8.9-42.2-17.8-63.9-24.9,.1-16.2,.1-32.5,.1-48.9Z"/>
      <path class="cls-6" d="M812.7,604.6c-13.6,5.9-28.3,3.1-42.4,5-28.1,3.6-56.6,4.6-85,6-58.5,2.8-114.9,16.8-171.4,30.9-34.1,8.5-68.4,16.5-102.5,25.3-10.7,2.7-20.6-1.9-30.9-1.6-52.1,1.6-104.2-2.7-156.3-3.5-44.1-.7-88.1-6.4-132.1-9.9-14.4-1.1-28.9-1.4-43.3-2.4-16.2-1.1-32.3-3.8-48.6-3.4v-98c42.1,1.4,84.2-2.6,126.3,2.4,8.5,1,18,3,26.4-2.3,30,4.8,60.1,3,90.1,1.1,3.6-.2,7.1-.9,10.7-1.3,33.1,1.5,65.9-4.6,99-2.7,2.2,.1,4.4-.7,6.7-1,23-3.2,46.2-2.8,69.2-.7,35.8,3.1,71.5,8.5,107.2,12.7,26.4,3.1,52.9,5.3,79.1,9.2,42.7,6.4,85.4,13.3,127.9,21,23.3,4,47.3,5.3,69.9,13.2Z"/>
      <path class="cls-11" d="M152.9,553c-8.4,5.2-17.9,3.3-26.4,2.3-42.1-5-84.2-1-126.3-2.4v-62.6c21.8,7.1,42.8,16,63.9,24.9,25.6,10.8,51.6,20.5,77.4,30.8,4.1,1.7,8.6,3.1,11.4,7Z"/>
      <path class="cls-5" d="M812.7,604.6c-22.6-7.9-46.5-9.1-69.9-13.3-42.5-7.7-85.2-14.6-127.9-21-26.3-3.9-52.8-6.1-79.1-9.2-35.7-4.3-71.4-9.6-107.2-12.7-22.9-2-46.1-2.5-69.2,.7-2.2,.3-4.5,1.1-6.7,1-33.1-1.9-66,4.2-99,2.7,8.9-12.3,23.4-16,35.8-22.8,31.7-17.3,64.4-32.8,95.8-50.4,17-9.5,31.9-12,50.7-3.6,57.3,25.6,116.5,46.7,173.5,73,2,.9,4.4,1,6.6,1.1,67.9,3.6,136,4.3,203.9,2,27.1-.9,53.9-10,80.8-15.6,47.7-9.9,95.5-18.9,142.8-30.1,45.5-10.8,90.4-23.8,135.5-36,3.4-.9,6.5-2.9,9.7-4.4,3.6-.1,7.7,.9,10.7-.5,28-12.8,54.5-2.9,81.1,5.1,10,3,20.1,5,30.5,5.3,3.7,4.7,9.3,4.9,14.5,6.3,37,9.9,73.9,19.8,110.9,29.8,0,31.7-.1,63.5-.1,95.2-3.5,0-6.9,.1-10.4,.1-3.3-4.1-8.2-5.7-12.8-7.4-49.2-18-98.4-36-146.9-55.7-13.2-5.3-26.3-14.5-40.9-11.8-46,8.3-92,17.5-137.8,27-74.2,15.5-149.2,25.7-223.9,37.5-6,1-15.2-1.8-18.6,7.4-10.7,.2-21.6,.2-32.4,.3Z"/>
      <path class="cls-10" d="M1436.6,512c-37-9.9-73.9-19.9-110.9-29.8-5.1-1.4-10.8-1.6-14.5-6.3,39.2-3.4,78.5-6.6,117.7-10.2,6.9-.6,8.5,2,8.3,8.3-.6,12.7-.5,25.3-.6,38Z"/>
      <path class="cls-6" d="M845.3,604.4c3.4-9.2,12.6-6.5,18.6-7.4,74.8-11.8,149.7-22.1,223.9-37.5,45.8-9.5,91.7-18.7,137.8-27,14.5-2.6,27.7,6.5,40.9,11.8,48.5,19.7,97.7,37.6,146.9,55.7,4.6,1.7,9.5,3.3,12.8,7.4-21.4,9.8-44.4,15-66.6,22.3-39.5,13-79.5,24.8-119.1,37.4-6.4,2-12,2.4-18.3,0-58.7-22.5-117.6-44.5-176.1-67.4-14.9-5.8-30-7.1-45.3-5.6-27,2.7-54,4-81.1,5.2-24.9,1.2-49.7,3.4-74.4,5.1Z"/>
    </g>
  </g>
  <g>
    <path class="cls-7" d="M-2.51,819.71v-224.6c5.23-.52,8.21-4.51,11.95-7.48,14.26-11.32,27.1-24.34,42.39-34.43,43.28-28.57,80.38-25.54,119.11,8.92,16.09,14.32,32.77,28.12,51.24,39.45,24.04,14.75,42.31,13.38,65.17-3.18,29.61-21.45,50.69-51.07,73.79-78.34,31.31-36.95,69.64-52.67,116.12-44.9,37.91,6.34,75.67,4.51,113.5,4.25,16.19-.11,32.19-2.53,48.68-.89,33.79,3.37,65.61,14.49,98.02,23.01,30.82,8.1,60.52,8.14,90.28-2.85,34.35-12.69,66.76-29.53,98.93-46.79,58.29-31.29,118.94-44.99,184.57-27.32,45.16,12.15,89.48,8.28,132.55-9.67,55.48-23.12,111.75-25.06,168.92-6.93,8.68,2.75,17.37,5.67,26.64,5.9,.18,5.27,.51,10.53,.51,15.8,.03,124.26-.29,248.53,.43,372.78,.09,14.98-4.12,17.61-18.14,17.6-474.88-.38-949.76-.32-1424.64-.32Z"/>
    <path class="cls-1" d="M-2.51,68.15c0-64.73,.27-129.47-.27-194.2-.09-10.47,1.83-13.45,13.06-13.43,290.14,.38,580.29,.3,870.43,.3h559.15c-.21,81.63-.41,163.26-.62,244.88-4.95-2.87-10.24-5.28-14.8-8.68-33.82-25.23-68.63-48.87-105.73-69.17-53.31-29.16-108-45.72-167.65-19.99-14.07,6.07-27.53,13.57-41.23,20.48-39.87,20.11-80.78,30.03-124.72,13.6-7.15-2.67-14.89-3.77-22.32-5.74-44.64-11.82-87.16-4.94-129.18,12.6-42.85,17.89-87.72,23.9-133.99,17.43-32.38-4.53-63.84-13.57-95.92-19.52-49.82-9.23-97.45-6.6-143.62,18.72-40.25,22.07-80.93,44.29-125.91,56.24-21.42,5.69-42.82,8.93-65.3,4.54-36.5-7.12-68.39-24.94-101.18-40.81-35.74-17.3-73.35-24.95-112.99-22.13-19.09,1.36-38.15,3.22-57.22,4.85Z"/>
    <path class="cls-3" d="M-2.51,477.04v-207.33c15.12-7.9,25.79-21.25,38.82-31.73,44.39-35.7,89.6-47.61,138.84-5.94,14.97,12.67,31.11,24.01,47.08,35.45,23.66,16.95,48.82,21.49,75.57,7.24,13.55-7.22,26.82-14.84,38.52-24.99,37.03-32.1,77.07-58.63,126.37-68.22,40.48-7.87,80.48-18.01,120.83-26.36,37.52-7.76,75.4-7.12,111.31,9.99,8.65,4.12,17.85,7.07,26.71,10.76,31.25,13.04,62.87,20.55,96.13,7.24,12.02-4.81,24.25-9.1,36.22-14.04,22.24-9.17,44.61-18.48,69.24-16.65,26.58,1.98,51.77,10.33,75.83,21.34,41,18.76,81.29,16.92,122.61,.39,31.28-12.51,60.42-29.41,91.61-41.95,30.78-12.37,62.2-20.31,95.42-11.8,29.56,7.57,53.08,25.78,76.76,44.01,18.57,14.28,32.15,34.42,53.81,44.91,.07,46.04,.14,92.08,.22,138.12-17.15-13.09-33.77-26.95-51.55-39.13-38.36-26.27-84.93-31.98-125.72-.53-19.69,15.19-40.98,28.41-62.15,41.56-24.3,15.1-50.28,18.96-78.7,11.93-37.58-9.3-71.14-29.15-108.27-39.24-45.78-12.44-89.22-10.74-127.73,21.51-16.9,14.15-34.37,27.7-52.29,40.53-15.1,10.8-29.67,22.33-48.77,26.91-26.58,6.38-50.89-.73-74.2-10.84-43.33-18.78-88.03-23.43-133.85-15.14-36.86,6.67-73.46,6.77-110.21,1.46-35.5-5.13-67.88,1.78-96.41,23.61-17.5,13.39-33.73,28.46-51.37,41.66-37.46,28.03-61.93,33.49-101.75,.45-18.44-15.3-36.29-31.34-55.2-46.02-19.75-15.33-42.36-21.27-66.36-11.7-22.58,9-40.6,24.7-57.37,42.27-13.03,13.66-21.89,31.59-39.99,40.23Z"/>
    <path class="cls-2" d="M1439.16,209.39c-21.66-10.49-35.24-30.63-53.81-44.91-23.69-18.22-47.2-36.43-76.76-44.01-33.22-8.51-64.64-.57-95.42,11.8-31.19,12.54-60.33,29.44-91.61,41.95-41.32,16.53-81.61,18.36-122.61-.39-24.06-11.01-49.25-19.36-75.83-21.34-24.63-1.83-47,7.48-69.24,16.65-11.97,4.93-24.2,9.22-36.22,14.04-33.26,13.31-64.88,5.8-96.13-7.24-8.86-3.7-18.06-6.64-26.71-10.76-35.91-17.11-73.79-17.76-111.31-9.99-40.34,8.35-80.35,18.49-120.83,26.36-49.3,9.59-89.34,36.13-126.37,68.22-11.7,10.14-24.98,17.77-38.52,24.99-26.75,14.25-51.91,9.72-75.57-7.24-15.97-11.44-32.11-22.78-47.08-35.45-49.23-41.67-94.45-29.76-138.84,5.94-13.03,10.48-23.7,23.82-38.82,31.73,0-67.19,0-134.38,0-201.57,19.07-1.63,38.13-3.49,57.22-4.85,39.64-2.83,77.25,4.83,112.99,22.13,32.79,15.87,64.67,33.69,101.18,40.81,22.48,4.39,43.87,1.15,65.3-4.54,44.98-11.96,85.66-34.17,125.91-56.24,46.17-25.32,93.8-27.95,143.62-18.72,32.08,5.95,63.54,14.99,95.92,19.52,46.27,6.47,91.14,.46,133.99-17.43,42.01-17.54,84.54-24.42,129.18-12.6,7.43,1.97,15.16,3.06,22.32,5.74,43.94,16.43,84.85,6.51,124.72-13.6,13.7-6.91,27.16-14.41,41.23-20.48,59.65-25.73,114.34-9.17,167.65,19.99,37.1,20.29,71.9,43.94,105.73,69.17,4.55,3.4,9.85,5.81,14.8,8.68-.03,34.56-.05,69.12-.08,103.68Z"/>
    <path class="cls-8" d="M-2.51,477.04c18.1-8.64,26.96-26.58,39.99-40.23,16.77-17.57,34.79-33.27,57.37-42.27,24-9.57,46.61-3.63,66.36,11.7,18.91,14.68,36.76,30.72,55.2,46.02,39.82,33.04,64.29,27.58,101.75-.45,17.64-13.2,33.87-28.26,51.37-41.66,28.54-21.84,60.91-28.74,96.41-23.61,36.74,5.31,73.35,5.2,110.21-1.46,45.82-8.29,90.52-3.64,133.85,15.14,23.32,10.11,47.63,17.22,74.2,10.84,19.09-4.59,33.67-16.11,48.77-26.91,17.92-12.83,35.39-26.38,52.29-40.53,38.51-32.24,81.95-33.95,127.73-21.51,37.13,10.09,70.68,29.94,108.27,39.24,28.42,7.03,54.4,3.17,78.7-11.93,21.17-13.15,42.46-26.38,62.15-41.56,40.79-31.46,87.36-25.75,125.72,.53,17.78,12.18,34.4,26.03,51.55,39.13-.02,22.11-.04,44.22-.06,66.33-9.26-.23-17.96-3.14-26.64-5.9-57.17-18.14-113.44-16.19-168.92,6.93-43.07,17.95-87.39,21.82-132.55,9.67-65.63-17.66-126.28-3.96-184.57,27.32-32.17,17.27-64.58,34.11-98.93,46.79-29.76,10.99-59.46,10.96-90.28,2.85-32.41-8.52-64.23-19.64-98.02-23.01-16.49-1.64-32.49,.78-48.68,.89-37.83,.26-75.59,2.09-113.5-4.25-46.48-7.77-84.81,7.95-116.12,44.9-23.1,27.26-44.17,56.88-73.79,78.34-22.85,16.56-41.13,17.92-65.17,3.18-18.47-11.33-35.15-25.14-51.24-39.45-38.73-34.47-75.83-37.5-119.11-8.92-15.29,10.1-28.13,23.11-42.39,34.43-3.74,2.97-6.71,6.96-11.95,7.48v-118.06Z"/>
    <path class="cls-12" d="M1439.32,413.84c.02-22.11,.04-44.22,.06-66.33-.07-46.04-.14-92.08-.22-138.12,.03-34.56,.05-69.12,.08-103.68,.21-81.63,.41-163.26,.62-244.88,6.03,3.19,2.7,8.74,2.71,12.96,.2,233.72,.18,467.44,.18,701.16,0,79.19-.17,158.37,.25,237.56,.05,8.59-1.74,10.32-10.34,10.31-475.02-.26-950.04-.22-1425.06-.53-2.95,0-8.51,4.59-10.1-2.58,474.88,0,949.76-.06,1424.64,.32,14.02,.01,18.23-2.62,18.14-17.6-.72-124.26-.4-248.52-.43-372.78,0-5.27-.33-10.53-.51-15.8Z"/>
  </g>
</svg>