<svg xmlns="http://www.w3.org/2000/svg" version="1.1" xmlns:xlink="http://www.w3.org/1999/xlink" xmlns:svgjs="http://svgjs.dev/svgjs" width="1440" height="560" preserveAspectRatio="none" viewBox="0 0 1440 560"><g mask="url(&quot;#SvgjsMask1003&quot;)" fill="none"><rect width="1440" height="560" x="0" y="0" fill="rgba(255, 255, 255, 1)"></rect><path d="M35.01 162.83L99.96 200.33L99.96 275.33L35.01 312.83L-29.94 275.33L-29.94 200.33zM229.87 50.33L294.82 87.83L294.82 162.83L229.87 200.33L164.92 162.83L164.92 87.83zM229.87 275.33L294.82 312.83L294.82 387.83L229.87 425.33L164.92 387.83L164.92 312.83zM294.82 -62.17L359.78 -24.67L359.78 50.33L294.82 87.83L229.87 50.33L229.87 -24.67zM489.69 275.33L554.64 312.83L554.64 387.83L489.69 425.33L424.73 387.83L424.73 312.83zM489.69 500.33L554.64 537.83L554.64 612.83L489.69 650.33L424.73 612.83L424.73 537.83zM749.5 500.33L814.46 537.83L814.46 612.83L749.5 650.33L684.55 612.83L684.55 537.83zM814.45 162.83L879.41 200.33L879.41 275.33L814.45 312.83L749.5 275.33L749.5 200.33zM1139.22 275.33L1204.18 312.83L1204.18 387.83L1139.22 425.33L1074.27 387.83L1074.27 312.83zM1204.18 -62.17L1269.13 -24.67L1269.13 50.33L1204.18 87.83L1139.22 50.33L1139.22 -24.67zM1269.13 275.33L1334.08 312.83L1334.08 387.83L1269.13 425.33L1204.18 387.83L1204.18 312.83zM1204.18 387.83L1269.13 425.33L1269.13 500.33L1204.18 537.83L1139.22 500.33L1139.22 425.33zM1399.04 50.33L1463.99 87.83L1463.99 162.83L1399.04 200.33L1334.09 162.83L1334.09 87.83zM1528.95 50.33L1593.9 87.83L1593.9 162.83L1528.95 200.33L1463.99 162.83L1463.99 87.83zM1528.95 275.33L1593.9 312.83L1593.9 387.83L1528.95 425.33L1463.99 387.83L1463.99 312.83zM1528.95 500.33L1593.9 537.83L1593.9 612.83L1528.95 650.33L1463.99 612.83L1463.99 537.83z" stroke="rgba(54, 179, 186, 1)" stroke-width="2"></path><path d="M27.51 162.83 a7.5 7.5 0 1 0 15 0 a7.5 7.5 0 1 0 -15 0zM92.46 200.33 a7.5 7.5 0 1 0 15 0 a7.5 7.5 0 1 0 -15 0zM92.46 275.33 a7.5 7.5 0 1 0 15 0 a7.5 7.5 0 1 0 -15 0zM27.51 312.83 a7.5 7.5 0 1 0 15 0 a7.5 7.5 0 1 0 -15 0zM-37.44 275.33 a7.5 7.5 0 1 0 15 0 a7.5 7.5 0 1 0 -15 0zM-37.44 200.33 a7.5 7.5 0 1 0 15 0 a7.5 7.5 0 1 0 -15 0zM222.37 50.33 a7.5 7.5 0 1 0 15 0 a7.5 7.5 0 1 0 -15 0zM287.32 87.83 a7.5 7.5 0 1 0 15 0 a7.5 7.5 0 1 0 -15 0zM287.32 162.83 a7.5 7.5 0 1 0 15 0 a7.5 7.5 0 1 0 -15 0zM222.37 200.33 a7.5 7.5 0 1 0 15 0 a7.5 7.5 0 1 0 -15 0zM157.42 162.83 a7.5 7.5 0 1 0 15 0 a7.5 7.5 0 1 0 -15 0zM157.42 87.83 a7.5 7.5 0 1 0 15 0 a7.5 7.5 0 1 0 -15 0zM222.37 275.33 a7.5 7.5 0 1 0 15 0 a7.5 7.5 0 1 0 -15 0zM287.32 312.83 a7.5 7.5 0 1 0 15 0 a7.5 7.5 0 1 0 -15 0zM287.32 387.83 a7.5 7.5 0 1 0 15 0 a7.5 7.5 0 1 0 -15 0zM222.37 425.33 a7.5 7.5 0 1 0 15 0 a7.5 7.5 0 1 0 -15 0zM157.42 387.83 a7.5 7.5 0 1 0 15 0 a7.5 7.5 0 1 0 -15 0zM157.42 312.83 a7.5 7.5 0 1 0 15 0 a7.5 7.5 0 1 0 -15 0zM287.32 -62.17 a7.5 7.5 0 1 0 15 0 a7.5 7.5 0 1 0 -15 0zM352.28 -24.67 a7.5 7.5 0 1 0 15 0 a7.5 7.5 0 1 0 -15 0zM352.28 50.33 a7.5 7.5 0 1 0 15 0 a7.5 7.5 0 1 0 -15 0zM222.37 -24.67 a7.5 7.5 0 1 0 15 0 a7.5 7.5 0 1 0 -15 0zM482.19 275.33 a7.5 7.5 0 1 0 15 0 a7.5 7.5 0 1 0 -15 0zM547.14 312.83 a7.5 7.5 0 1 0 15 0 a7.5 7.5 0 1 0 -15 0zM547.14 387.83 a7.5 7.5 0 1 0 15 0 a7.5 7.5 0 1 0 -15 0zM482.19 425.33 a7.5 7.5 0 1 0 15 0 a7.5 7.5 0 1 0 -15 0zM417.23 387.83 a7.5 7.5 0 1 0 15 0 a7.5 7.5 0 1 0 -15 0zM417.23 312.83 a7.5 7.5 0 1 0 15 0 a7.5 7.5 0 1 0 -15 0zM482.19 500.33 a7.5 7.5 0 1 0 15 0 a7.5 7.5 0 1 0 -15 0zM547.14 537.83 a7.5 7.5 0 1 0 15 0 a7.5 7.5 0 1 0 -15 0zM547.14 612.83 a7.5 7.5 0 1 0 15 0 a7.5 7.5 0 1 0 -15 0zM482.19 650.33 a7.5 7.5 0 1 0 15 0 a7.5 7.5 0 1 0 -15 0zM417.23 612.83 a7.5 7.5 0 1 0 15 0 a7.5 7.5 0 1 0 -15 0zM417.23 537.83 a7.5 7.5 0 1 0 15 0 a7.5 7.5 0 1 0 -15 0zM742 500.33 a7.5 7.5 0 1 0 15 0 a7.5 7.5 0 1 0 -15 0zM806.96 537.83 a7.5 7.5 0 1 0 15 0 a7.5 7.5 0 1 0 -15 0zM806.96 612.83 a7.5 7.5 0 1 0 15 0 a7.5 7.5 0 1 0 -15 0zM742 650.33 a7.5 7.5 0 1 0 15 0 a7.5 7.5 0 1 0 -15 0zM677.05 612.83 a7.5 7.5 0 1 0 15 0 a7.5 7.5 0 1 0 -15 0zM677.05 537.83 a7.5 7.5 0 1 0 15 0 a7.5 7.5 0 1 0 -15 0zM806.95 162.83 a7.5 7.5 0 1 0 15 0 a7.5 7.5 0 1 0 -15 0zM871.91 200.33 a7.5 7.5 0 1 0 15 0 a7.5 7.5 0 1 0 -15 0zM871.91 275.33 a7.5 7.5 0 1 0 15 0 a7.5 7.5 0 1 0 -15 0zM806.95 312.83 a7.5 7.5 0 1 0 15 0 a7.5 7.5 0 1 0 -15 0zM742 275.33 a7.5 7.5 0 1 0 15 0 a7.5 7.5 0 1 0 -15 0zM742 200.33 a7.5 7.5 0 1 0 15 0 a7.5 7.5 0 1 0 -15 0zM1131.72 275.33 a7.5 7.5 0 1 0 15 0 a7.5 7.5 0 1 0 -15 0zM1196.68 312.83 a7.5 7.5 0 1 0 15 0 a7.5 7.5 0 1 0 -15 0zM1196.68 387.83 a7.5 7.5 0 1 0 15 0 a7.5 7.5 0 1 0 -15 0zM1131.72 425.33 a7.5 7.5 0 1 0 15 0 a7.5 7.5 0 1 0 -15 0zM1066.77 387.83 a7.5 7.5 0 1 0 15 0 a7.5 7.5 0 1 0 -15 0zM1066.77 312.83 a7.5 7.5 0 1 0 15 0 a7.5 7.5 0 1 0 -15 0zM1196.68 -62.17 a7.5 7.5 0 1 0 15 0 a7.5 7.5 0 1 0 -15 0zM1261.63 -24.67 a7.5 7.5 0 1 0 15 0 a7.5 7.5 0 1 0 -15 0zM1261.63 50.33 a7.5 7.5 0 1 0 15 0 a7.5 7.5 0 1 0 -15 0zM1196.68 87.83 a7.5 7.5 0 1 0 15 0 a7.5 7.5 0 1 0 -15 0zM1131.72 50.33 a7.5 7.5 0 1 0 15 0 a7.5 7.5 0 1 0 -15 0zM1131.72 -24.67 a7.5 7.5 0 1 0 15 0 a7.5 7.5 0 1 0 -15 0zM1261.63 275.33 a7.5 7.5 0 1 0 15 0 a7.5 7.5 0 1 0 -15 0zM1326.58 312.83 a7.5 7.5 0 1 0 15 0 a7.5 7.5 0 1 0 -15 0zM1326.58 387.83 a7.5 7.5 0 1 0 15 0 a7.5 7.5 0 1 0 -15 0zM1261.63 425.33 a7.5 7.5 0 1 0 15 0 a7.5 7.5 0 1 0 -15 0zM1261.63 500.33 a7.5 7.5 0 1 0 15 0 a7.5 7.5 0 1 0 -15 0zM1196.68 537.83 a7.5 7.5 0 1 0 15 0 a7.5 7.5 0 1 0 -15 0zM1131.72 500.33 a7.5 7.5 0 1 0 15 0 a7.5 7.5 0 1 0 -15 0zM1391.54 50.33 a7.5 7.5 0 1 0 15 0 a7.5 7.5 0 1 0 -15 0zM1456.49 87.83 a7.5 7.5 0 1 0 15 0 a7.5 7.5 0 1 0 -15 0zM1456.49 162.83 a7.5 7.5 0 1 0 15 0 a7.5 7.5 0 1 0 -15 0zM1391.54 200.33 a7.5 7.5 0 1 0 15 0 a7.5 7.5 0 1 0 -15 0zM1326.59 162.83 a7.5 7.5 0 1 0 15 0 a7.5 7.5 0 1 0 -15 0zM1326.59 87.83 a7.5 7.5 0 1 0 15 0 a7.5 7.5 0 1 0 -15 0zM1521.45 50.33 a7.5 7.5 0 1 0 15 0 a7.5 7.5 0 1 0 -15 0zM1586.4 87.83 a7.5 7.5 0 1 0 15 0 a7.5 7.5 0 1 0 -15 0zM1586.4 162.83 a7.5 7.5 0 1 0 15 0 a7.5 7.5 0 1 0 -15 0zM1521.45 200.33 a7.5 7.5 0 1 0 15 0 a7.5 7.5 0 1 0 -15 0zM1521.45 275.33 a7.5 7.5 0 1 0 15 0 a7.5 7.5 0 1 0 -15 0zM1586.4 312.83 a7.5 7.5 0 1 0 15 0 a7.5 7.5 0 1 0 -15 0zM1586.4 387.83 a7.5 7.5 0 1 0 15 0 a7.5 7.5 0 1 0 -15 0zM1521.45 425.33 a7.5 7.5 0 1 0 15 0 a7.5 7.5 0 1 0 -15 0zM1456.49 387.83 a7.5 7.5 0 1 0 15 0 a7.5 7.5 0 1 0 -15 0zM1456.49 312.83 a7.5 7.5 0 1 0 15 0 a7.5 7.5 0 1 0 -15 0zM1521.45 500.33 a7.5 7.5 0 1 0 15 0 a7.5 7.5 0 1 0 -15 0zM1586.4 537.83 a7.5 7.5 0 1 0 15 0 a7.5 7.5 0 1 0 -15 0zM1586.4 612.83 a7.5 7.5 0 1 0 15 0 a7.5 7.5 0 1 0 -15 0zM1521.45 650.33 a7.5 7.5 0 1 0 15 0 a7.5 7.5 0 1 0 -15 0zM1456.49 612.83 a7.5 7.5 0 1 0 15 0 a7.5 7.5 0 1 0 -15 0zM1456.49 537.83 a7.5 7.5 0 1 0 15 0 a7.5 7.5 0 1 0 -15 0z" fill="rgba(54, 179, 186, 1)"></path><path d="M91.83 370.92L135.13 395.92L135.13 445.92L91.83 470.92L48.53 445.92L48.53 395.92zM91.83 520.92L135.13 545.92L135.13 595.92L91.83 620.92L48.53 595.92L48.53 545.92zM178.44 220.92L221.74 245.92L221.74 295.92L178.44 320.92L135.13 295.92L135.13 245.92zM221.74 -4.08L265.04 20.92L265.04 70.92L221.74 95.92L178.44 70.92L178.44 20.92zM265.04 70.92L308.35 95.92L308.35 145.92L265.04 170.92L221.74 145.92L221.74 95.92zM221.74 145.92L265.04 170.92L265.04 220.92L221.74 245.92L178.44 220.92L178.44 170.92zM221.74 445.92L265.04 470.92L265.04 520.92L221.74 545.92L178.44 520.92L178.44 470.92zM308.35 145.92L351.65 170.92L351.65 220.92L308.35 245.92L265.04 220.92L265.04 170.92zM351.65 220.92L394.95 245.92L394.95 295.92L351.65 320.92L308.35 295.92L308.35 245.92zM308.35 445.92L351.65 470.92L351.65 520.92L308.35 545.92L265.04 520.92L265.04 470.92zM438.25 220.92L481.56 245.92L481.56 295.92L438.25 320.92L394.95 295.92L394.95 245.92zM394.95 295.92L438.25 320.92L438.25 370.92L394.95 395.92L351.65 370.92L351.65 320.92zM438.25 370.92L481.56 395.92L481.56 445.92L438.25 470.92L394.95 445.92L394.95 395.92zM394.95 445.92L438.25 470.92L438.25 520.92L394.95 545.92L351.65 520.92L351.65 470.92zM481.56 145.92L524.86 170.92L524.86 220.92L481.56 245.92L438.25 220.92L438.25 170.92zM481.56 445.92L524.86 470.92L524.86 520.92L481.56 545.92L438.25 520.92L438.25 470.92zM611.46 520.92L654.76 545.92L654.76 595.92L611.46 620.92L568.16 595.92L568.16 545.92zM698.07 220.92L741.37 245.92L741.37 295.92L698.07 320.92L654.76 295.92L654.76 245.92zM654.76 295.92L698.07 320.92L698.07 370.92L654.76 395.92L611.46 370.92L611.46 320.92zM698.07 520.92L741.37 545.92L741.37 595.92L698.07 620.92L654.76 595.92L654.76 545.92zM784.67 70.92L827.98 95.92L827.98 145.92L784.67 170.92L741.37 145.92L741.37 95.92zM741.37 145.92L784.67 170.92L784.67 220.92L741.37 245.92L698.07 220.92L698.07 170.92zM784.67 220.92L827.98 245.92L827.98 295.92L784.67 320.92L741.37 295.92L741.37 245.92zM741.37 445.92L784.67 470.92L784.67 520.92L741.37 545.92L698.07 520.92L698.07 470.92zM784.67 520.92L827.98 545.92L827.98 595.92L784.67 620.92L741.37 595.92L741.37 545.92zM827.98 -4.08L871.28 20.92L871.28 70.92L827.98 95.92L784.67 70.92L784.67 20.92zM827.98 145.92L871.28 170.92L871.28 220.92L827.98 245.92L784.67 220.92L784.67 170.92zM914.58 -4.08L957.88 20.92L957.88 70.92L914.58 95.92L871.28 70.92L871.28 20.92zM957.88 70.92L1001.19 95.92L1001.19 145.92L957.88 170.92L914.58 145.92L914.58 95.92zM957.88 370.92L1001.19 395.92L1001.19 445.92L957.88 470.92L914.58 445.92L914.58 395.92zM1001.19 145.92L1044.49 170.92L1044.49 220.92L1001.19 245.92L957.88 220.92L957.88 170.92zM1044.49 220.92L1087.79 245.92L1087.79 295.92L1044.49 320.92L1001.19 295.92L1001.19 245.92zM1001.19 295.92L1044.49 320.92L1044.49 370.92L1001.19 395.92L957.88 370.92L957.88 320.92zM1044.49 520.92L1087.79 545.92L1087.79 595.92L1044.49 620.92L1001.19 595.92L1001.19 545.92zM1087.79 295.92L1131.09 320.92L1131.09 370.92L1087.79 395.92L1044.49 370.92L1044.49 320.92zM1217.7 520.92L1261 545.92L1261 595.92L1217.7 620.92L1174.39 595.92L1174.39 545.92zM1304.3 220.92L1347.61 245.92L1347.61 295.92L1304.3 320.92L1261 295.92L1261 245.92zM1304.3 370.92L1347.61 395.92L1347.61 445.92L1304.3 470.92L1261 445.92L1261 395.92zM1390.91 70.92L1434.21 95.92L1434.21 145.92L1390.91 170.92L1347.61 145.92L1347.61 95.92zM1347.61 295.92L1390.91 320.92L1390.91 370.92L1347.61 395.92L1304.3 370.92L1304.3 320.92zM1347.61 445.92L1390.91 470.92L1390.91 520.92L1347.61 545.92L1304.3 520.92L1304.3 470.92zM1477.51 70.92L1520.82 95.92L1520.82 145.92L1477.51 170.92L1434.21 145.92L1434.21 95.92z" stroke="rgba(18, 110, 119, 1)" stroke-width="2"></path></g><defs><mask id="SvgjsMask1003"><rect width="1440" height="560" fill="#ffffff"></rect></mask></defs></svg>